SplineFontDB: 3.2
FontName: Kadiri
FullName: Kadiri
FamilyName: Kadiri
Weight: Book
Copyright: Copyright 2020 Aditya Bayu Perdana. All Rights Reserved.
Version: 1.00 March 13, 2020
ItalicAngle: 0
UnderlinePosition: -125
UnderlineWidth: 50
Ascent: 800
Descent: 200
InvalidEm: 0
sfntRevision: 0x00010000
LayerCount: 2
Layer: 0 1 "Back" 1
Layer: 1 1 "Fore" 0
XUID: [1021 231 -599577464 10824692]
StyleMap: 0x0040
FSType: 0
OS2Version: 1
OS2_WeightWidthSlopeOnly: 0
OS2_UseTypoMetrics: 0
CreationTime: 1584226710
ModificationTime: 1584226710
PfmFamily: 17
TTFWeight: 400
TTFWidth: 5
LineGap: 0
VLineGap: 0
Panose: 2 2 5 2 6 5 5 2 2 4
OS2TypoAscent: 1000
OS2TypoAOffset: 0
OS2TypoDescent: -800
OS2TypoDOffset: 0
OS2TypoLinegap: 0
OS2WinAscent: 1000
OS2WinAOffset: 0
OS2WinDescent: 800
OS2WinDOffset: 0
HheadAscent: 1000
HheadAOffset: 0
HheadDescent: -800
HheadDOffset: 0
OS2SubXSize: 650
OS2SubYSize: 600
OS2SubXOff: 0
OS2SubYOff: 75
OS2SupXSize: 650
OS2SupYSize: 600
OS2SupXOff: 0
OS2SupYOff: 350
OS2StrikeYSize: 50
OS2StrikeYPos: 322
OS2Vendor: 'BAYU'
OS2CodePages: 00000001.00000000
OS2UnicodeRanges: 08000000.00000000.00000000.00000000
Lookup: 4 0 0 "'ccmp' Glyph Composition/Decomposition in Balinese lookup 0" { "'ccmp' Glyph Composition/Decomposition in Balinese lookup 0 subtable"  } ['ccmp' ('DFLT' <'dflt' > 'bali' <'dflt' > ) ]
Lookup: 2 0 0 "'ccmp' Glyph Composition/Decomposition in Balinese lookup 1" { "'ccmp' Glyph Composition/Decomposition in Balinese lookup 1 subtable"  } ['ccmp' ('DFLT' <'dflt' > 'bali' <'dflt' > ) ]
Lookup: 6 0 0 "'rphf' Reph Form in Balinese lookup 2" { "'rphf' Reph Form in Balinese lookup 2 subtable"  } ['rphf' ('bali' <'KAW ' > ) ]
Lookup: 4 0 0 "Ligature Substitution lookup 3" { "Ligature Substitution lookup 3 subtable"  } []
Lookup: 4 0 0 "'blwf' Below Base Forms in Balinese lookup 4" { "'blwf' Below Base Forms in Balinese lookup 4 subtable"  } ['blwf' ('DFLT' <'dflt' > 'bali' <'dflt' > ) ]

StartChar: .notdef
Encoding: 65536 -1 0
Width: 600
GlyphClass: 2
Flags: W
LayerCount: 2
Fore
SplineSet
94 0 m 1,0,-1
 94 714 l 1,1,-1
 505 714 l 1,2,-1
 505 0 l 1,3,-1
 94 0 l 1,0,-1
145 663 m 1,4,-1
 145 51 l 1,5,-1
 454 51 l 1,6,-1
 454 663 l 1,7,-1
 145 663 l 1,4,-1
EndSplineSet
EndChar

StartChar: uni1B00
Encoding: 6912 6912 5
Width: 0
GlyphClass: 4
Flags: W
AnchorPoint: "Anchor-0" -366 505 mark 0
LayerCount: 2
Fore
SplineSet
-260 656 m 1,0,1
 -265 725 -265 725 -342 725 c 0,2,3
 -410 723 -410 723 -416 659 c 1,4,-1
 -416 652 l 2,5,6
 -416 579 -416 579 -299 562 c 1,7,8
 -261 588 -261 588 -260 656 c 1,0,1
-445 653 m 0,9,10
 -445 696 -445 696 -417.5 726.5 c 128,-1,11
 -390 757 -390 757 -336 757 c 0,12,13
 -281 755 -281 755 -257 728.5 c 128,-1,14
 -233 702 -233 702 -233 653 c 0,15,16
 -235 578 -235 578 -288 540 c 0,17,18
 -292 537 -292 537 -294 537 c 0,19,20
 -445 547 -445 547 -445 653 c 0,9,10
-219 489 m 0,21,22
 -224 489 -224 489 -227 494 c 1,23,24
 -150 587 -150 587 -150 707 c 0,25,26
 -154 850 -154 850 -329 850 c 0,27,28
 -407 850 -407 850 -461 798.5 c 128,-1,29
 -515 747 -515 747 -515 657 c 0,30,31
 -515 563 -515 563 -420 496 c 1,32,-1
 -425 496 l 2,33,34
 -446 496 -446 496 -491 529.5 c 128,-1,35
 -536 563 -536 563 -546 643 c 2,36,-1
 -548 669 l 1,37,38
 -548 755 -548 755 -495 820 c 128,-1,39
 -442 885 -442 885 -322 885 c 0,40,41
 -113 882 -113 882 -111 703 c 0,42,43
 -111 578 -111 578 -211 492 c 0,44,45
 -216 489 -216 489 -219 489 c 0,21,22
EndSplineSet
Ligature2: "'liga' Standard Ligatures in Balinese lookup 357 subtable" _reorder uni1B00
MultipleSubs2: "Multiple Substitution lookup 303 subtable" uni1B00 _reorder
Ligature2: "'liga' Standard Ligatures in Balinese lookup 301 subtable" _reorder uni1B00
MultipleSubs2: "Multiple Substitution lookup 247 subtable" uni1B00 _reorder
Ligature2: "'liga' Standard Ligatures in Balinese lookup 245 subtable" _reorder uni1B00
MultipleSubs2: "Multiple Substitution lookup 191 subtable" uni1B00 _reorder
Ligature2: "'liga' Standard Ligatures in Balinese lookup 184 subtable" _reorder uni1B00
MultipleSubs2: "Multiple Substitution lookup 130 subtable" uni1B00 _reorder
Ligature2: "'liga' Standard Ligatures in Balinese lookup 128 subtable" _reorder uni1B00
MultipleSubs2: "Multiple Substitution lookup 74 subtable" uni1B00 _reorder
Ligature2: "'liga' Standard Ligatures in Balinese lookup 72 subtable" _reorder uni1B00
MultipleSubs2: "Multiple Substitution lookup 18 subtable" uni1B00 _reorder
EndChar

StartChar: uni1B01
Encoding: 6913 6913 6
Width: 0
GlyphClass: 4
Flags: W
AnchorPoint: "Anchor-0" -274 494 mark 0
LayerCount: 2
Fore
SplineSet
-305 595 m 1,0,1
 -315 705 -315 705 -315 795 c 1,2,3
 -310 878 -310 878 -292 888 c 1,4,5
 -292 690 -292 690 -279 620 c 1,6,-1
 -305 595 l 1,0,1
-294 481 m 1,7,8
 -480 484 -480 484 -490 646 c 1,9,-1
 -490 651 l 2,10,11
 -487 700 -487 700 -475 716 c 1,12,-1
 -475 701 l 2,13,14
 -475 592 -475 592 -423.5 554.5 c 128,-1,15
 -372 517 -372 517 -293 517 c 2,16,-1
 -288 517 l 1,17,18
 -117 522 -117 522 -117 701 c 1,19,-1
 -118 736 l 1,20,21
 -95 707 -95 707 -95 666 c 0,22,23
 -95 494 -95 494 -294 481 c 1,7,8
-339 504 m 1,24,-1
 -352 506 l 1,25,-1
 -355 542 l 1,26,27
 -355 622 -355 622 -296 622 c 2,28,-1
 -280 621 l 1,29,30
 -231 613 -231 613 -231 557 c 0,31,32
 -231 537 -231 537 -237 514 c 1,33,-1
 -249 516 l 1,34,-1
 -248 532 l 2,35,36
 -248 586 -248 586 -292 586 c 0,37,38
 -339 586 -339 586 -339 504 c 1,24,-1
EndSplineSet
Ligature2: "'liga' Standard Ligatures in Balinese lookup 357 subtable" _reorder uni1B01
MultipleSubs2: "Multiple Substitution lookup 304 subtable" uni1B01 _reorder
Ligature2: "'liga' Standard Ligatures in Balinese lookup 301 subtable" _reorder uni1B01
MultipleSubs2: "Multiple Substitution lookup 248 subtable" uni1B01 _reorder
Ligature2: "'liga' Standard Ligatures in Balinese lookup 245 subtable" _reorder uni1B01
MultipleSubs2: "Multiple Substitution lookup 192 subtable" uni1B01 _reorder
Ligature2: "'liga' Standard Ligatures in Balinese lookup 184 subtable" _reorder uni1B01
MultipleSubs2: "Multiple Substitution lookup 131 subtable" uni1B01 _reorder
Ligature2: "'liga' Standard Ligatures in Balinese lookup 128 subtable" _reorder uni1B01
MultipleSubs2: "Multiple Substitution lookup 75 subtable" uni1B01 _reorder
Ligature2: "'liga' Standard Ligatures in Balinese lookup 72 subtable" _reorder uni1B01
MultipleSubs2: "Multiple Substitution lookup 19 subtable" uni1B01 _reorder
EndChar

StartChar: uni1B02
Encoding: 6914 6914 7
Width: 0
GlyphClass: 4
Flags: W
AnchorPoint: "Anchor-0" -225 502 mark 0
LayerCount: 2
Fore
SplineSet
-292 795 m 2,0,-1
 -264 795 l 2,1,2
 -183 795 -183 795 -172 696 c 1,3,4
 -172 615 -172 615 -253 501 c 1,5,-1
 -263 509 l 1,6,7
 -204 625 -204 625 -204 696 c 1,8,9
 -215 774 -215 774 -306 774 c 1,10,-1
 -306 781 l 2,11,12
 -304 795 -304 795 -292 795 c 2,0,-1
EndSplineSet
Ligature2: "'liga' Standard Ligatures in Balinese lookup 357 subtable" _reorder uni1B02
MultipleSubs2: "Multiple Substitution lookup 305 subtable" uni1B02 _reorder
Ligature2: "'liga' Standard Ligatures in Balinese lookup 301 subtable" _reorder uni1B02
MultipleSubs2: "Multiple Substitution lookup 249 subtable" uni1B02 _reorder
Ligature2: "'liga' Standard Ligatures in Balinese lookup 245 subtable" _reorder uni1B02
MultipleSubs2: "Multiple Substitution lookup 193 subtable" uni1B02 _reorder
Ligature2: "'liga' Standard Ligatures in Balinese lookup 184 subtable" _reorder uni1B02
MultipleSubs2: "Multiple Substitution lookup 132 subtable" uni1B02 _reorder
Ligature2: "'liga' Standard Ligatures in Balinese lookup 128 subtable" _reorder uni1B02
MultipleSubs2: "Multiple Substitution lookup 76 subtable" uni1B02 _reorder
Ligature2: "'liga' Standard Ligatures in Balinese lookup 72 subtable" _reorder uni1B02
MultipleSubs2: "Multiple Substitution lookup 20 subtable" uni1B02 _reorder
EndChar

StartChar: uni1B03
Encoding: 6915 6915 8
Width: 0
GlyphClass: 4
Flags: W
LayerCount: 2
Fore
SplineSet
-110 539 m 1,0,1
 -353 577 -353 577 -487.5 632 c 128,-1,2
 -622 687 -622 687 -678 738 c 128,-1,3
 -734 789 -734 789 -734 857 c 0,4,5
 -734 895 -734 895 -714 922 c 1,6,-1
 -715 905 l 1,7,8
 -715 794 -715 794 -576 711.5 c 128,-1,9
 -437 629 -437 629 -106 554 c 1,10,-1
 -110 539 l 1,0,1
EndSplineSet
Ligature2: "'liga' Standard Ligatures in Balinese lookup 357 subtable" _reorder uni1B03
MultipleSubs2: "Multiple Substitution lookup 306 subtable" uni1B03 _reorder
Ligature2: "'liga' Standard Ligatures in Balinese lookup 301 subtable" _reorder uni1B03
MultipleSubs2: "Multiple Substitution lookup 250 subtable" uni1B03 _reorder
Ligature2: "'liga' Standard Ligatures in Balinese lookup 245 subtable" _reorder uni1B03
MultipleSubs2: "Multiple Substitution lookup 194 subtable" uni1B03 _reorder
Ligature2: "'liga' Standard Ligatures in Balinese lookup 184 subtable" _reorder uni1B03
MultipleSubs2: "Multiple Substitution lookup 133 subtable" uni1B03 _reorder
Ligature2: "'liga' Standard Ligatures in Balinese lookup 128 subtable" _reorder uni1B03
MultipleSubs2: "Multiple Substitution lookup 77 subtable" uni1B03 _reorder
Ligature2: "'liga' Standard Ligatures in Balinese lookup 72 subtable" _reorder uni1B03
MultipleSubs2: "Multiple Substitution lookup 21 subtable" uni1B03 _reorder
Ligature2: "Ligature Substitution lookup 3 subtable" uni1B2D uni1B44
Position2: "Single Positioning lookup 338 subtable" dx=-250 dy=0 dh=0 dv=0
Position2: "Single Positioning lookup 337 subtable" dx=-300 dy=150 dh=0 dv=0
Position2: "Single Positioning lookup 336 subtable" dx=-350 dy=0 dh=0 dv=0
Position2: "Single Positioning lookup 335 subtable" dx=-300 dy=0 dh=0 dv=0
Position2: "Single Positioning lookup 334 subtable" dx=-450 dy=0 dh=0 dv=0
Position2: "Single Positioning lookup 333 subtable" dx=-400 dy=0 dh=0 dv=0
Position2: "Single Positioning lookup 332 subtable" dx=0 dy=100 dh=0 dv=0
EndChar

StartChar: uni1B04
Encoding: 6916 6916 9
Width: 265
GlyphClass: 2
Flags: W
LayerCount: 2
Fore
SplineSet
129 -485 m 1,0,-1
 123 -485 l 2,1,2
 77 -485 77 -485 72 -400 c 0,3,4
 72 -335 72 -335 123.5 -153.5 c 128,-1,5
 175 28 175 28 175 131 c 0,6,7
 175 198 175 198 89 258 c 1,8,-1
 93 271 l 1,9,10
 204 317 204 317 204 377 c 0,11,12
 204 392 204 392 181 392 c 0,13,14
 114 392 114 392 84.5 347.5 c 128,-1,15
 55 303 55 303 46 210 c 1,16,17
 35 247 35 247 35 278 c 0,18,19
 35 334 35 334 69 377.5 c 128,-1,20
 103 421 103 421 167 421 c 0,21,22
 228 421 228 421 230 371 c 0,23,24
 230 305 230 305 130 264 c 1,25,26
 201 234 201 234 209 126 c 1,27,28
 209 37 209 37 157.5 -144 c 128,-1,29
 106 -325 106 -325 106 -404 c 0,30,31
 106 -463 106 -463 129 -485 c 1,0,-1
EndSplineSet
EndChar

StartChar: uni1B05
Encoding: 6917 6917 10
Width: 594
GlyphClass: 2
Flags: W
AnchorPoint: "Anchor-0" 264 490 basechar 0
LayerCount: 2
Fore
SplineSet
295 0 m 0,0,1
 246 1 246 1 218 16.5 c 128,-1,2
 190 32 190 32 190 48 c 2,3,-1
 191 55 l 1,4,5
 231 31 231 31 295 31 c 2,6,-1
 300 31 l 1,7,8
 466 43 466 43 466 223 c 0,9,10
 463 313 463 313 415 404 c 1,11,12
 437 421 437 421 472 421 c 0,13,14
 565 417 565 417 569 285 c 0,15,16
 569 219 569 219 547.5 110 c 128,-1,17
 526 1 526 1 501 1 c 1,18,19
 530 173 530 173 530 270 c 0,20,21
 527 385 527 385 461 385 c 2,22,-1
 456 385 l 1,23,24
 497 311 497 311 497 207 c 2,25,-1
 497 202 l 1,26,27
 490 4 490 4 295 0 c 0,0,1
537 -136 m 1,28,29
 525 -19 525 -19 437 100 c 1,30,-1
 408 133 l 2,31,32
 382 158 382 158 330 191 c 1,33,34
 340 206 340 206 360 206 c 0,35,36
 384 206 384 206 425 167 c 1,37,-1
 458 127 l 2,38,39
 494 79 494 79 518.5 8 c 128,-1,40
 543 -63 543 -63 547 -100 c 2,41,-1
 548 -114 l 2,42,43
 548 -136 548 -136 537 -136 c 1,28,29
54 -7 m 0,44,45
 26 -7 26 -7 26 6 c 1,46,47
 149 67 149 67 149 156 c 0,48,49
 149 216 149 216 33 222 c 1,50,-1
 33 229 l 1,51,52
 125 309 125 309 126 353 c 2,53,-1
 126 356 l 2,54,55
 126 381 126 381 104 381 c 2,56,-1
 93 380 l 2,57,58
 59 375 59 375 12 330 c 1,59,60
 4 336 4 336 4 345 c 2,61,-1
 5 350 l 1,62,63
 50 409 50 409 125 409 c 1,64,65
 160 401 160 401 160 356 c 0,66,67
 158 314 158 314 78 241 c 1,68,69
 179 234 179 234 179 155 c 1,70,-1
 178 139 l 1,71,72
 151 7 151 7 54 -7 c 0,44,45
EndSplineSet
EndChar

StartChar: uni1B06
Encoding: 6918 6918 11
Width: 804
GlyphClass: 2
Flags: W
AnchorPoint: "Anchor-0" 494 490 basechar 0
LayerCount: 2
Fore
SplineSet
273 0 m 0,0,1
 224 1 224 1 196 16.5 c 128,-1,2
 168 32 168 32 168 48 c 2,3,-1
 169 55 l 1,4,5
 209 31 209 31 276 31 c 1,6,7
 379 43 379 43 410.5 82 c 128,-1,8
 442 121 442 121 442 214 c 2,9,-1
 441 252 l 2,10,11
 441 341 441 341 484 380.5 c 128,-1,12
 527 420 527 420 618 420 c 1,13,14
 794 402 794 402 794 233 c 0,15,16
 794 150 794 150 731 76 c 128,-1,17
 668 2 668 2 605 2 c 0,18,19
 557 2 557 2 513 49 c 1,20,21
 544 45 544 45 571 45 c 0,22,23
 661 45 661 45 711.5 96.5 c 128,-1,24
 762 148 762 148 762 228 c 0,25,26
 762 366 762 366 625 385 c 1,27,-1
 611 385 l 2,28,29
 547 385 547 385 510.5 357 c 128,-1,30
 474 329 474 329 470 244 c 1,31,-1
 470 208 l 2,32,33
 470 4 470 4 273 0 c 0,0,1
514 -136 m 1,34,35
 502 -19 502 -19 414 100 c 1,36,-1
 385 133 l 2,37,38
 359 158 359 158 307 191 c 1,39,40
 317 206 317 206 337 206 c 0,41,42
 361 206 361 206 402 167 c 1,43,-1
 435 127 l 2,44,45
 471 79 471 79 495.5 8 c 128,-1,46
 520 -63 520 -63 524 -100 c 2,47,-1
 525 -114 l 2,48,49
 525 -136 525 -136 514 -136 c 1,34,35
54 -7 m 0,50,51
 26 -7 26 -7 26 6 c 1,52,53
 149 67 149 67 149 156 c 0,54,55
 149 216 149 216 33 222 c 1,56,-1
 33 229 l 1,57,58
 125 309 125 309 126 353 c 2,59,-1
 126 356 l 2,60,61
 126 381 126 381 104 381 c 2,62,-1
 93 380 l 2,63,64
 59 375 59 375 12 330 c 1,65,66
 4 336 4 336 4 345 c 2,67,-1
 5 350 l 1,68,69
 50 409 50 409 125 409 c 1,70,71
 160 401 160 401 160 356 c 0,72,73
 158 314 158 314 78 241 c 1,74,75
 179 234 179 234 179 155 c 1,76,-1
 178 139 l 1,77,78
 151 7 151 7 54 -7 c 0,50,51
EndSplineSet
Ligature2: "'ccmp' Glyph Composition/Decomposition in Balinese lookup 0 subtable" uni1B05 uni1B35
EndChar

StartChar: uni1B09
Encoding: 6921 6921 14
Width: 385
GlyphClass: 2
Flags: W
AnchorPoint: "Anchor-0" 371 490 basechar 0
LayerCount: 2
Fore
SplineSet
91 -461 m 1,0,1
 -72 -438 -72 -438 -75 -297 c 2,2,-1
 -75 -288 l 2,3,4
 -75 -111 -75 -111 116.5 1.5 c 128,-1,5
 308 114 308 114 314 274 c 1,6,-1
 314 287 l 1,7,8
 305 390 305 390 209 394 c 1,9,10
 120 390 120 390 113 256 c 0,11,12
 113 203 113 203 128 179 c 1,13,-1
 121 172 l 1,14,15
 9 189 9 189 9 311 c 1,16,17
 15 370 15 370 53 374 c 1,18,19
 41 357 41 357 41 304 c 0,20,21
 41 244 41 244 90 195 c 1,22,23
 82 216 82 216 82 233 c 2,24,-1
 82 241 l 2,25,26
 82 417 82 417 215 428 c 1,27,28
 340 425 340 425 348 273 c 1,29,30
 348 160 348 160 273 82.5 c 128,-1,31
 198 5 198 5 83 -68.5 c 128,-1,32
 -32 -142 -32 -142 -37 -288 c 0,33,34
 -37 -399 -37 -399 68 -427 c 1,35,36
 62 -392 62 -392 62 -361 c 0,37,38
 62 -137 62 -137 202 -131 c 0,39,40
 262 -131 262 -131 301 -174 c 128,-1,41
 340 -217 340 -217 341 -302 c 0,42,43
 341 -378 341 -378 318 -426 c 1,44,-1
 320 -378 l 1,45,46
 320 -164 320 -164 213 -164 c 0,47,48
 148 -164 148 -164 119 -226.5 c 128,-1,49
 90 -289 90 -289 90 -420 c 2,50,-1
 91 -461 l 1,0,1
EndSplineSet
Position2: "Single Positioning lookup 133 subtable" dx=80 dy=0 dh=80 dv=0
Position2: "Single Positioning lookup 116 subtable" dx=98 dy=0 dh=98 dv=0
Position2: "Single Positioning lookup 98 subtable" dx=133 dy=0 dh=133 dv=0
Position2: "Single Positioning lookup 80 subtable" dx=230 dy=0 dh=230 dv=0
Position2: "Single Positioning lookup 62 subtable" dx=280 dy=0 dh=280 dv=0
Position2: "Single Positioning lookup 44 subtable" dx=273 dy=0 dh=273 dv=0
EndChar

StartChar: uni1B0A
Encoding: 6922 6922 15
Width: 781
GlyphClass: 2
Flags: W
AnchorPoint: "Anchor-0" 371 490 basechar 0
LayerCount: 2
Fore
SplineSet
575 2 m 0,0,1
 527 2 527 2 483 49 c 1,2,3
 518 41 518 41 545 41 c 0,4,5
 635 41 635 41 682.5 92.5 c 128,-1,6
 730 144 730 144 730 224 c 0,7,8
 730 385 730 385 576 385 c 2,9,-1
 572 385 l 2,10,11
 479 385 479 385 363 300 c 1,12,13
 367 327 367 327 425.5 373.5 c 128,-1,14
 484 420 484 420 588 420 c 1,15,16
 764 412 764 412 764 233 c 0,17,18
 764 125 764 125 701 63.5 c 128,-1,19
 638 2 638 2 575 2 c 0,0,1
91 -461 m 1,20,21
 -72 -438 -72 -438 -75 -297 c 2,22,-1
 -75 -288 l 2,23,24
 -75 -111 -75 -111 116.5 1.5 c 128,-1,25
 308 114 308 114 314 274 c 1,26,-1
 314 287 l 1,27,28
 305 390 305 390 209 394 c 1,29,30
 120 390 120 390 113 256 c 0,31,32
 113 203 113 203 128 179 c 1,33,-1
 121 172 l 1,34,35
 9 189 9 189 9 311 c 1,36,37
 15 370 15 370 53 374 c 1,38,39
 41 357 41 357 41 304 c 0,40,41
 41 244 41 244 90 195 c 1,42,43
 82 216 82 216 82 233 c 2,44,-1
 82 241 l 2,45,46
 82 417 82 417 215 428 c 1,47,48
 340 425 340 425 348 273 c 1,49,50
 348 160 348 160 273 82.5 c 128,-1,51
 198 5 198 5 83 -68.5 c 128,-1,52
 -32 -142 -32 -142 -37 -288 c 0,53,54
 -37 -399 -37 -399 68 -427 c 1,55,56
 62 -392 62 -392 62 -361 c 0,57,58
 62 -137 62 -137 202 -131 c 0,59,60
 262 -131 262 -131 301 -174 c 128,-1,61
 340 -217 340 -217 341 -302 c 0,62,63
 341 -378 341 -378 318 -426 c 1,64,-1
 320 -378 l 1,65,66
 320 -164 320 -164 213 -164 c 0,67,68
 148 -164 148 -164 119 -226.5 c 128,-1,69
 90 -289 90 -289 90 -420 c 2,70,-1
 91 -461 l 1,20,21
EndSplineSet
Ligature2: "'ccmp' Glyph Composition/Decomposition in Balinese lookup 0 subtable" uni1B09 uni1B35
Position2: "Single Positioning lookup 133 subtable" dx=80 dy=0 dh=80 dv=0
Position2: "Single Positioning lookup 116 subtable" dx=98 dy=0 dh=98 dv=0
Position2: "Single Positioning lookup 98 subtable" dx=133 dy=0 dh=133 dv=0
Position2: "Single Positioning lookup 80 subtable" dx=230 dy=0 dh=230 dv=0
Position2: "Single Positioning lookup 62 subtable" dx=280 dy=0 dh=280 dv=0
Position2: "Single Positioning lookup 44 subtable" dx=273 dy=0 dh=273 dv=0
EndChar

StartChar: uni1B0D
Encoding: 6925 6925 18
Width: 577
GlyphClass: 2
Flags: W
AnchorPoint: "Anchor-0" 328 490 basechar 0
LayerCount: 2
Fore
SplineSet
153 0 m 1,0,1
 44 8 44 8 44 120 c 0,2,3
 47 194 47 194 100 308 c 1,4,5
 55 280 55 280 28 187 c 1,6,7
 15 202 15 202 15 219 c 0,8,9
 27 295 27 295 101 340 c 1,10,11
 132 340 132 340 132 308 c 1,12,13
 73 183 73 183 73 115 c 0,14,15
 73 27 73 27 170 27 c 1,16,-1
 187 28 l 1,17,18
 136 89 136 89 136 196 c 2,19,-1
 136 212 l 1,20,21
 140 330 140 330 215 330 c 0,22,23
 268 329 268 329 298 288 c 1,24,25
 304 424 304 424 434 424 c 1,26,27
 555 415 555 415 557 296 c 0,28,29
 557 246 557 246 535.5 123.5 c 128,-1,30
 514 1 514 1 489 1 c 1,31,32
 514 192 514 192 518 287 c 1,33,34
 516 390 516 390 418 390 c 0,35,36
 366 390 366 390 344 344.5 c 128,-1,37
 322 299 322 299 322 203 c 2,38,-1
 323 152 l 2,39,40
 323 130 323 130 304 128 c 1,41,42
 294 294 294 294 216 294 c 0,43,44
 165 293 165 293 165 205 c 2,45,-1
 165 186 l 1,46,47
 170 83 170 83 230 20 c 1,48,49
 211 0 211 0 153 0 c 1,0,1
375 -438 m 1,50,-1
 334 -568 l 1,51,52
 359 -562 359 -562 366 -522 c 128,-1,53
 373 -482 373 -482 375 -438 c 1,50,-1
311 -615 m 1,54,55
 296 -614 296 -614 296 -598 c 0,56,57
 298 -577 298 -577 364 -403 c 1,58,59
 351 -381 351 -381 238 -322.5 c 128,-1,60
 125 -264 125 -264 125 -186 c 2,61,-1
 125 -176 l 1,62,63
 135 -54 135 -54 317 -46 c 1,64,65
 411 -50 411 -50 437 -101 c 1,66,67
 381 -76 381 -76 305 -76 c 0,68,69
 167 -76 167 -76 166 -182 c 0,70,71
 168 -249 168 -249 253.5 -297 c 128,-1,72
 339 -345 339 -345 377 -375 c 1,73,74
 502 25 502 25 514 113 c 1,75,-1
 530 113 l 1,76,77
 479 -167 479 -167 397 -400 c 1,78,-1
 399 -490 l 1,79,80
 389 -590 389 -590 311 -615 c 1,54,55
EndSplineSet
Position2: "Single Positioning lookup 117 subtable" dx=8 dy=0 dh=8 dv=0
Position2: "Single Positioning lookup 99 subtable" dx=43 dy=0 dh=43 dv=0
Position2: "Single Positioning lookup 81 subtable" dx=140 dy=0 dh=140 dv=0
Position2: "Single Positioning lookup 63 subtable" dx=190 dy=0 dh=190 dv=0
Position2: "Single Positioning lookup 45 subtable" dx=183 dy=0 dh=183 dv=0
EndChar

StartChar: uni1B0E
Encoding: 6926 6926 19
Width: 577
GlyphClass: 2
Flags: W
AnchorPoint: "Anchor-0" 338 490 basechar 0
LayerCount: 2
Fore
SplineSet
153 0 m 1,0,1
 44 8 44 8 44 120 c 0,2,3
 47 194 47 194 100 308 c 1,4,5
 55 280 55 280 28 187 c 1,6,7
 15 202 15 202 15 219 c 0,8,9
 27 295 27 295 101 340 c 1,10,11
 132 340 132 340 132 308 c 1,12,13
 73 183 73 183 73 115 c 0,14,15
 73 27 73 27 170 27 c 1,16,-1
 187 28 l 1,17,18
 136 89 136 89 136 196 c 2,19,-1
 136 212 l 1,20,21
 140 330 140 330 215 330 c 0,22,23
 268 329 268 329 298 288 c 1,24,25
 304 424 304 424 434 424 c 1,26,27
 555 415 555 415 557 296 c 0,28,29
 557 246 557 246 535.5 123.5 c 128,-1,30
 514 1 514 1 489 1 c 1,31,32
 514 192 514 192 518 287 c 1,33,34
 516 390 516 390 418 390 c 0,35,36
 366 390 366 390 344 344.5 c 128,-1,37
 322 299 322 299 322 203 c 2,38,-1
 323 152 l 2,39,40
 323 130 323 130 304 128 c 1,41,42
 294 294 294 294 216 294 c 0,43,44
 165 293 165 293 165 205 c 2,45,-1
 165 186 l 1,46,47
 170 83 170 83 230 20 c 1,48,49
 211 0 211 0 153 0 c 1,0,1
460 -107 m 1,50,51
 369 -69 369 -69 269 -82.5 c 128,-1,52
 169 -96 169 -96 168 -182 c 0,53,54
 170 -249 170 -249 255.5 -297 c 128,-1,55
 341 -345 341 -345 379 -375 c 1,56,57
 429 -216 429 -216 460 -107 c 1,50,51
483 -118 m 1,58,59
 446 -267 446 -267 399 -400 c 1,60,61
 400 -471 400 -471 355 -512 c 1,62,63
 340 -511 340 -511 340 -495 c 0,64,65
 342 -474 342 -474 366 -403 c 1,66,67
 353 -381 353 -381 240 -322.5 c 128,-1,68
 127 -264 127 -264 127 -186 c 2,69,-1
 127 -176 l 1,70,71
 137 -74 137 -74 259 -57 c 128,-1,72
 381 -40 381 -40 467 -85 c 1,73,74
 509 63 509 63 516 113 c 1,75,-1
 532 113 l 1,76,77
 512 6 512 6 488 -95 c 1,78,79
 574 -135 574 -135 568.5 -206 c 128,-1,80
 563 -277 563 -277 484 -349 c 1,81,82
 585 -356 585 -356 585 -435 c 1,83,-1
 584 -451 l 1,84,85
 557 -583 557 -583 460 -597 c 0,86,87
 432 -597 432 -597 432 -584 c 1,88,89
 555 -523 555 -523 555 -434 c 0,90,91
 555 -374 555 -374 439 -368 c 1,92,-1
 439 -361 l 1,93,94
 531 -281 531 -281 538.5 -219 c 128,-1,95
 546 -157 546 -157 483 -118 c 1,58,59
EndSplineSet
Ligature2: "'ccmp' Glyph Composition/Decomposition in Balinese lookup 0 subtable" uni1B0D uni1B35
Position2: "Single Positioning lookup 117 subtable" dx=8 dy=0 dh=8 dv=0
Position2: "Single Positioning lookup 99 subtable" dx=43 dy=0 dh=43 dv=0
Position2: "Single Positioning lookup 81 subtable" dx=140 dy=0 dh=140 dv=0
Position2: "Single Positioning lookup 63 subtable" dx=190 dy=0 dh=190 dv=0
Position2: "Single Positioning lookup 45 subtable" dx=183 dy=0 dh=183 dv=0
EndChar

StartChar: uni1B0F
Encoding: 6927 6927 20
Width: 505
GlyphClass: 2
Flags: W
AnchorPoint: "Anchor-0" 344 499 basechar 0
LayerCount: 2
Fore
SplineSet
186 -11 m 1,0,1
 23 12 23 12 20 153 c 2,2,-1
 20 162 l 2,3,4
 20 275 20 275 101.5 341.5 c 128,-1,5
 183 408 183 408 312 408 c 2,6,-1
 323 408 l 2,7,8
 458 406 458 406 458 382 c 1,9,-1
 387 383 l 1,10,11
 64 383 64 383 58 162 c 0,12,13
 58 51 58 51 163 23 c 1,14,15
 157 58 157 58 157 87 c 0,16,17
 157 241 157 241 290 241 c 0,18,19
 382 241 382 241 433.5 186 c 128,-1,20
 485 131 485 131 485 72 c 0,21,22
 485 46 485 46 472 25 c 1,23,24
 472 91 472 91 426.5 147.5 c 128,-1,25
 381 204 381 204 292 204 c 0,26,27
 185 204 185 204 185 30 c 1,28,-1
 186 -11 l 1,0,1
EndSplineSet
EndChar

StartChar: uni1B10
Encoding: 6928 6928 21
Width: 687
GlyphClass: 2
Flags: W
AnchorPoint: "Anchor-0" 356 490 basechar 0
LayerCount: 2
Fore
SplineSet
618 459 m 1,0,1
 594 581 594 581 576 581 c 0,2,3
 567 581 567 581 550 547.5 c 128,-1,4
 533 514 533 514 533 489 c 0,5,6
 533 459 533 459 609 459 c 2,7,-1
 618 459 l 1,0,1
510 -340 m 0,8,9
 467 -339 467 -339 442 -308 c 0,10,11
 383 -246 383 -246 306 -246 c 0,12,13
 199 -246 199 -246 199 -420 c 1,14,-1
 200 -461 l 1,15,16
 37 -438 37 -438 34 -297 c 2,17,-1
 34 -288 l 2,18,19
 34 -111 34 -111 268 -20 c 0,20,21
 517 74 517 74 523 274 c 1,22,-1
 523 287 l 1,23,24
 514 390 514 390 418 390 c 0,25,26
 352 390 352 390 337.5 338 c 128,-1,27
 323 286 323 286 323 158 c 0,28,29
 323 130 323 130 304 128 c 1,30,31
 294 294 294 294 216 294 c 0,32,33
 165 293 165 293 165 205 c 2,34,-1
 165 186 l 1,35,36
 170 83 170 83 230 23 c 1,37,38
 211 3 211 3 173 3 c 2,39,-1
 159 4 l 1,40,41
 44 21 44 21 44 118 c 2,42,-1
 44 122 l 2,43,44
 47 194 47 194 100 308 c 1,45,46
 55 280 55 280 28 187 c 1,47,48
 20 202 20 202 20 219 c 0,49,50
 32 295 32 295 101 340 c 1,51,52
 132 340 132 340 132 308 c 1,53,54
 73 183 73 183 73 135 c 0,55,56
 73 33 73 33 187 31 c 1,57,58
 136 89 136 89 136 196 c 2,59,-1
 136 212 l 1,60,61
 140 330 140 330 215 330 c 0,62,63
 268 329 268 329 298 288 c 1,64,65
 304 424 304 424 424 424 c 1,66,67
 549 415 549 415 557 273 c 1,68,69
 557 160 557 160 482 82.5 c 128,-1,70
 407 5 407 5 242 -68.5 c 128,-1,71
 77 -142 77 -142 72 -288 c 0,72,73
 72 -399 72 -399 177 -427 c 1,74,75
 171 -392 171 -392 171 -363 c 0,76,77
 171 -209 171 -209 304 -209 c 0,78,79
 378 -209 378 -209 419 -247 c 128,-1,80
 460 -285 460 -285 476 -298 c 128,-1,81
 492 -311 492 -311 506 -311 c 0,82,83
 576 -311 576 -311 601 -144 c 128,-1,84
 626 23 626 23 635 267 c 1,85,86
 632 369 632 369 621 439 c 1,87,88
 574 432 574 432 556 432 c 0,89,90
 505 432 505 432 505 482 c 0,91,92
 505 519 505 519 531.5 569 c 128,-1,93
 558 619 558 619 584 619 c 0,94,95
 656 619 656 619 667 257 c 1,96,97
 659 51 659 51 630 -142.5 c 128,-1,98
 601 -336 601 -336 510 -340 c 0,8,9
EndSplineSet
Position2: "Single Positioning lookup 118 subtable" dx=3 dy=0 dh=3 dv=0
Position2: "Single Positioning lookup 100 subtable" dx=38 dy=0 dh=38 dv=0
Position2: "Single Positioning lookup 82 subtable" dx=135 dy=0 dh=135 dv=0
Position2: "Single Positioning lookup 64 subtable" dx=185 dy=0 dh=185 dv=0
Position2: "Single Positioning lookup 46 subtable" dx=178 dy=0 dh=178 dv=0
EndChar

StartChar: uni1B11
Encoding: 6929 6929 22
Width: 577
GlyphClass: 2
Flags: W
AnchorPoint: "Anchor-0" 360 490 basechar 0
LayerCount: 2
Fore
SplineSet
200 -461 m 1,0,1
 37 -438 37 -438 34 -297 c 2,2,-1
 34 -288 l 2,3,4
 34 -111 34 -111 268 -20 c 0,5,6
 517 74 517 74 523 274 c 1,7,-1
 523 287 l 1,8,9
 514 390 514 390 418 390 c 0,10,11
 352 390 352 390 337.5 338 c 128,-1,12
 323 286 323 286 323 158 c 0,13,14
 323 130 323 130 304 128 c 1,15,16
 294 294 294 294 216 294 c 0,17,18
 165 293 165 293 165 205 c 2,19,-1
 165 186 l 1,20,21
 170 83 170 83 230 23 c 1,22,23
 211 3 211 3 173 3 c 2,24,-1
 159 4 l 1,25,26
 44 21 44 21 44 118 c 2,27,-1
 44 122 l 2,28,29
 47 194 47 194 100 308 c 1,30,31
 55 280 55 280 28 187 c 1,32,33
 20 202 20 202 20 219 c 0,34,35
 32 295 32 295 101 340 c 1,36,37
 132 340 132 340 132 308 c 1,38,39
 73 183 73 183 73 135 c 0,40,41
 73 33 73 33 187 31 c 1,42,43
 136 89 136 89 136 196 c 2,44,-1
 136 212 l 1,45,46
 140 330 140 330 215 330 c 0,47,48
 268 329 268 329 298 288 c 1,49,50
 304 424 304 424 424 424 c 1,51,52
 549 415 549 415 557 273 c 1,53,54
 557 160 557 160 482 82.5 c 128,-1,55
 407 5 407 5 242 -68.5 c 128,-1,56
 77 -142 77 -142 72 -288 c 0,57,58
 72 -399 72 -399 177 -427 c 1,59,60
 171 -392 171 -392 171 -361 c 0,61,62
 171 -235 171 -235 230 -174.5 c 128,-1,63
 289 -114 289 -114 384 -114 c 2,64,-1
 393 -114 l 1,65,66
 469 -119 469 -119 519 -173 c 128,-1,67
 569 -227 569 -227 570 -302 c 0,68,69
 570 -378 570 -378 547 -426 c 1,70,-1
 549 -378 l 1,71,72
 549 -277 549 -277 509.5 -213 c 128,-1,73
 470 -149 470 -149 391 -149 c 0,74,75
 199 -149 199 -149 199 -420 c 1,76,-1
 200 -461 l 1,0,1
EndSplineSet
Position2: "Single Positioning lookup 118 subtable" dx=3 dy=0 dh=3 dv=0
Position2: "Single Positioning lookup 100 subtable" dx=38 dy=0 dh=38 dv=0
Position2: "Single Positioning lookup 82 subtable" dx=135 dy=0 dh=135 dv=0
Position2: "Single Positioning lookup 64 subtable" dx=185 dy=0 dh=185 dv=0
Position2: "Single Positioning lookup 46 subtable" dx=178 dy=0 dh=178 dv=0
EndChar

StartChar: uni1B12
Encoding: 6930 6930 23
Width: 998
GlyphClass: 2
Flags: W
AnchorPoint: "Anchor-0" 380 490 basechar 0
LayerCount: 2
Fore
SplineSet
200 -461 m 1,0,1
 37 -438 37 -438 34 -297 c 2,2,-1
 34 -288 l 2,3,4
 34 -111 34 -111 268 -20 c 0,5,6
 517 74 517 74 523 274 c 1,7,-1
 523 287 l 1,8,9
 514 390 514 390 418 390 c 0,10,11
 352 390 352 390 337.5 338 c 128,-1,12
 323 286 323 286 323 158 c 0,13,14
 323 130 323 130 304 128 c 1,15,16
 294 294 294 294 216 294 c 0,17,18
 165 293 165 293 165 205 c 2,19,-1
 165 186 l 1,20,21
 170 83 170 83 230 23 c 1,22,23
 211 3 211 3 173 3 c 2,24,-1
 159 4 l 1,25,26
 44 21 44 21 44 118 c 2,27,-1
 44 122 l 2,28,29
 47 194 47 194 100 308 c 1,30,31
 55 280 55 280 28 187 c 1,32,33
 20 202 20 202 20 219 c 0,34,35
 32 295 32 295 101 340 c 1,36,37
 132 340 132 340 132 308 c 1,38,39
 73 183 73 183 73 135 c 0,40,41
 73 33 73 33 187 31 c 1,42,43
 136 89 136 89 136 196 c 2,44,-1
 136 212 l 1,45,46
 140 330 140 330 215 330 c 0,47,48
 268 329 268 329 298 288 c 1,49,50
 304 424 304 424 424 424 c 1,51,52
 549 415 549 415 557 273 c 1,53,54
 557 160 557 160 482 82.5 c 128,-1,55
 407 5 407 5 242 -68.5 c 128,-1,56
 77 -142 77 -142 72 -288 c 0,57,58
 72 -399 72 -399 177 -427 c 1,59,60
 171 -392 171 -392 171 -361 c 0,61,62
 171 -235 171 -235 230 -174.5 c 128,-1,63
 289 -114 289 -114 384 -114 c 2,64,-1
 393 -114 l 1,65,66
 469 -119 469 -119 519 -173 c 128,-1,67
 569 -227 569 -227 570 -302 c 0,68,69
 570 -378 570 -378 547 -426 c 1,70,-1
 549 -378 l 1,71,72
 549 -277 549 -277 509.5 -213 c 128,-1,73
 470 -149 470 -149 391 -149 c 0,74,75
 199 -149 199 -149 199 -420 c 1,76,-1
 200 -461 l 1,0,1
782 2 m 0,77,78
 734 2 734 2 690 49 c 1,79,80
 725 41 725 41 752 41 c 0,81,82
 842 41 842 41 889.5 92.5 c 128,-1,83
 937 144 937 144 937 224 c 0,84,85
 937 385 937 385 783 385 c 2,86,-1
 779 385 l 2,87,88
 686 385 686 385 570 300 c 1,89,90
 574 327 574 327 632.5 373.5 c 128,-1,91
 691 420 691 420 795 420 c 1,92,93
 971 412 971 412 971 233 c 0,94,95
 971 125 971 125 908 63.5 c 128,-1,96
 845 2 845 2 782 2 c 0,77,78
EndSplineSet
Ligature2: "'ccmp' Glyph Composition/Decomposition in Balinese lookup 0 subtable" uni1B11 uni1B35
Position2: "Single Positioning lookup 118 subtable" dx=3 dy=0 dh=3 dv=0
Position2: "Single Positioning lookup 100 subtable" dx=38 dy=0 dh=38 dv=0
Position2: "Single Positioning lookup 82 subtable" dx=135 dy=0 dh=135 dv=0
Position2: "Single Positioning lookup 64 subtable" dx=185 dy=0 dh=185 dv=0
Position2: "Single Positioning lookup 46 subtable" dx=178 dy=0 dh=178 dv=0
EndChar

StartChar: uni1B13
Encoding: 6931 6931 24
Width: 771
GlyphClass: 2
Flags: W
AnchorPoint: "Anchor-2" 528 0 basechar 0
AnchorPoint: "Anchor-0" 476 490 basechar 0
LayerCount: 2
Fore
SplineSet
343 35 m 1,0,1
 378 48 378 48 380 79 c 0,2,3
 380 136 380 136 300 174 c 1,4,5
 325 35 325 35 343 35 c 1,0,1
330 -5 m 1,6,7
 300 -5 300 -5 265 193 c 1,8,-1
 242 195 l 2,9,10
 225 195 225 195 208 190 c 1,11,12
 182 127 182 127 149 -5 c 1,13,14
 106 4 106 4 102 36 c 1,15,16
 103 128 103 128 187 219 c 1,17,18
 201 285 201 285 202 323 c 0,19,20
 202 387 202 387 154 389 c 0,21,22
 119 388 119 388 92.5 345.5 c 128,-1,23
 66 303 66 303 66 234 c 0,24,25
 66 213 66 213 72 195 c 1,26,27
 40 195 40 195 40 247 c 2,28,-1
 41 272 l 1,29,30
 66 421 66 421 161 421 c 0,31,32
 232 419 232 419 232 335 c 0,33,34
 231 284 231 284 217 221 c 1,35,36
 232 225 232 225 246 225 c 2,37,-1
 262 224 l 1,38,39
 258 246 258 246 258 273 c 0,40,41
 258 428 258 428 383 428 c 1,42,43
 521 414 521 414 566 329 c 1,44,45
 576 421 576 421 630 421 c 0,46,47
 731 414 731 414 731 312 c 0,48,49
 731 246 731 246 709.5 123.5 c 128,-1,50
 688 1 688 1 663 1 c 1,51,52
 688 192 688 192 692 274 c 2,53,-1
 693 307 l 2,54,55
 693 380 693 380 639 388 c 1,56,-1
 634 388 l 2,57,58
 601 388 601 388 593 287 c 1,59,60
 591 211 591 211 585.5 121 c 128,-1,61
 580 31 580 31 572.5 16 c 128,-1,62
 565 1 565 1 553 1 c 1,63,64
 558 138 558 138 558 242 c 2,65,-1
 558 249 l 1,66,67
 554 376 554 376 379 396 c 1,68,-1
 372 396 l 2,69,70
 292 396 292 396 292 254 c 0,71,72
 292 235 292 235 295 213 c 1,73,74
 414 156 414 156 414 79 c 0,75,76
 414 11 414 11 330 -5 c 1,6,7
EndSplineSet
MultipleSubs2: "Multiple Substitution lookup 311 subtable" uni1B13 _reorder
MultipleSubs2: "Multiple Substitution lookup 255 subtable" uni1B13 _reorder
MultipleSubs2: "Multiple Substitution lookup 199 subtable" uni1B13 _reorder
MultipleSubs2: "Multiple Substitution lookup 138 subtable" uni1B13 _reorder
MultipleSubs2: "Multiple Substitution lookup 82 subtable" uni1B13 _reorder
MultipleSubs2: "Multiple Substitution lookup 26 subtable" uni1B13 _reorder
Position2: "Single Positioning lookup 329 subtable" dx=5 dy=0 dh=5 dv=0
Position2: "Single Positioning lookup 328 subtable" dx=5 dy=0 dh=5 dv=0
Position2: "Single Positioning lookup 324 subtable" dx=5 dy=0 dh=5 dv=0
Position2: "Single Positioning lookup 314 subtable" dx=5 dy=0 dh=5 dv=0
Position2: "Single Positioning lookup 310 subtable" dx=5 dy=0 dh=5 dv=0
Position2: "Single Positioning lookup 309 subtable" dx=5 dy=0 dh=5 dv=0
Position2: "Single Positioning lookup 308 subtable" dx=5 dy=0 dh=5 dv=0
Position2: "Single Positioning lookup 306 subtable" dx=23 dy=0 dh=23 dv=0
Position2: "Single Positioning lookup 305 subtable" dx=23 dy=0 dh=23 dv=0
Position2: "Single Positioning lookup 301 subtable" dx=23 dy=0 dh=23 dv=0
Position2: "Single Positioning lookup 290 subtable" dx=23 dy=0 dh=23 dv=0
Position2: "Single Positioning lookup 286 subtable" dx=23 dy=0 dh=23 dv=0
Position2: "Single Positioning lookup 285 subtable" dx=23 dy=0 dh=23 dv=0
Position2: "Single Positioning lookup 284 subtable" dx=23 dy=0 dh=23 dv=0
Position2: "Single Positioning lookup 282 subtable" dx=58 dy=0 dh=58 dv=0
Position2: "Single Positioning lookup 280 subtable" dx=58 dy=0 dh=58 dv=0
Position2: "Single Positioning lookup 275 subtable" dx=58 dy=0 dh=58 dv=0
Position2: "Single Positioning lookup 262 subtable" dx=58 dy=0 dh=58 dv=0
Position2: "Single Positioning lookup 258 subtable" dx=58 dy=0 dh=58 dv=0
Position2: "Single Positioning lookup 257 subtable" dx=58 dy=0 dh=58 dv=0
Position2: "Single Positioning lookup 256 subtable" dx=58 dy=0 dh=58 dv=0
Position2: "Single Positioning lookup 252 subtable" dx=155 dy=0 dh=155 dv=0
Position2: "Single Positioning lookup 250 subtable" dx=155 dy=0 dh=155 dv=0
Position2: "Single Positioning lookup 245 subtable" dx=155 dy=0 dh=155 dv=0
Position2: "Single Positioning lookup 244 subtable" dx=155 dy=0 dh=155 dv=0
Position2: "Single Positioning lookup 235 subtable" dx=155 dy=0 dh=155 dv=0
Position2: "Single Positioning lookup 232 subtable" dx=155 dy=0 dh=155 dv=0
Position2: "Single Positioning lookup 228 subtable" dx=155 dy=0 dh=155 dv=0
Position2: "Single Positioning lookup 226 subtable" dx=155 dy=0 dh=155 dv=0
Position2: "Single Positioning lookup 225 subtable" dx=155 dy=0 dh=155 dv=0
Position2: "Single Positioning lookup 223 subtable" dx=155 dy=0 dh=155 dv=0
Position2: "Single Positioning lookup 222 subtable" dx=155 dy=0 dh=155 dv=0
Position2: "Single Positioning lookup 221 subtable" dx=155 dy=0 dh=155 dv=0
Position2: "Single Positioning lookup 217 subtable" dx=205 dy=0 dh=205 dv=0
Position2: "Single Positioning lookup 215 subtable" dx=205 dy=0 dh=205 dv=0
Position2: "Single Positioning lookup 214 subtable" dx=205 dy=0 dh=205 dv=0
Position2: "Single Positioning lookup 210 subtable" dx=205 dy=0 dh=205 dv=0
Position2: "Single Positioning lookup 209 subtable" dx=205 dy=0 dh=205 dv=0
Position2: "Single Positioning lookup 208 subtable" dx=205 dy=0 dh=205 dv=0
Position2: "Single Positioning lookup 206 subtable" dx=205 dy=0 dh=205 dv=0
Position2: "Single Positioning lookup 205 subtable" dx=205 dy=0 dh=205 dv=0
Position2: "Single Positioning lookup 204 subtable" dx=205 dy=0 dh=205 dv=0
Position2: "Single Positioning lookup 199 subtable" dx=205 dy=0 dh=205 dv=0
Position2: "Single Positioning lookup 196 subtable" dx=205 dy=0 dh=205 dv=0
Position2: "Single Positioning lookup 195 subtable" dx=205 dy=0 dh=205 dv=0
Position2: "Single Positioning lookup 194 subtable" dx=205 dy=0 dh=205 dv=0
Position2: "Single Positioning lookup 193 subtable" dx=205 dy=0 dh=205 dv=0
Position2: "Single Positioning lookup 192 subtable" dx=205 dy=0 dh=205 dv=0
Position2: "Single Positioning lookup 190 subtable" dx=205 dy=0 dh=205 dv=0
Position2: "Single Positioning lookup 189 subtable" dx=205 dy=0 dh=205 dv=0
Position2: "Single Positioning lookup 187 subtable" dx=205 dy=0 dh=205 dv=0
Position2: "Single Positioning lookup 186 subtable" dx=205 dy=0 dh=205 dv=0
Position2: "Single Positioning lookup 185 subtable" dx=205 dy=0 dh=205 dv=0
Position2: "Single Positioning lookup 181 subtable" dx=198 dy=0 dh=198 dv=0
Position2: "Single Positioning lookup 179 subtable" dx=198 dy=0 dh=198 dv=0
Position2: "Single Positioning lookup 178 subtable" dx=198 dy=0 dh=198 dv=0
Position2: "Single Positioning lookup 174 subtable" dx=198 dy=0 dh=198 dv=0
Position2: "Single Positioning lookup 173 subtable" dx=198 dy=0 dh=198 dv=0
Position2: "Single Positioning lookup 172 subtable" dx=198 dy=0 dh=198 dv=0
Position2: "Single Positioning lookup 170 subtable" dx=198 dy=0 dh=198 dv=0
Position2: "Single Positioning lookup 169 subtable" dx=198 dy=0 dh=198 dv=0
Position2: "Single Positioning lookup 168 subtable" dx=198 dy=0 dh=198 dv=0
Position2: "Single Positioning lookup 163 subtable" dx=198 dy=0 dh=198 dv=0
Position2: "Single Positioning lookup 160 subtable" dx=198 dy=0 dh=198 dv=0
Position2: "Single Positioning lookup 159 subtable" dx=198 dy=0 dh=198 dv=0
Position2: "Single Positioning lookup 158 subtable" dx=198 dy=0 dh=198 dv=0
Position2: "Single Positioning lookup 157 subtable" dx=198 dy=0 dh=198 dv=0
Position2: "Single Positioning lookup 156 subtable" dx=198 dy=0 dh=198 dv=0
Position2: "Single Positioning lookup 154 subtable" dx=198 dy=0 dh=198 dv=0
Position2: "Single Positioning lookup 153 subtable" dx=198 dy=0 dh=198 dv=0
Position2: "Single Positioning lookup 151 subtable" dx=198 dy=0 dh=198 dv=0
Position2: "Single Positioning lookup 150 subtable" dx=198 dy=0 dh=198 dv=0
Position2: "Single Positioning lookup 149 subtable" dx=198 dy=0 dh=198 dv=0
Position2: "Single Positioning lookup 34 subtable" dx=0 dy=0 dh=262 dv=0
Position2: "Single Positioning lookup 33 subtable" dx=122 dy=0 dh=122 dv=0
Position2: "Single Positioning lookup 31 subtable" dx=0 dy=0 dh=108 dv=0
Position2: "Single Positioning lookup 30 subtable" dx=173 dy=0 dh=173 dv=0
Position2: "Single Positioning lookup 25 subtable" dx=54 dy=0 dh=54 dv=0
Position2: "Single Positioning lookup 12 subtable" dx=0 dy=0 dh=38 dv=0
Position2: "Single Positioning lookup 11 subtable" dx=81 dy=0 dh=81 dv=0
Position2: "Single Positioning lookup 7 subtable" dx=44 dy=0 dh=44 dv=0
Position2: "Single Positioning lookup 6 subtable" dx=130 dy=0 dh=130 dv=0
Position2: "Single Positioning lookup 5 subtable" dx=30 dy=0 dh=30 dv=0
EndChar

StartChar: uni1B14
Encoding: 6932 6932 25
Width: 837
GlyphClass: 2
Flags: W
AnchorPoint: "Anchor-2" 595 0 basechar 0
AnchorPoint: "Anchor-0" 380 490 basechar 0
LayerCount: 2
Fore
SplineSet
343 35 m 1,0,1
 378 48 378 48 380 79 c 0,2,3
 380 136 380 136 300 174 c 1,4,5
 325 35 325 35 343 35 c 1,0,1
330 -5 m 1,6,7
 300 -5 300 -5 265 193 c 1,8,-1
 242 195 l 2,9,10
 225 195 225 195 208 190 c 1,11,12
 182 127 182 127 149 -5 c 1,13,14
 106 4 106 4 102 36 c 1,15,16
 103 128 103 128 187 219 c 1,17,18
 201 285 201 285 202 323 c 0,19,20
 202 387 202 387 154 389 c 0,21,22
 119 388 119 388 92.5 345.5 c 128,-1,23
 66 303 66 303 66 234 c 0,24,25
 66 213 66 213 72 195 c 1,26,27
 40 195 40 195 40 247 c 2,28,-1
 41 272 l 1,29,30
 66 421 66 421 161 421 c 0,31,32
 232 419 232 419 232 335 c 0,33,34
 231 284 231 284 217 221 c 1,35,36
 232 225 232 225 246 225 c 2,37,-1
 262 224 l 1,38,39
 258 246 258 246 258 273 c 0,40,41
 258 428 258 428 383 428 c 1,42,43
 555 422 555 422 561 312 c 1,44,45
 551 250 551 250 546 172 c 2,46,-1
 545 141 l 2,47,48
 545 84 545 84 558.5 59 c 128,-1,49
 572 34 572 34 606 34 c 0,50,51
 671 34 671 34 823 183 c 1,52,53
 823 161 823 161 801 140 c 2,54,-1
 765 101 l 1,55,56
 663 -1 663 -1 596 -1 c 0,57,58
 559 -1 559 -1 538.5 23.5 c 128,-1,59
 518 48 518 48 518 129 c 0,60,61
 518 200 518 200 526 307 c 1,62,63
 526 385 526 385 367 396 c 1,64,65
 292 391 292 391 292 254 c 0,66,67
 292 235 292 235 295 213 c 1,68,69
 414 156 414 156 414 79 c 0,70,71
 414 11 414 11 330 -5 c 1,6,7
EndSplineSet
MultipleSubs2: "Multiple Substitution lookup 312 subtable" uni1B14 _reorder
MultipleSubs2: "Multiple Substitution lookup 256 subtable" uni1B14 _reorder
MultipleSubs2: "Multiple Substitution lookup 200 subtable" uni1B14 _reorder
MultipleSubs2: "Multiple Substitution lookup 139 subtable" uni1B14 _reorder
MultipleSubs2: "Multiple Substitution lookup 83 subtable" uni1B14 _reorder
MultipleSubs2: "Multiple Substitution lookup 27 subtable" uni1B14 _reorder
Position2: "Single Positioning lookup 329 subtable" dx=5 dy=0 dh=5 dv=0
Position2: "Single Positioning lookup 328 subtable" dx=5 dy=0 dh=5 dv=0
Position2: "Single Positioning lookup 314 subtable" dx=5 dy=0 dh=5 dv=0
Position2: "Single Positioning lookup 309 subtable" dx=5 dy=0 dh=5 dv=0
Position2: "Single Positioning lookup 306 subtable" dx=23 dy=0 dh=23 dv=0
Position2: "Single Positioning lookup 305 subtable" dx=23 dy=0 dh=23 dv=0
Position2: "Single Positioning lookup 301 subtable" dx=23 dy=0 dh=23 dv=0
Position2: "Single Positioning lookup 290 subtable" dx=23 dy=0 dh=23 dv=0
Position2: "Single Positioning lookup 286 subtable" dx=23 dy=0 dh=23 dv=0
Position2: "Single Positioning lookup 285 subtable" dx=23 dy=0 dh=23 dv=0
Position2: "Single Positioning lookup 282 subtable" dx=58 dy=0 dh=58 dv=0
Position2: "Single Positioning lookup 280 subtable" dx=58 dy=0 dh=58 dv=0
Position2: "Single Positioning lookup 275 subtable" dx=58 dy=0 dh=58 dv=0
Position2: "Single Positioning lookup 262 subtable" dx=58 dy=0 dh=58 dv=0
Position2: "Single Positioning lookup 258 subtable" dx=58 dy=0 dh=58 dv=0
Position2: "Single Positioning lookup 257 subtable" dx=58 dy=0 dh=58 dv=0
Position2: "Single Positioning lookup 256 subtable" dx=58 dy=0 dh=58 dv=0
Position2: "Single Positioning lookup 252 subtable" dx=155 dy=0 dh=155 dv=0
Position2: "Single Positioning lookup 250 subtable" dx=155 dy=0 dh=155 dv=0
Position2: "Single Positioning lookup 244 subtable" dx=155 dy=0 dh=155 dv=0
Position2: "Single Positioning lookup 232 subtable" dx=155 dy=0 dh=155 dv=0
Position2: "Single Positioning lookup 228 subtable" dx=155 dy=0 dh=155 dv=0
Position2: "Single Positioning lookup 223 subtable" dx=155 dy=0 dh=155 dv=0
Position2: "Single Positioning lookup 222 subtable" dx=155 dy=0 dh=155 dv=0
Position2: "Single Positioning lookup 221 subtable" dx=155 dy=0 dh=155 dv=0
Position2: "Single Positioning lookup 217 subtable" dx=205 dy=0 dh=205 dv=0
Position2: "Single Positioning lookup 215 subtable" dx=205 dy=0 dh=205 dv=0
Position2: "Single Positioning lookup 209 subtable" dx=205 dy=0 dh=205 dv=0
Position2: "Single Positioning lookup 208 subtable" dx=205 dy=0 dh=205 dv=0
Position2: "Single Positioning lookup 199 subtable" dx=205 dy=0 dh=205 dv=0
Position2: "Single Positioning lookup 196 subtable" dx=205 dy=0 dh=205 dv=0
Position2: "Single Positioning lookup 192 subtable" dx=205 dy=0 dh=205 dv=0
Position2: "Single Positioning lookup 190 subtable" dx=205 dy=0 dh=205 dv=0
Position2: "Single Positioning lookup 187 subtable" dx=205 dy=0 dh=205 dv=0
Position2: "Single Positioning lookup 186 subtable" dx=205 dy=0 dh=205 dv=0
Position2: "Single Positioning lookup 185 subtable" dx=205 dy=0 dh=205 dv=0
Position2: "Single Positioning lookup 181 subtable" dx=198 dy=0 dh=198 dv=0
Position2: "Single Positioning lookup 179 subtable" dx=198 dy=0 dh=198 dv=0
Position2: "Single Positioning lookup 173 subtable" dx=198 dy=0 dh=198 dv=0
Position2: "Single Positioning lookup 172 subtable" dx=198 dy=0 dh=198 dv=0
Position2: "Single Positioning lookup 163 subtable" dx=198 dy=0 dh=198 dv=0
Position2: "Single Positioning lookup 160 subtable" dx=198 dy=0 dh=198 dv=0
Position2: "Single Positioning lookup 156 subtable" dx=198 dy=0 dh=198 dv=0
Position2: "Single Positioning lookup 154 subtable" dx=198 dy=0 dh=198 dv=0
Position2: "Single Positioning lookup 151 subtable" dx=198 dy=0 dh=198 dv=0
Position2: "Single Positioning lookup 150 subtable" dx=198 dy=0 dh=198 dv=0
Position2: "Single Positioning lookup 149 subtable" dx=198 dy=0 dh=198 dv=0
Position2: "Single Positioning lookup 34 subtable" dx=0 dy=0 dh=263 dv=0
Position2: "Single Positioning lookup 33 subtable" dx=55 dy=0 dh=55 dv=0
Position2: "Single Positioning lookup 31 subtable" dx=0 dy=0 dh=109 dv=0
Position2: "Single Positioning lookup 30 subtable" dx=106 dy=0 dh=106 dv=0
Position2: "Single Positioning lookup 12 subtable" dx=0 dy=0 dh=39 dv=0
Position2: "Single Positioning lookup 11 subtable" dx=14 dy=0 dh=14 dv=0
Position2: "Single Positioning lookup 6 subtable" dx=64 dy=0 dh=64 dv=0
EndChar

StartChar: uni1B15
Encoding: 6933 6933 26
Width: 653
GlyphClass: 2
Flags: W
AnchorPoint: "Anchor-2" 453 0 basechar 0
AnchorPoint: "Anchor-0" 426 490 basechar 0
LayerCount: 2
Fore
SplineSet
424 0 m 1,0,1
 440 80 440 80 444 119 c 128,-1,2
 448 158 448 158 449 239 c 0,3,4
 449 320 449 320 396 352 c 128,-1,5
 343 384 343 384 250 388 c 1,6,7
 146 388 146 388 146 170 c 0,8,9
 146 100 146 100 183 1 c 1,10,-1
 164 0 l 1,11,12
 40 0 40 0 40 151 c 0,13,14
 40 263 40 263 107 307 c 1,15,16
 73 243 73 243 73 150 c 0,17,18
 73 56 73 56 139 36 c 1,19,20
 109 100 109 100 109 170 c 0,21,22
 109 421 109 421 242 421 c 0,23,24
 393 421 393 421 442 362 c 1,25,26
 465 421 465 421 512 421 c 0,27,28
 613 414 613 414 613 312 c 0,29,30
 613 246 613 246 591.5 123.5 c 128,-1,31
 570 1 570 1 545 1 c 1,32,33
 570 192 570 192 574 274 c 2,34,-1
 575 307 l 2,35,36
 575 380 575 380 521 388 c 1,37,-1
 516 388 l 2,38,39
 490 388 490 388 467 341 c 1,40,41
 481 300 481 300 481 229 c 0,42,43
 481 157 481 157 469.5 78.5 c 128,-1,44
 458 0 458 0 424 0 c 1,0,1
EndSplineSet
MultipleSubs2: "Multiple Substitution lookup 313 subtable" uni1B15 _reorder
MultipleSubs2: "Multiple Substitution lookup 257 subtable" uni1B15 _reorder
MultipleSubs2: "Multiple Substitution lookup 201 subtable" uni1B15 _reorder
MultipleSubs2: "Multiple Substitution lookup 140 subtable" uni1B15 _reorder
MultipleSubs2: "Multiple Substitution lookup 84 subtable" uni1B15 _reorder
MultipleSubs2: "Multiple Substitution lookup 28 subtable" uni1B15 _reorder
Position2: "Single Positioning lookup 329 subtable" dx=5 dy=0 dh=5 dv=0
Position2: "Single Positioning lookup 328 subtable" dx=5 dy=0 dh=5 dv=0
Position2: "Single Positioning lookup 324 subtable" dx=5 dy=0 dh=5 dv=0
Position2: "Single Positioning lookup 318 subtable" dx=5 dy=0 dh=5 dv=0
Position2: "Single Positioning lookup 314 subtable" dx=5 dy=0 dh=5 dv=0
Position2: "Single Positioning lookup 313 subtable" dx=5 dy=0 dh=5 dv=0
Position2: "Single Positioning lookup 310 subtable" dx=5 dy=0 dh=5 dv=0
Position2: "Single Positioning lookup 309 subtable" dx=5 dy=0 dh=5 dv=0
Position2: "Single Positioning lookup 308 subtable" dx=5 dy=0 dh=5 dv=0
Position2: "Single Positioning lookup 306 subtable" dx=23 dy=0 dh=23 dv=0
Position2: "Single Positioning lookup 305 subtable" dx=23 dy=0 dh=23 dv=0
Position2: "Single Positioning lookup 302 subtable" dx=23 dy=0 dh=23 dv=0
Position2: "Single Positioning lookup 301 subtable" dx=23 dy=0 dh=23 dv=0
Position2: "Single Positioning lookup 296 subtable" dx=23 dy=0 dh=23 dv=0
Position2: "Single Positioning lookup 294 subtable" dx=23 dy=0 dh=23 dv=0
Position2: "Single Positioning lookup 290 subtable" dx=23 dy=0 dh=23 dv=0
Position2: "Single Positioning lookup 289 subtable" dx=23 dy=0 dh=23 dv=0
Position2: "Single Positioning lookup 286 subtable" dx=23 dy=0 dh=23 dv=0
Position2: "Single Positioning lookup 285 subtable" dx=23 dy=0 dh=23 dv=0
Position2: "Single Positioning lookup 284 subtable" dx=23 dy=0 dh=23 dv=0
Position2: "Single Positioning lookup 282 subtable" dx=58 dy=0 dh=58 dv=0
Position2: "Single Positioning lookup 280 subtable" dx=58 dy=0 dh=58 dv=0
Position2: "Single Positioning lookup 279 subtable" dx=58 dy=0 dh=58 dv=0
Position2: "Single Positioning lookup 277 subtable" dx=58 dy=0 dh=58 dv=0
Position2: "Single Positioning lookup 276 subtable" dx=58 dy=0 dh=58 dv=0
Position2: "Single Positioning lookup 275 subtable" dx=58 dy=0 dh=58 dv=0
Position2: "Single Positioning lookup 273 subtable" dx=58 dy=0 dh=58 dv=0
Position2: "Single Positioning lookup 268 subtable" dx=58 dy=0 dh=58 dv=0
Position2: "Single Positioning lookup 266 subtable" dx=58 dy=0 dh=58 dv=0
Position2: "Single Positioning lookup 265 subtable" dx=58 dy=0 dh=58 dv=0
Position2: "Single Positioning lookup 264 subtable" dx=58 dy=0 dh=58 dv=0
Position2: "Single Positioning lookup 262 subtable" dx=58 dy=0 dh=58 dv=0
Position2: "Single Positioning lookup 261 subtable" dx=58 dy=0 dh=58 dv=0
Position2: "Single Positioning lookup 260 subtable" dx=58 dy=0 dh=58 dv=0
Position2: "Single Positioning lookup 258 subtable" dx=58 dy=0 dh=58 dv=0
Position2: "Single Positioning lookup 257 subtable" dx=58 dy=0 dh=58 dv=0
Position2: "Single Positioning lookup 256 subtable" dx=58 dy=0 dh=58 dv=0
Position2: "Single Positioning lookup 252 subtable" dx=155 dy=0 dh=155 dv=0
Position2: "Single Positioning lookup 250 subtable" dx=155 dy=0 dh=155 dv=0
Position2: "Single Positioning lookup 249 subtable" dx=155 dy=0 dh=155 dv=0
Position2: "Single Positioning lookup 246 subtable" dx=155 dy=0 dh=155 dv=0
Position2: "Single Positioning lookup 245 subtable" dx=155 dy=0 dh=155 dv=0
Position2: "Single Positioning lookup 244 subtable" dx=155 dy=0 dh=155 dv=0
Position2: "Single Positioning lookup 242 subtable" dx=155 dy=0 dh=155 dv=0
Position2: "Single Positioning lookup 241 subtable" dx=155 dy=0 dh=155 dv=0
Position2: "Single Positioning lookup 240 subtable" dx=155 dy=0 dh=155 dv=0
Position2: "Single Positioning lookup 236 subtable" dx=155 dy=0 dh=155 dv=0
Position2: "Single Positioning lookup 235 subtable" dx=155 dy=0 dh=155 dv=0
Position2: "Single Positioning lookup 234 subtable" dx=155 dy=0 dh=155 dv=0
Position2: "Single Positioning lookup 232 subtable" dx=155 dy=0 dh=155 dv=0
Position2: "Single Positioning lookup 231 subtable" dx=155 dy=0 dh=155 dv=0
Position2: "Single Positioning lookup 230 subtable" dx=155 dy=0 dh=155 dv=0
Position2: "Single Positioning lookup 229 subtable" dx=155 dy=0 dh=155 dv=0
Position2: "Single Positioning lookup 228 subtable" dx=155 dy=0 dh=155 dv=0
Position2: "Single Positioning lookup 226 subtable" dx=155 dy=0 dh=155 dv=0
Position2: "Single Positioning lookup 225 subtable" dx=155 dy=0 dh=155 dv=0
Position2: "Single Positioning lookup 224 subtable" dx=155 dy=0 dh=155 dv=0
Position2: "Single Positioning lookup 223 subtable" dx=155 dy=0 dh=155 dv=0
Position2: "Single Positioning lookup 222 subtable" dx=155 dy=0 dh=155 dv=0
Position2: "Single Positioning lookup 221 subtable" dx=155 dy=0 dh=155 dv=0
Position2: "Single Positioning lookup 220 subtable" dx=155 dy=0 dh=155 dv=0
Position2: "Single Positioning lookup 219 subtable" dx=155 dy=0 dh=155 dv=0
Position2: "Single Positioning lookup 217 subtable" dx=205 dy=0 dh=205 dv=0
Position2: "Single Positioning lookup 216 subtable" dx=205 dy=0 dh=205 dv=0
Position2: "Single Positioning lookup 215 subtable" dx=205 dy=0 dh=205 dv=0
Position2: "Single Positioning lookup 214 subtable" dx=205 dy=0 dh=205 dv=0
Position2: "Single Positioning lookup 211 subtable" dx=205 dy=0 dh=205 dv=0
Position2: "Single Positioning lookup 210 subtable" dx=205 dy=0 dh=205 dv=0
Position2: "Single Positioning lookup 209 subtable" dx=205 dy=0 dh=205 dv=0
Position2: "Single Positioning lookup 208 subtable" dx=205 dy=0 dh=205 dv=0
Position2: "Single Positioning lookup 206 subtable" dx=205 dy=0 dh=205 dv=0
Position2: "Single Positioning lookup 205 subtable" dx=205 dy=0 dh=205 dv=0
Position2: "Single Positioning lookup 204 subtable" dx=205 dy=0 dh=205 dv=0
Position2: "Single Positioning lookup 203 subtable" dx=205 dy=0 dh=205 dv=0
Position2: "Single Positioning lookup 202 subtable" dx=205 dy=0 dh=205 dv=0
Position2: "Single Positioning lookup 201 subtable" dx=205 dy=0 dh=205 dv=0
Position2: "Single Positioning lookup 200 subtable" dx=205 dy=0 dh=205 dv=0
Position2: "Single Positioning lookup 199 subtable" dx=205 dy=0 dh=205 dv=0
Position2: "Single Positioning lookup 198 subtable" dx=205 dy=0 dh=205 dv=0
Position2: "Single Positioning lookup 196 subtable" dx=205 dy=0 dh=205 dv=0
Position2: "Single Positioning lookup 195 subtable" dx=205 dy=0 dh=205 dv=0
Position2: "Single Positioning lookup 194 subtable" dx=205 dy=0 dh=205 dv=0
Position2: "Single Positioning lookup 193 subtable" dx=205 dy=0 dh=205 dv=0
Position2: "Single Positioning lookup 192 subtable" dx=205 dy=0 dh=205 dv=0
Position2: "Single Positioning lookup 190 subtable" dx=205 dy=0 dh=205 dv=0
Position2: "Single Positioning lookup 189 subtable" dx=205 dy=0 dh=205 dv=0
Position2: "Single Positioning lookup 188 subtable" dx=205 dy=0 dh=205 dv=0
Position2: "Single Positioning lookup 187 subtable" dx=205 dy=0 dh=205 dv=0
Position2: "Single Positioning lookup 186 subtable" dx=205 dy=0 dh=205 dv=0
Position2: "Single Positioning lookup 185 subtable" dx=205 dy=0 dh=205 dv=0
Position2: "Single Positioning lookup 184 subtable" dx=205 dy=0 dh=205 dv=0
Position2: "Single Positioning lookup 183 subtable" dx=205 dy=0 dh=205 dv=0
Position2: "Single Positioning lookup 182 subtable" dx=205 dy=0 dh=205 dv=0
Position2: "Single Positioning lookup 181 subtable" dx=198 dy=0 dh=198 dv=0
Position2: "Single Positioning lookup 180 subtable" dx=198 dy=0 dh=198 dv=0
Position2: "Single Positioning lookup 179 subtable" dx=198 dy=0 dh=198 dv=0
Position2: "Single Positioning lookup 178 subtable" dx=198 dy=0 dh=198 dv=0
Position2: "Single Positioning lookup 175 subtable" dx=198 dy=0 dh=198 dv=0
Position2: "Single Positioning lookup 174 subtable" dx=198 dy=0 dh=198 dv=0
Position2: "Single Positioning lookup 173 subtable" dx=198 dy=0 dh=198 dv=0
Position2: "Single Positioning lookup 172 subtable" dx=198 dy=0 dh=198 dv=0
Position2: "Single Positioning lookup 170 subtable" dx=198 dy=0 dh=198 dv=0
Position2: "Single Positioning lookup 169 subtable" dx=198 dy=0 dh=198 dv=0
Position2: "Single Positioning lookup 168 subtable" dx=198 dy=0 dh=198 dv=0
Position2: "Single Positioning lookup 166 subtable" dx=198 dy=0 dh=198 dv=0
Position2: "Single Positioning lookup 165 subtable" dx=198 dy=0 dh=198 dv=0
Position2: "Single Positioning lookup 164 subtable" dx=198 dy=0 dh=198 dv=0
Position2: "Single Positioning lookup 163 subtable" dx=198 dy=0 dh=198 dv=0
Position2: "Single Positioning lookup 162 subtable" dx=198 dy=0 dh=198 dv=0
Position2: "Single Positioning lookup 160 subtable" dx=198 dy=0 dh=198 dv=0
Position2: "Single Positioning lookup 159 subtable" dx=198 dy=0 dh=198 dv=0
Position2: "Single Positioning lookup 158 subtable" dx=198 dy=0 dh=198 dv=0
Position2: "Single Positioning lookup 157 subtable" dx=198 dy=0 dh=198 dv=0
Position2: "Single Positioning lookup 156 subtable" dx=198 dy=0 dh=198 dv=0
Position2: "Single Positioning lookup 154 subtable" dx=198 dy=0 dh=198 dv=0
Position2: "Single Positioning lookup 153 subtable" dx=198 dy=0 dh=198 dv=0
Position2: "Single Positioning lookup 152 subtable" dx=198 dy=0 dh=198 dv=0
Position2: "Single Positioning lookup 151 subtable" dx=198 dy=0 dh=198 dv=0
Position2: "Single Positioning lookup 150 subtable" dx=198 dy=0 dh=198 dv=0
Position2: "Single Positioning lookup 149 subtable" dx=198 dy=0 dh=198 dv=0
Position2: "Single Positioning lookup 148 subtable" dx=198 dy=0 dh=198 dv=0
Position2: "Single Positioning lookup 147 subtable" dx=198 dy=0 dh=198 dv=0
Position2: "Single Positioning lookup 146 subtable" dx=198 dy=0 dh=198 dv=0
Position2: "Single Positioning lookup 39 subtable" dx=73 dy=0 dh=73 dv=0
Position2: "Single Positioning lookup 38 subtable" dx=83 dy=0 dh=83 dv=0
Position2: "Single Positioning lookup 37 subtable" dx=51 dy=0 dh=51 dv=0
Position2: "Single Positioning lookup 34 subtable" dx=0 dy=0 dh=305 dv=0
Position2: "Single Positioning lookup 33 subtable" dx=197 dy=0 dh=197 dv=0
Position2: "Single Positioning lookup 31 subtable" dx=0 dy=0 dh=151 dv=0
Position2: "Single Positioning lookup 30 subtable" dx=248 dy=0 dh=248 dv=0
Position2: "Single Positioning lookup 25 subtable" dx=172 dy=0 dh=172 dv=0
Position2: "Single Positioning lookup 16 subtable" dx=34 dy=0 dh=34 dv=0
Position2: "Single Positioning lookup 12 subtable" dx=0 dy=0 dh=81 dv=0
Position2: "Single Positioning lookup 11 subtable" dx=156 dy=0 dh=156 dv=0
Position2: "Single Positioning lookup 10 subtable" dx=8 dy=0 dh=8 dv=0
Position2: "Single Positioning lookup 7 subtable" dx=162 dy=0 dh=162 dv=0
Position2: "Single Positioning lookup 6 subtable" dx=248 dy=0 dh=248 dv=0
Position2: "Single Positioning lookup 5 subtable" dx=148 dy=0 dh=148 dv=0
EndChar

StartChar: uni1B16
Encoding: 6934 6934 27
Width: 994
GlyphClass: 2
Flags: W
AnchorPoint: "Anchor-2" 487 0 basechar 0
AnchorPoint: "Anchor-0" 539 490 basechar 0
LayerCount: 2
Fore
SplineSet
415 -4 m 2,0,-1
 404 -4 l 2,1,2
 299 -4 299 -4 299 85 c 0,3,4
 299 161 299 161 349 335 c 1,5,-1
 351 347 l 1,6,7
 351 381 351 381 278 387 c 1,8,-1
 274 387 l 2,9,10
 165 387 165 387 149 153 c 1,11,12
 149 76 149 76 164 -3 c 1,13,14
 40 5 40 5 40 152 c 0,15,16
 40 229 40 229 69 284.5 c 128,-1,17
 98 340 98 340 133 350 c 1,18,19
 75 254 75 254 75 165 c 0,20,21
 75 58 75 58 129 43 c 1,22,23
 115 65 115 65 115 162 c 1,24,25
 135 421 135 421 284 421 c 2,26,-1
 292 421 l 1,27,28
 386 414 386 414 386 349 c 1,29,-1
 384 331 l 1,30,31
 340 149 340 149 340 89 c 256,32,33
 340 29 340 29 416 29 c 0,34,35
 562 29 562 29 588 345 c 1,36,37
 609 344 609 344 614 335 c 0,38,39
 658 33 658 33 759 33 c 2,40,-1
 762 33 l 1,41,42
 807 38 807 38 829.5 89 c 128,-1,43
 852 140 852 140 852 206 c 0,44,45
 852 305 852 305 800 404 c 1,46,47
 822 421 822 421 857 421 c 0,48,49
 950 417 950 417 954 285 c 0,50,51
 954 219 954 219 932.5 110 c 128,-1,52
 911 1 911 1 886 1 c 1,53,54
 915 173 915 173 915 270 c 0,55,56
 912 385 912 385 846 385 c 2,57,-1
 841 385 l 1,58,59
 883 309 883 309 883 212 c 0,60,61
 880 11 880 11 760 -1 c 1,62,63
 643 -1 643 -1 601 233 c 1,64,65
 563 -4 563 -4 415 -4 c 2,0,-1
EndSplineSet
MultipleSubs2: "Multiple Substitution lookup 314 subtable" uni1B16 _reorder
MultipleSubs2: "Multiple Substitution lookup 258 subtable" uni1B16 _reorder
MultipleSubs2: "Multiple Substitution lookup 202 subtable" uni1B16 _reorder
MultipleSubs2: "Multiple Substitution lookup 141 subtable" uni1B16 _reorder
MultipleSubs2: "Multiple Substitution lookup 85 subtable" uni1B16 _reorder
MultipleSubs2: "Multiple Substitution lookup 29 subtable" uni1B16 _reorder
Position2: "Single Positioning lookup 329 subtable" dx=5 dy=0 dh=5 dv=0
Position2: "Single Positioning lookup 328 subtable" dx=5 dy=0 dh=5 dv=0
Position2: "Single Positioning lookup 314 subtable" dx=5 dy=0 dh=5 dv=0
Position2: "Single Positioning lookup 306 subtable" dx=23 dy=0 dh=23 dv=0
Position2: "Single Positioning lookup 305 subtable" dx=23 dy=0 dh=23 dv=0
Position2: "Single Positioning lookup 290 subtable" dx=23 dy=0 dh=23 dv=0
Position2: "Single Positioning lookup 282 subtable" dx=58 dy=0 dh=58 dv=0
Position2: "Single Positioning lookup 280 subtable" dx=58 dy=0 dh=58 dv=0
Position2: "Single Positioning lookup 262 subtable" dx=58 dy=0 dh=58 dv=0
Position2: "Single Positioning lookup 252 subtable" dx=155 dy=0 dh=155 dv=0
Position2: "Single Positioning lookup 250 subtable" dx=155 dy=0 dh=155 dv=0
Position2: "Single Positioning lookup 228 subtable" dx=155 dy=0 dh=155 dv=0
Position2: "Single Positioning lookup 222 subtable" dx=155 dy=0 dh=155 dv=0
Position2: "Single Positioning lookup 217 subtable" dx=205 dy=0 dh=205 dv=0
Position2: "Single Positioning lookup 215 subtable" dx=205 dy=0 dh=205 dv=0
Position2: "Single Positioning lookup 208 subtable" dx=205 dy=0 dh=205 dv=0
Position2: "Single Positioning lookup 192 subtable" dx=205 dy=0 dh=205 dv=0
Position2: "Single Positioning lookup 187 subtable" dx=205 dy=0 dh=205 dv=0
Position2: "Single Positioning lookup 186 subtable" dx=205 dy=0 dh=205 dv=0
Position2: "Single Positioning lookup 185 subtable" dx=205 dy=0 dh=205 dv=0
Position2: "Single Positioning lookup 181 subtable" dx=198 dy=0 dh=198 dv=0
Position2: "Single Positioning lookup 179 subtable" dx=198 dy=0 dh=198 dv=0
Position2: "Single Positioning lookup 172 subtable" dx=198 dy=0 dh=198 dv=0
Position2: "Single Positioning lookup 156 subtable" dx=198 dy=0 dh=198 dv=0
Position2: "Single Positioning lookup 151 subtable" dx=198 dy=0 dh=198 dv=0
Position2: "Single Positioning lookup 150 subtable" dx=198 dy=0 dh=198 dv=0
Position2: "Single Positioning lookup 149 subtable" dx=198 dy=0 dh=198 dv=0
Position2: "Single Positioning lookup 33 subtable" dx=163 dy=0 dh=163 dv=0
Position2: "Single Positioning lookup 30 subtable" dx=214 dy=0 dh=214 dv=0
Position2: "Single Positioning lookup 11 subtable" dx=122 dy=0 dh=122 dv=0
EndChar

StartChar: uni1B17
Encoding: 6935 6935 28
Width: 622
GlyphClass: 2
Flags: W
AnchorPoint: "Anchor-2" 449 0 basechar 0
AnchorPoint: "Anchor-0" 453 490 basechar 0
LayerCount: 2
Fore
SplineSet
178 0 m 1,0,1
 69 8 69 8 69 120 c 0,2,3
 72 194 72 194 125 308 c 1,4,5
 80 280 80 280 53 187 c 1,6,7
 40 202 40 202 40 219 c 0,8,9
 52 295 52 295 126 340 c 1,10,11
 157 340 157 340 157 308 c 1,12,13
 98 183 98 183 98 115 c 0,14,15
 98 27 98 27 195 27 c 1,16,-1
 212 28 l 1,17,18
 161 89 161 89 161 196 c 2,19,-1
 161 212 l 1,20,21
 165 330 165 330 240 330 c 0,22,23
 293 329 293 329 323 288 c 1,24,25
 329 424 329 424 459 424 c 1,26,27
 580 415 580 415 582 296 c 0,28,29
 582 246 582 246 560.5 123.5 c 128,-1,30
 539 1 539 1 514 1 c 1,31,32
 539 192 539 192 543 287 c 1,33,34
 541 390 541 390 443 390 c 0,35,36
 391 390 391 390 369 344.5 c 128,-1,37
 347 299 347 299 347 203 c 2,38,-1
 348 152 l 2,39,40
 348 130 348 130 329 128 c 1,41,42
 319 294 319 294 241 294 c 0,43,44
 190 293 190 293 190 205 c 2,45,-1
 190 186 l 1,46,47
 195 83 195 83 255 20 c 1,48,49
 236 0 236 0 178 0 c 1,0,1
EndSplineSet
MultipleSubs2: "Multiple Substitution lookup 315 subtable" uni1B17 _reorder
MultipleSubs2: "Multiple Substitution lookup 259 subtable" uni1B17 _reorder
MultipleSubs2: "Multiple Substitution lookup 203 subtable" uni1B17 _reorder
MultipleSubs2: "Multiple Substitution lookup 142 subtable" uni1B17 _reorder
MultipleSubs2: "Multiple Substitution lookup 86 subtable" uni1B17 _reorder
MultipleSubs2: "Multiple Substitution lookup 30 subtable" uni1B17 _reorder
Position2: "Single Positioning lookup 329 subtable" dx=5 dy=0 dh=5 dv=0
Position2: "Single Positioning lookup 328 subtable" dx=5 dy=0 dh=5 dv=0
Position2: "Single Positioning lookup 325 subtable" dx=5 dy=0 dh=5 dv=0
Position2: "Single Positioning lookup 324 subtable" dx=5 dy=0 dh=5 dv=0
Position2: "Single Positioning lookup 320 subtable" dx=5 dy=0 dh=5 dv=0
Position2: "Single Positioning lookup 318 subtable" dx=5 dy=0 dh=5 dv=0
Position2: "Single Positioning lookup 314 subtable" dx=5 dy=0 dh=5 dv=0
Position2: "Single Positioning lookup 313 subtable" dx=5 dy=0 dh=5 dv=0
Position2: "Single Positioning lookup 312 subtable" dx=5 dy=0 dh=5 dv=0
Position2: "Single Positioning lookup 310 subtable" dx=5 dy=0 dh=5 dv=0
Position2: "Single Positioning lookup 309 subtable" dx=5 dy=0 dh=5 dv=0
Position2: "Single Positioning lookup 308 subtable" dx=5 dy=0 dh=5 dv=0
Position2: "Single Positioning lookup 306 subtable" dx=23 dy=0 dh=23 dv=0
Position2: "Single Positioning lookup 305 subtable" dx=23 dy=0 dh=23 dv=0
Position2: "Single Positioning lookup 303 subtable" dx=23 dy=0 dh=23 dv=0
Position2: "Single Positioning lookup 302 subtable" dx=23 dy=0 dh=23 dv=0
Position2: "Single Positioning lookup 301 subtable" dx=23 dy=0 dh=23 dv=0
Position2: "Single Positioning lookup 299 subtable" dx=23 dy=0 dh=23 dv=0
Position2: "Single Positioning lookup 296 subtable" dx=23 dy=0 dh=23 dv=0
Position2: "Single Positioning lookup 294 subtable" dx=23 dy=0 dh=23 dv=0
Position2: "Single Positioning lookup 293 subtable" dx=23 dy=0 dh=23 dv=0
Position2: "Single Positioning lookup 292 subtable" dx=23 dy=0 dh=23 dv=0
Position2: "Single Positioning lookup 290 subtable" dx=23 dy=0 dh=23 dv=0
Position2: "Single Positioning lookup 289 subtable" dx=23 dy=0 dh=23 dv=0
Position2: "Single Positioning lookup 288 subtable" dx=23 dy=0 dh=23 dv=0
Position2: "Single Positioning lookup 286 subtable" dx=23 dy=0 dh=23 dv=0
Position2: "Single Positioning lookup 285 subtable" dx=23 dy=0 dh=23 dv=0
Position2: "Single Positioning lookup 284 subtable" dx=23 dy=0 dh=23 dv=0
Position2: "Single Positioning lookup 282 subtable" dx=58 dy=0 dh=58 dv=0
Position2: "Single Positioning lookup 280 subtable" dx=58 dy=0 dh=58 dv=0
Position2: "Single Positioning lookup 279 subtable" dx=58 dy=0 dh=58 dv=0
Position2: "Single Positioning lookup 277 subtable" dx=58 dy=0 dh=58 dv=0
Position2: "Single Positioning lookup 276 subtable" dx=58 dy=0 dh=58 dv=0
Position2: "Single Positioning lookup 275 subtable" dx=58 dy=0 dh=58 dv=0
Position2: "Single Positioning lookup 274 subtable" dx=58 dy=0 dh=58 dv=0
Position2: "Single Positioning lookup 273 subtable" dx=58 dy=0 dh=58 dv=0
Position2: "Single Positioning lookup 272 subtable" dx=58 dy=0 dh=58 dv=0
Position2: "Single Positioning lookup 268 subtable" dx=58 dy=0 dh=58 dv=0
Position2: "Single Positioning lookup 266 subtable" dx=58 dy=0 dh=58 dv=0
Position2: "Single Positioning lookup 265 subtable" dx=58 dy=0 dh=58 dv=0
Position2: "Single Positioning lookup 264 subtable" dx=58 dy=0 dh=58 dv=0
Position2: "Single Positioning lookup 263 subtable" dx=58 dy=0 dh=58 dv=0
Position2: "Single Positioning lookup 262 subtable" dx=58 dy=0 dh=58 dv=0
Position2: "Single Positioning lookup 261 subtable" dx=58 dy=0 dh=58 dv=0
Position2: "Single Positioning lookup 260 subtable" dx=58 dy=0 dh=58 dv=0
Position2: "Single Positioning lookup 258 subtable" dx=58 dy=0 dh=58 dv=0
Position2: "Single Positioning lookup 257 subtable" dx=58 dy=0 dh=58 dv=0
Position2: "Single Positioning lookup 256 subtable" dx=58 dy=0 dh=58 dv=0
Position2: "Single Positioning lookup 252 subtable" dx=155 dy=0 dh=155 dv=0
Position2: "Single Positioning lookup 251 subtable" dx=155 dy=0 dh=155 dv=0
Position2: "Single Positioning lookup 250 subtable" dx=155 dy=0 dh=155 dv=0
Position2: "Single Positioning lookup 249 subtable" dx=155 dy=0 dh=155 dv=0
Position2: "Single Positioning lookup 247 subtable" dx=155 dy=0 dh=155 dv=0
Position2: "Single Positioning lookup 246 subtable" dx=155 dy=0 dh=155 dv=0
Position2: "Single Positioning lookup 245 subtable" dx=155 dy=0 dh=155 dv=0
Position2: "Single Positioning lookup 244 subtable" dx=155 dy=0 dh=155 dv=0
Position2: "Single Positioning lookup 242 subtable" dx=155 dy=0 dh=155 dv=0
Position2: "Single Positioning lookup 241 subtable" dx=155 dy=0 dh=155 dv=0
Position2: "Single Positioning lookup 240 subtable" dx=155 dy=0 dh=155 dv=0
Position2: "Single Positioning lookup 238 subtable" dx=155 dy=0 dh=155 dv=0
Position2: "Single Positioning lookup 237 subtable" dx=155 dy=0 dh=155 dv=0
Position2: "Single Positioning lookup 236 subtable" dx=155 dy=0 dh=155 dv=0
Position2: "Single Positioning lookup 235 subtable" dx=155 dy=0 dh=155 dv=0
Position2: "Single Positioning lookup 234 subtable" dx=155 dy=0 dh=155 dv=0
Position2: "Single Positioning lookup 232 subtable" dx=155 dy=0 dh=155 dv=0
Position2: "Single Positioning lookup 231 subtable" dx=155 dy=0 dh=155 dv=0
Position2: "Single Positioning lookup 230 subtable" dx=155 dy=0 dh=155 dv=0
Position2: "Single Positioning lookup 229 subtable" dx=155 dy=0 dh=155 dv=0
Position2: "Single Positioning lookup 228 subtable" dx=155 dy=0 dh=155 dv=0
Position2: "Single Positioning lookup 226 subtable" dx=155 dy=0 dh=155 dv=0
Position2: "Single Positioning lookup 225 subtable" dx=155 dy=0 dh=155 dv=0
Position2: "Single Positioning lookup 224 subtable" dx=155 dy=0 dh=155 dv=0
Position2: "Single Positioning lookup 223 subtable" dx=155 dy=0 dh=155 dv=0
Position2: "Single Positioning lookup 222 subtable" dx=155 dy=0 dh=155 dv=0
Position2: "Single Positioning lookup 221 subtable" dx=155 dy=0 dh=155 dv=0
Position2: "Single Positioning lookup 220 subtable" dx=155 dy=0 dh=155 dv=0
Position2: "Single Positioning lookup 219 subtable" dx=155 dy=0 dh=155 dv=0
Position2: "Single Positioning lookup 218 subtable" dx=155 dy=0 dh=155 dv=0
Position2: "Single Positioning lookup 217 subtable" dx=205 dy=0 dh=205 dv=0
Position2: "Single Positioning lookup 216 subtable" dx=205 dy=0 dh=205 dv=0
Position2: "Single Positioning lookup 215 subtable" dx=205 dy=0 dh=205 dv=0
Position2: "Single Positioning lookup 214 subtable" dx=205 dy=0 dh=205 dv=0
Position2: "Single Positioning lookup 211 subtable" dx=205 dy=0 dh=205 dv=0
Position2: "Single Positioning lookup 210 subtable" dx=205 dy=0 dh=205 dv=0
Position2: "Single Positioning lookup 209 subtable" dx=205 dy=0 dh=205 dv=0
Position2: "Single Positioning lookup 208 subtable" dx=205 dy=0 dh=205 dv=0
Position2: "Single Positioning lookup 207 subtable" dx=205 dy=0 dh=205 dv=0
Position2: "Single Positioning lookup 206 subtable" dx=205 dy=0 dh=205 dv=0
Position2: "Single Positioning lookup 205 subtable" dx=205 dy=0 dh=205 dv=0
Position2: "Single Positioning lookup 204 subtable" dx=205 dy=0 dh=205 dv=0
Position2: "Single Positioning lookup 203 subtable" dx=205 dy=0 dh=205 dv=0
Position2: "Single Positioning lookup 202 subtable" dx=205 dy=0 dh=205 dv=0
Position2: "Single Positioning lookup 201 subtable" dx=205 dy=0 dh=205 dv=0
Position2: "Single Positioning lookup 200 subtable" dx=205 dy=0 dh=205 dv=0
Position2: "Single Positioning lookup 199 subtable" dx=205 dy=0 dh=205 dv=0
Position2: "Single Positioning lookup 198 subtable" dx=205 dy=0 dh=205 dv=0
Position2: "Single Positioning lookup 197 subtable" dx=205 dy=0 dh=205 dv=0
Position2: "Single Positioning lookup 196 subtable" dx=205 dy=0 dh=205 dv=0
Position2: "Single Positioning lookup 195 subtable" dx=205 dy=0 dh=205 dv=0
Position2: "Single Positioning lookup 194 subtable" dx=205 dy=0 dh=205 dv=0
Position2: "Single Positioning lookup 193 subtable" dx=205 dy=0 dh=205 dv=0
Position2: "Single Positioning lookup 192 subtable" dx=205 dy=0 dh=205 dv=0
Position2: "Single Positioning lookup 191 subtable" dx=205 dy=0 dh=205 dv=0
Position2: "Single Positioning lookup 190 subtable" dx=205 dy=0 dh=205 dv=0
Position2: "Single Positioning lookup 189 subtable" dx=205 dy=0 dh=205 dv=0
Position2: "Single Positioning lookup 188 subtable" dx=205 dy=0 dh=205 dv=0
Position2: "Single Positioning lookup 187 subtable" dx=205 dy=0 dh=205 dv=0
Position2: "Single Positioning lookup 186 subtable" dx=205 dy=0 dh=205 dv=0
Position2: "Single Positioning lookup 185 subtable" dx=205 dy=0 dh=205 dv=0
Position2: "Single Positioning lookup 184 subtable" dx=205 dy=0 dh=205 dv=0
Position2: "Single Positioning lookup 183 subtable" dx=205 dy=0 dh=205 dv=0
Position2: "Single Positioning lookup 182 subtable" dx=205 dy=0 dh=205 dv=0
Position2: "Single Positioning lookup 181 subtable" dx=198 dy=0 dh=198 dv=0
Position2: "Single Positioning lookup 180 subtable" dx=198 dy=0 dh=198 dv=0
Position2: "Single Positioning lookup 179 subtable" dx=198 dy=0 dh=198 dv=0
Position2: "Single Positioning lookup 178 subtable" dx=198 dy=0 dh=198 dv=0
Position2: "Single Positioning lookup 175 subtable" dx=198 dy=0 dh=198 dv=0
Position2: "Single Positioning lookup 174 subtable" dx=198 dy=0 dh=198 dv=0
Position2: "Single Positioning lookup 173 subtable" dx=198 dy=0 dh=198 dv=0
Position2: "Single Positioning lookup 172 subtable" dx=198 dy=0 dh=198 dv=0
Position2: "Single Positioning lookup 170 subtable" dx=198 dy=0 dh=198 dv=0
Position2: "Single Positioning lookup 169 subtable" dx=198 dy=0 dh=198 dv=0
Position2: "Single Positioning lookup 168 subtable" dx=198 dy=0 dh=198 dv=0
Position2: "Single Positioning lookup 167 subtable" dx=198 dy=0 dh=198 dv=0
Position2: "Single Positioning lookup 166 subtable" dx=198 dy=0 dh=198 dv=0
Position2: "Single Positioning lookup 165 subtable" dx=198 dy=0 dh=198 dv=0
Position2: "Single Positioning lookup 164 subtable" dx=198 dy=0 dh=198 dv=0
Position2: "Single Positioning lookup 163 subtable" dx=198 dy=0 dh=198 dv=0
Position2: "Single Positioning lookup 162 subtable" dx=198 dy=0 dh=198 dv=0
Position2: "Single Positioning lookup 161 subtable" dx=198 dy=0 dh=198 dv=0
Position2: "Single Positioning lookup 160 subtable" dx=198 dy=0 dh=198 dv=0
Position2: "Single Positioning lookup 159 subtable" dx=198 dy=0 dh=198 dv=0
Position2: "Single Positioning lookup 158 subtable" dx=198 dy=0 dh=198 dv=0
Position2: "Single Positioning lookup 157 subtable" dx=198 dy=0 dh=198 dv=0
Position2: "Single Positioning lookup 156 subtable" dx=198 dy=0 dh=198 dv=0
Position2: "Single Positioning lookup 155 subtable" dx=198 dy=0 dh=198 dv=0
Position2: "Single Positioning lookup 154 subtable" dx=198 dy=0 dh=198 dv=0
Position2: "Single Positioning lookup 153 subtable" dx=198 dy=0 dh=198 dv=0
Position2: "Single Positioning lookup 152 subtable" dx=198 dy=0 dh=198 dv=0
Position2: "Single Positioning lookup 151 subtable" dx=198 dy=0 dh=198 dv=0
Position2: "Single Positioning lookup 150 subtable" dx=198 dy=0 dh=198 dv=0
Position2: "Single Positioning lookup 149 subtable" dx=198 dy=0 dh=198 dv=0
Position2: "Single Positioning lookup 148 subtable" dx=198 dy=0 dh=198 dv=0
Position2: "Single Positioning lookup 147 subtable" dx=198 dy=0 dh=198 dv=0
Position2: "Single Positioning lookup 146 subtable" dx=198 dy=0 dh=198 dv=0
Position2: "Single Positioning lookup 40 subtable" dx=21 dy=0 dh=21 dv=0
Position2: "Single Positioning lookup 39 subtable" dx=104 dy=0 dh=104 dv=0
Position2: "Single Positioning lookup 38 subtable" dx=114 dy=0 dh=114 dv=0
Position2: "Single Positioning lookup 37 subtable" dx=82 dy=0 dh=82 dv=0
Position2: "Single Positioning lookup 34 subtable" dx=0 dy=0 dh=332 dv=0
Position2: "Single Positioning lookup 33 subtable" dx=201 dy=0 dh=201 dv=0
Position2: "Single Positioning lookup 31 subtable" dx=0 dy=0 dh=178 dv=0
Position2: "Single Positioning lookup 30 subtable" dx=252 dy=0 dh=252 dv=0
Position2: "Single Positioning lookup 26 subtable" dx=21 dy=0 dh=21 dv=0
Position2: "Single Positioning lookup 25 subtable" dx=203 dy=0 dh=203 dv=0
Position2: "Single Positioning lookup 18 subtable" dx=22 dy=0 dh=22 dv=0
Position2: "Single Positioning lookup 16 subtable" dx=65 dy=0 dh=65 dv=0
Position2: "Single Positioning lookup 12 subtable" dx=0 dy=0 dh=108 dv=0
Position2: "Single Positioning lookup 11 subtable" dx=160 dy=0 dh=160 dv=0
Position2: "Single Positioning lookup 10 subtable" dx=39 dy=0 dh=39 dv=0
Position2: "Single Positioning lookup 9 subtable" dx=1 dy=0 dh=1 dv=0
Position2: "Single Positioning lookup 7 subtable" dx=193 dy=0 dh=193 dv=0
Position2: "Single Positioning lookup 6 subtable" dx=279 dy=0 dh=279 dv=0
Position2: "Single Positioning lookup 5 subtable" dx=179 dy=0 dh=179 dv=0
EndChar

StartChar: uni1B18
Encoding: 6936 6936 29
Width: 681
GlyphClass: 2
Flags: W
AnchorPoint: "Anchor-2" 377 0 basechar 0
AnchorPoint: "Anchor-0" 347 490 basechar 0
LayerCount: 2
Fore
SplineSet
114 -1 m 1,0,-1
 106 -1 l 1,1,-1
 106 60 l 2,2,3
 106 100 106 100 223 196 c 1,4,5
 256 277 256 277 256 327 c 2,6,-1
 255 342 l 2,7,8
 249 394 249 394 199 394 c 0,9,10
 93 394 93 394 59 203 c 1,11,12
 40 214 40 214 40 244 c 2,13,-1
 41 257 l 1,14,15
 75 421 75 421 196 421 c 0,16,17
 289 421 289 421 289 334 c 0,18,19
 289 293 289 293 254 192 c 1,20,21
 298 182 298 182 366 73 c 1,22,23
 397 31 397 31 433 31 c 256,24,25
 469 31 469 31 492 74 c 0,26,27
 514 119 514 119 514 203 c 0,28,29
 513 287 513 287 443 337 c 1,30,31
 528 337 528 337 544 212 c 1,32,33
 544 6 544 6 432 1 c 1,34,-1
 427 1 l 2,35,36
 382 1 382 1 349 48 c 0,37,38
 313 98 313 98 291 125.5 c 128,-1,39
 269 153 269 153 246 167 c 1,40,41
 180 57 180 57 114 -1 c 1,0,-1
506 390 m 0,42,43
 409 390 409 390 382 228 c 1,44,45
 366 228 366 228 366 267 c 1,46,47
 395 424 395 424 518 424 c 1,48,49
 639 420 639 420 641 296 c 0,50,51
 641 246 641 246 619.5 123.5 c 128,-1,52
 598 1 598 1 573 1 c 1,53,54
 598 192 598 192 602 287 c 1,55,56
 600 388 600 388 506 390 c 0,42,43
EndSplineSet
MultipleSubs2: "Multiple Substitution lookup 316 subtable" uni1B18 _reorder
MultipleSubs2: "Multiple Substitution lookup 260 subtable" uni1B18 _reorder
MultipleSubs2: "Multiple Substitution lookup 204 subtable" uni1B18 _reorder
MultipleSubs2: "Multiple Substitution lookup 143 subtable" uni1B18 _reorder
MultipleSubs2: "Multiple Substitution lookup 87 subtable" uni1B18 _reorder
MultipleSubs2: "Multiple Substitution lookup 31 subtable" uni1B18 _reorder
Position2: "Single Positioning lookup 329 subtable" dx=5 dy=0 dh=5 dv=0
Position2: "Single Positioning lookup 328 subtable" dx=5 dy=0 dh=5 dv=0
Position2: "Single Positioning lookup 324 subtable" dx=5 dy=0 dh=5 dv=0
Position2: "Single Positioning lookup 318 subtable" dx=5 dy=0 dh=5 dv=0
Position2: "Single Positioning lookup 314 subtable" dx=5 dy=0 dh=5 dv=0
Position2: "Single Positioning lookup 310 subtable" dx=5 dy=0 dh=5 dv=0
Position2: "Single Positioning lookup 309 subtable" dx=5 dy=0 dh=5 dv=0
Position2: "Single Positioning lookup 308 subtable" dx=5 dy=0 dh=5 dv=0
Position2: "Single Positioning lookup 306 subtable" dx=23 dy=0 dh=23 dv=0
Position2: "Single Positioning lookup 305 subtable" dx=23 dy=0 dh=23 dv=0
Position2: "Single Positioning lookup 301 subtable" dx=23 dy=0 dh=23 dv=0
Position2: "Single Positioning lookup 294 subtable" dx=23 dy=0 dh=23 dv=0
Position2: "Single Positioning lookup 290 subtable" dx=23 dy=0 dh=23 dv=0
Position2: "Single Positioning lookup 289 subtable" dx=23 dy=0 dh=23 dv=0
Position2: "Single Positioning lookup 286 subtable" dx=23 dy=0 dh=23 dv=0
Position2: "Single Positioning lookup 285 subtable" dx=23 dy=0 dh=23 dv=0
Position2: "Single Positioning lookup 284 subtable" dx=23 dy=0 dh=23 dv=0
Position2: "Single Positioning lookup 282 subtable" dx=58 dy=0 dh=58 dv=0
Position2: "Single Positioning lookup 280 subtable" dx=58 dy=0 dh=58 dv=0
Position2: "Single Positioning lookup 276 subtable" dx=58 dy=0 dh=58 dv=0
Position2: "Single Positioning lookup 275 subtable" dx=58 dy=0 dh=58 dv=0
Position2: "Single Positioning lookup 268 subtable" dx=58 dy=0 dh=58 dv=0
Position2: "Single Positioning lookup 266 subtable" dx=58 dy=0 dh=58 dv=0
Position2: "Single Positioning lookup 262 subtable" dx=58 dy=0 dh=58 dv=0
Position2: "Single Positioning lookup 261 subtable" dx=58 dy=0 dh=58 dv=0
Position2: "Single Positioning lookup 258 subtable" dx=58 dy=0 dh=58 dv=0
Position2: "Single Positioning lookup 257 subtable" dx=58 dy=0 dh=58 dv=0
Position2: "Single Positioning lookup 256 subtable" dx=58 dy=0 dh=58 dv=0
Position2: "Single Positioning lookup 252 subtable" dx=155 dy=0 dh=155 dv=0
Position2: "Single Positioning lookup 250 subtable" dx=155 dy=0 dh=155 dv=0
Position2: "Single Positioning lookup 249 subtable" dx=155 dy=0 dh=155 dv=0
Position2: "Single Positioning lookup 246 subtable" dx=155 dy=0 dh=155 dv=0
Position2: "Single Positioning lookup 245 subtable" dx=155 dy=0 dh=155 dv=0
Position2: "Single Positioning lookup 244 subtable" dx=155 dy=0 dh=155 dv=0
Position2: "Single Positioning lookup 242 subtable" dx=155 dy=0 dh=155 dv=0
Position2: "Single Positioning lookup 241 subtable" dx=155 dy=0 dh=155 dv=0
Position2: "Single Positioning lookup 240 subtable" dx=155 dy=0 dh=155 dv=0
Position2: "Single Positioning lookup 235 subtable" dx=155 dy=0 dh=155 dv=0
Position2: "Single Positioning lookup 234 subtable" dx=155 dy=0 dh=155 dv=0
Position2: "Single Positioning lookup 232 subtable" dx=155 dy=0 dh=155 dv=0
Position2: "Single Positioning lookup 231 subtable" dx=155 dy=0 dh=155 dv=0
Position2: "Single Positioning lookup 230 subtable" dx=155 dy=0 dh=155 dv=0
Position2: "Single Positioning lookup 229 subtable" dx=155 dy=0 dh=155 dv=0
Position2: "Single Positioning lookup 228 subtable" dx=155 dy=0 dh=155 dv=0
Position2: "Single Positioning lookup 226 subtable" dx=155 dy=0 dh=155 dv=0
Position2: "Single Positioning lookup 225 subtable" dx=155 dy=0 dh=155 dv=0
Position2: "Single Positioning lookup 224 subtable" dx=155 dy=0 dh=155 dv=0
Position2: "Single Positioning lookup 223 subtable" dx=155 dy=0 dh=155 dv=0
Position2: "Single Positioning lookup 222 subtable" dx=155 dy=0 dh=155 dv=0
Position2: "Single Positioning lookup 221 subtable" dx=155 dy=0 dh=155 dv=0
Position2: "Single Positioning lookup 219 subtable" dx=155 dy=0 dh=155 dv=0
Position2: "Single Positioning lookup 217 subtable" dx=205 dy=0 dh=205 dv=0
Position2: "Single Positioning lookup 216 subtable" dx=205 dy=0 dh=205 dv=0
Position2: "Single Positioning lookup 215 subtable" dx=205 dy=0 dh=205 dv=0
Position2: "Single Positioning lookup 214 subtable" dx=205 dy=0 dh=205 dv=0
Position2: "Single Positioning lookup 210 subtable" dx=205 dy=0 dh=205 dv=0
Position2: "Single Positioning lookup 209 subtable" dx=205 dy=0 dh=205 dv=0
Position2: "Single Positioning lookup 208 subtable" dx=205 dy=0 dh=205 dv=0
Position2: "Single Positioning lookup 206 subtable" dx=205 dy=0 dh=205 dv=0
Position2: "Single Positioning lookup 205 subtable" dx=205 dy=0 dh=205 dv=0
Position2: "Single Positioning lookup 204 subtable" dx=205 dy=0 dh=205 dv=0
Position2: "Single Positioning lookup 202 subtable" dx=205 dy=0 dh=205 dv=0
Position2: "Single Positioning lookup 201 subtable" dx=205 dy=0 dh=205 dv=0
Position2: "Single Positioning lookup 200 subtable" dx=205 dy=0 dh=205 dv=0
Position2: "Single Positioning lookup 199 subtable" dx=205 dy=0 dh=205 dv=0
Position2: "Single Positioning lookup 198 subtable" dx=205 dy=0 dh=205 dv=0
Position2: "Single Positioning lookup 196 subtable" dx=205 dy=0 dh=205 dv=0
Position2: "Single Positioning lookup 195 subtable" dx=205 dy=0 dh=205 dv=0
Position2: "Single Positioning lookup 194 subtable" dx=205 dy=0 dh=205 dv=0
Position2: "Single Positioning lookup 193 subtable" dx=205 dy=0 dh=205 dv=0
Position2: "Single Positioning lookup 192 subtable" dx=205 dy=0 dh=205 dv=0
Position2: "Single Positioning lookup 190 subtable" dx=205 dy=0 dh=205 dv=0
Position2: "Single Positioning lookup 189 subtable" dx=205 dy=0 dh=205 dv=0
Position2: "Single Positioning lookup 188 subtable" dx=205 dy=0 dh=205 dv=0
Position2: "Single Positioning lookup 187 subtable" dx=205 dy=0 dh=205 dv=0
Position2: "Single Positioning lookup 186 subtable" dx=205 dy=0 dh=205 dv=0
Position2: "Single Positioning lookup 185 subtable" dx=205 dy=0 dh=205 dv=0
Position2: "Single Positioning lookup 184 subtable" dx=205 dy=0 dh=205 dv=0
Position2: "Single Positioning lookup 183 subtable" dx=205 dy=0 dh=205 dv=0
Position2: "Single Positioning lookup 182 subtable" dx=205 dy=0 dh=205 dv=0
Position2: "Single Positioning lookup 181 subtable" dx=198 dy=0 dh=198 dv=0
Position2: "Single Positioning lookup 179 subtable" dx=198 dy=0 dh=198 dv=0
Position2: "Single Positioning lookup 178 subtable" dx=198 dy=0 dh=198 dv=0
Position2: "Single Positioning lookup 174 subtable" dx=198 dy=0 dh=198 dv=0
Position2: "Single Positioning lookup 173 subtable" dx=198 dy=0 dh=198 dv=0
Position2: "Single Positioning lookup 172 subtable" dx=198 dy=0 dh=198 dv=0
Position2: "Single Positioning lookup 170 subtable" dx=198 dy=0 dh=198 dv=0
Position2: "Single Positioning lookup 169 subtable" dx=198 dy=0 dh=198 dv=0
Position2: "Single Positioning lookup 168 subtable" dx=198 dy=0 dh=198 dv=0
Position2: "Single Positioning lookup 166 subtable" dx=198 dy=0 dh=198 dv=0
Position2: "Single Positioning lookup 165 subtable" dx=198 dy=0 dh=198 dv=0
Position2: "Single Positioning lookup 164 subtable" dx=198 dy=0 dh=198 dv=0
Position2: "Single Positioning lookup 163 subtable" dx=198 dy=0 dh=198 dv=0
Position2: "Single Positioning lookup 162 subtable" dx=198 dy=0 dh=198 dv=0
Position2: "Single Positioning lookup 160 subtable" dx=198 dy=0 dh=198 dv=0
Position2: "Single Positioning lookup 159 subtable" dx=198 dy=0 dh=198 dv=0
Position2: "Single Positioning lookup 158 subtable" dx=198 dy=0 dh=198 dv=0
Position2: "Single Positioning lookup 157 subtable" dx=198 dy=0 dh=198 dv=0
Position2: "Single Positioning lookup 156 subtable" dx=198 dy=0 dh=198 dv=0
Position2: "Single Positioning lookup 154 subtable" dx=198 dy=0 dh=198 dv=0
Position2: "Single Positioning lookup 153 subtable" dx=198 dy=0 dh=198 dv=0
Position2: "Single Positioning lookup 152 subtable" dx=198 dy=0 dh=198 dv=0
Position2: "Single Positioning lookup 151 subtable" dx=198 dy=0 dh=198 dv=0
Position2: "Single Positioning lookup 150 subtable" dx=198 dy=0 dh=198 dv=0
Position2: "Single Positioning lookup 149 subtable" dx=198 dy=0 dh=198 dv=0
Position2: "Single Positioning lookup 148 subtable" dx=198 dy=0 dh=198 dv=0
Position2: "Single Positioning lookup 147 subtable" dx=198 dy=0 dh=198 dv=0
Position2: "Single Positioning lookup 39 subtable" dx=45 dy=0 dh=45 dv=0
Position2: "Single Positioning lookup 38 subtable" dx=55 dy=0 dh=55 dv=0
Position2: "Single Positioning lookup 37 subtable" dx=23 dy=0 dh=23 dv=0
Position2: "Single Positioning lookup 34 subtable" dx=0 dy=0 dh=201 dv=0
Position2: "Single Positioning lookup 33 subtable" dx=273 dy=0 dh=273 dv=0
Position2: "Single Positioning lookup 31 subtable" dx=0 dy=0 dh=47 dv=0
Position2: "Single Positioning lookup 30 subtable" dx=324 dy=0 dh=324 dv=0
Position2: "Single Positioning lookup 25 subtable" dx=144 dy=0 dh=144 dv=0
Position2: "Single Positioning lookup 16 subtable" dx=6 dy=0 dh=6 dv=0
Position2: "Single Positioning lookup 11 subtable" dx=232 dy=0 dh=232 dv=0
Position2: "Single Positioning lookup 7 subtable" dx=134 dy=0 dh=134 dv=0
Position2: "Single Positioning lookup 6 subtable" dx=220 dy=0 dh=220 dv=0
Position2: "Single Positioning lookup 5 subtable" dx=120 dy=0 dh=120 dv=0
EndChar

StartChar: uni1B19
Encoding: 6937 6937 30
Width: 652
GlyphClass: 2
Flags: W
AnchorPoint: "Anchor-2" 488 0 basechar 0
AnchorPoint: "Anchor-0" 463 490 basechar 0
LayerCount: 2
Fore
SplineSet
530 225 m 0,0,1
 529 321 529 321 478 419 c 1,2,3
 500 436 500 436 535 436 c 2,4,-1
 552 435 l 1,5,6
 628 416 628 416 632 312 c 0,7,8
 632 246 632 246 610.5 123.5 c 128,-1,9
 589 1 589 1 564 1 c 1,10,11
 589 192 589 192 593 274 c 1,12,-1
 593 285 l 2,13,14
 590 395 590 395 521 404 c 1,15,16
 561 301 561 301 561 222 c 0,17,18
 561 13 561 13 421 5 c 1,19,20
 346 9 346 9 319.5 114 c 128,-1,21
 293 219 293 219 281 302 c 128,-1,22
 269 385 269 385 185 385 c 0,23,24
 56 385 56 385 56 190 c 0,25,26
 58 33 58 33 131 33 c 0,27,28
 198 33 198 33 198 154 c 0,29,30
 198 210 198 210 188 243 c 1,31,32
 223 221 223 221 223 137 c 0,33,34
 223 5 223 5 130 -1 c 1,35,36
 32 -1 32 -1 20 174 c 1,37,38
 20 415 20 415 190 415 c 0,39,40
 299 413 299 413 312.5 312.5 c 128,-1,41
 326 212 326 212 350.5 125 c 128,-1,42
 375 38 375 38 435 38 c 1,43,44
 529 50 529 50 530 225 c 0,0,1
EndSplineSet
MultipleSubs2: "Multiple Substitution lookup 317 subtable" uni1B19 _reorder
MultipleSubs2: "Multiple Substitution lookup 261 subtable" uni1B19 _reorder
MultipleSubs2: "Multiple Substitution lookup 205 subtable" uni1B19 _reorder
MultipleSubs2: "Multiple Substitution lookup 144 subtable" uni1B19 _reorder
MultipleSubs2: "Multiple Substitution lookup 88 subtable" uni1B19 _reorder
MultipleSubs2: "Multiple Substitution lookup 32 subtable" uni1B19 _reorder
Position2: "Single Positioning lookup 329 subtable" dx=5 dy=0 dh=5 dv=0
Position2: "Single Positioning lookup 328 subtable" dx=5 dy=0 dh=5 dv=0
Position2: "Single Positioning lookup 324 subtable" dx=5 dy=0 dh=5 dv=0
Position2: "Single Positioning lookup 318 subtable" dx=5 dy=0 dh=5 dv=0
Position2: "Single Positioning lookup 314 subtable" dx=5 dy=0 dh=5 dv=0
Position2: "Single Positioning lookup 313 subtable" dx=5 dy=0 dh=5 dv=0
Position2: "Single Positioning lookup 310 subtable" dx=5 dy=0 dh=5 dv=0
Position2: "Single Positioning lookup 309 subtable" dx=5 dy=0 dh=5 dv=0
Position2: "Single Positioning lookup 308 subtable" dx=5 dy=0 dh=5 dv=0
Position2: "Single Positioning lookup 306 subtable" dx=23 dy=0 dh=23 dv=0
Position2: "Single Positioning lookup 305 subtable" dx=23 dy=0 dh=23 dv=0
Position2: "Single Positioning lookup 302 subtable" dx=23 dy=0 dh=23 dv=0
Position2: "Single Positioning lookup 301 subtable" dx=23 dy=0 dh=23 dv=0
Position2: "Single Positioning lookup 296 subtable" dx=23 dy=0 dh=23 dv=0
Position2: "Single Positioning lookup 294 subtable" dx=23 dy=0 dh=23 dv=0
Position2: "Single Positioning lookup 290 subtable" dx=23 dy=0 dh=23 dv=0
Position2: "Single Positioning lookup 289 subtable" dx=23 dy=0 dh=23 dv=0
Position2: "Single Positioning lookup 286 subtable" dx=23 dy=0 dh=23 dv=0
Position2: "Single Positioning lookup 285 subtable" dx=23 dy=0 dh=23 dv=0
Position2: "Single Positioning lookup 284 subtable" dx=23 dy=0 dh=23 dv=0
Position2: "Single Positioning lookup 282 subtable" dx=58 dy=0 dh=58 dv=0
Position2: "Single Positioning lookup 280 subtable" dx=58 dy=0 dh=58 dv=0
Position2: "Single Positioning lookup 279 subtable" dx=58 dy=0 dh=58 dv=0
Position2: "Single Positioning lookup 277 subtable" dx=58 dy=0 dh=58 dv=0
Position2: "Single Positioning lookup 276 subtable" dx=58 dy=0 dh=58 dv=0
Position2: "Single Positioning lookup 275 subtable" dx=58 dy=0 dh=58 dv=0
Position2: "Single Positioning lookup 273 subtable" dx=58 dy=0 dh=58 dv=0
Position2: "Single Positioning lookup 268 subtable" dx=58 dy=0 dh=58 dv=0
Position2: "Single Positioning lookup 266 subtable" dx=58 dy=0 dh=58 dv=0
Position2: "Single Positioning lookup 265 subtable" dx=58 dy=0 dh=58 dv=0
Position2: "Single Positioning lookup 264 subtable" dx=58 dy=0 dh=58 dv=0
Position2: "Single Positioning lookup 262 subtable" dx=58 dy=0 dh=58 dv=0
Position2: "Single Positioning lookup 261 subtable" dx=58 dy=0 dh=58 dv=0
Position2: "Single Positioning lookup 260 subtable" dx=58 dy=0 dh=58 dv=0
Position2: "Single Positioning lookup 258 subtable" dx=58 dy=0 dh=58 dv=0
Position2: "Single Positioning lookup 257 subtable" dx=58 dy=0 dh=58 dv=0
Position2: "Single Positioning lookup 256 subtable" dx=58 dy=0 dh=58 dv=0
Position2: "Single Positioning lookup 252 subtable" dx=155 dy=0 dh=155 dv=0
Position2: "Single Positioning lookup 250 subtable" dx=155 dy=0 dh=155 dv=0
Position2: "Single Positioning lookup 249 subtable" dx=155 dy=0 dh=155 dv=0
Position2: "Single Positioning lookup 246 subtable" dx=155 dy=0 dh=155 dv=0
Position2: "Single Positioning lookup 245 subtable" dx=155 dy=0 dh=155 dv=0
Position2: "Single Positioning lookup 244 subtable" dx=155 dy=0 dh=155 dv=0
Position2: "Single Positioning lookup 242 subtable" dx=155 dy=0 dh=155 dv=0
Position2: "Single Positioning lookup 241 subtable" dx=155 dy=0 dh=155 dv=0
Position2: "Single Positioning lookup 240 subtable" dx=155 dy=0 dh=155 dv=0
Position2: "Single Positioning lookup 236 subtable" dx=155 dy=0 dh=155 dv=0
Position2: "Single Positioning lookup 235 subtable" dx=155 dy=0 dh=155 dv=0
Position2: "Single Positioning lookup 234 subtable" dx=155 dy=0 dh=155 dv=0
Position2: "Single Positioning lookup 232 subtable" dx=155 dy=0 dh=155 dv=0
Position2: "Single Positioning lookup 231 subtable" dx=155 dy=0 dh=155 dv=0
Position2: "Single Positioning lookup 230 subtable" dx=155 dy=0 dh=155 dv=0
Position2: "Single Positioning lookup 229 subtable" dx=155 dy=0 dh=155 dv=0
Position2: "Single Positioning lookup 228 subtable" dx=155 dy=0 dh=155 dv=0
Position2: "Single Positioning lookup 226 subtable" dx=155 dy=0 dh=155 dv=0
Position2: "Single Positioning lookup 225 subtable" dx=155 dy=0 dh=155 dv=0
Position2: "Single Positioning lookup 224 subtable" dx=155 dy=0 dh=155 dv=0
Position2: "Single Positioning lookup 223 subtable" dx=155 dy=0 dh=155 dv=0
Position2: "Single Positioning lookup 222 subtable" dx=155 dy=0 dh=155 dv=0
Position2: "Single Positioning lookup 221 subtable" dx=155 dy=0 dh=155 dv=0
Position2: "Single Positioning lookup 220 subtable" dx=155 dy=0 dh=155 dv=0
Position2: "Single Positioning lookup 219 subtable" dx=155 dy=0 dh=155 dv=0
Position2: "Single Positioning lookup 217 subtable" dx=205 dy=0 dh=205 dv=0
Position2: "Single Positioning lookup 216 subtable" dx=205 dy=0 dh=205 dv=0
Position2: "Single Positioning lookup 215 subtable" dx=205 dy=0 dh=205 dv=0
Position2: "Single Positioning lookup 214 subtable" dx=205 dy=0 dh=205 dv=0
Position2: "Single Positioning lookup 211 subtable" dx=205 dy=0 dh=205 dv=0
Position2: "Single Positioning lookup 210 subtable" dx=205 dy=0 dh=205 dv=0
Position2: "Single Positioning lookup 209 subtable" dx=205 dy=0 dh=205 dv=0
Position2: "Single Positioning lookup 208 subtable" dx=205 dy=0 dh=205 dv=0
Position2: "Single Positioning lookup 206 subtable" dx=205 dy=0 dh=205 dv=0
Position2: "Single Positioning lookup 205 subtable" dx=205 dy=0 dh=205 dv=0
Position2: "Single Positioning lookup 204 subtable" dx=205 dy=0 dh=205 dv=0
Position2: "Single Positioning lookup 203 subtable" dx=205 dy=0 dh=205 dv=0
Position2: "Single Positioning lookup 202 subtable" dx=205 dy=0 dh=205 dv=0
Position2: "Single Positioning lookup 201 subtable" dx=205 dy=0 dh=205 dv=0
Position2: "Single Positioning lookup 200 subtable" dx=205 dy=0 dh=205 dv=0
Position2: "Single Positioning lookup 199 subtable" dx=205 dy=0 dh=205 dv=0
Position2: "Single Positioning lookup 198 subtable" dx=205 dy=0 dh=205 dv=0
Position2: "Single Positioning lookup 196 subtable" dx=205 dy=0 dh=205 dv=0
Position2: "Single Positioning lookup 195 subtable" dx=205 dy=0 dh=205 dv=0
Position2: "Single Positioning lookup 194 subtable" dx=205 dy=0 dh=205 dv=0
Position2: "Single Positioning lookup 193 subtable" dx=205 dy=0 dh=205 dv=0
Position2: "Single Positioning lookup 192 subtable" dx=205 dy=0 dh=205 dv=0
Position2: "Single Positioning lookup 190 subtable" dx=205 dy=0 dh=205 dv=0
Position2: "Single Positioning lookup 189 subtable" dx=205 dy=0 dh=205 dv=0
Position2: "Single Positioning lookup 188 subtable" dx=205 dy=0 dh=205 dv=0
Position2: "Single Positioning lookup 187 subtable" dx=205 dy=0 dh=205 dv=0
Position2: "Single Positioning lookup 186 subtable" dx=205 dy=0 dh=205 dv=0
Position2: "Single Positioning lookup 185 subtable" dx=205 dy=0 dh=205 dv=0
Position2: "Single Positioning lookup 184 subtable" dx=205 dy=0 dh=205 dv=0
Position2: "Single Positioning lookup 183 subtable" dx=205 dy=0 dh=205 dv=0
Position2: "Single Positioning lookup 182 subtable" dx=205 dy=0 dh=205 dv=0
Position2: "Single Positioning lookup 181 subtable" dx=198 dy=0 dh=198 dv=0
Position2: "Single Positioning lookup 180 subtable" dx=198 dy=0 dh=198 dv=0
Position2: "Single Positioning lookup 179 subtable" dx=198 dy=0 dh=198 dv=0
Position2: "Single Positioning lookup 178 subtable" dx=198 dy=0 dh=198 dv=0
Position2: "Single Positioning lookup 175 subtable" dx=198 dy=0 dh=198 dv=0
Position2: "Single Positioning lookup 174 subtable" dx=198 dy=0 dh=198 dv=0
Position2: "Single Positioning lookup 173 subtable" dx=198 dy=0 dh=198 dv=0
Position2: "Single Positioning lookup 172 subtable" dx=198 dy=0 dh=198 dv=0
Position2: "Single Positioning lookup 170 subtable" dx=198 dy=0 dh=198 dv=0
Position2: "Single Positioning lookup 169 subtable" dx=198 dy=0 dh=198 dv=0
Position2: "Single Positioning lookup 168 subtable" dx=198 dy=0 dh=198 dv=0
Position2: "Single Positioning lookup 166 subtable" dx=198 dy=0 dh=198 dv=0
Position2: "Single Positioning lookup 165 subtable" dx=198 dy=0 dh=198 dv=0
Position2: "Single Positioning lookup 164 subtable" dx=198 dy=0 dh=198 dv=0
Position2: "Single Positioning lookup 163 subtable" dx=198 dy=0 dh=198 dv=0
Position2: "Single Positioning lookup 162 subtable" dx=198 dy=0 dh=198 dv=0
Position2: "Single Positioning lookup 160 subtable" dx=198 dy=0 dh=198 dv=0
Position2: "Single Positioning lookup 159 subtable" dx=198 dy=0 dh=198 dv=0
Position2: "Single Positioning lookup 158 subtable" dx=198 dy=0 dh=198 dv=0
Position2: "Single Positioning lookup 157 subtable" dx=198 dy=0 dh=198 dv=0
Position2: "Single Positioning lookup 156 subtable" dx=198 dy=0 dh=198 dv=0
Position2: "Single Positioning lookup 154 subtable" dx=198 dy=0 dh=198 dv=0
Position2: "Single Positioning lookup 153 subtable" dx=198 dy=0 dh=198 dv=0
Position2: "Single Positioning lookup 152 subtable" dx=198 dy=0 dh=198 dv=0
Position2: "Single Positioning lookup 151 subtable" dx=198 dy=0 dh=198 dv=0
Position2: "Single Positioning lookup 150 subtable" dx=198 dy=0 dh=198 dv=0
Position2: "Single Positioning lookup 149 subtable" dx=198 dy=0 dh=198 dv=0
Position2: "Single Positioning lookup 148 subtable" dx=198 dy=0 dh=198 dv=0
Position2: "Single Positioning lookup 147 subtable" dx=198 dy=0 dh=198 dv=0
Position2: "Single Positioning lookup 146 subtable" dx=198 dy=0 dh=198 dv=0
Position2: "Single Positioning lookup 39 subtable" dx=74 dy=0 dh=74 dv=0
Position2: "Single Positioning lookup 38 subtable" dx=84 dy=0 dh=84 dv=0
Position2: "Single Positioning lookup 37 subtable" dx=52 dy=0 dh=52 dv=0
Position2: "Single Positioning lookup 34 subtable" dx=0 dy=0 dh=341 dv=0
Position2: "Single Positioning lookup 33 subtable" dx=162 dy=0 dh=162 dv=0
Position2: "Single Positioning lookup 31 subtable" dx=0 dy=0 dh=187 dv=0
Position2: "Single Positioning lookup 30 subtable" dx=213 dy=0 dh=213 dv=0
Position2: "Single Positioning lookup 25 subtable" dx=173 dy=0 dh=173 dv=0
Position2: "Single Positioning lookup 16 subtable" dx=35 dy=0 dh=35 dv=0
Position2: "Single Positioning lookup 12 subtable" dx=0 dy=0 dh=117 dv=0
Position2: "Single Positioning lookup 11 subtable" dx=121 dy=0 dh=121 dv=0
Position2: "Single Positioning lookup 10 subtable" dx=9 dy=0 dh=9 dv=0
Position2: "Single Positioning lookup 7 subtable" dx=163 dy=0 dh=163 dv=0
Position2: "Single Positioning lookup 6 subtable" dx=249 dy=0 dh=249 dv=0
Position2: "Single Positioning lookup 5 subtable" dx=149 dy=0 dh=149 dv=0
EndChar

StartChar: uni1B1A
Encoding: 6938 6938 31
Width: 604
GlyphClass: 2
Flags: W
AnchorPoint: "Anchor-2" 407 0 basechar 0
AnchorPoint: "Anchor-0" 354 490 basechar 0
LayerCount: 2
Fore
SplineSet
393 -69 m 0,0,1
 381 -69 381 -69 381 -61 c 1,2,3
 496 -22 496 -22 496 87 c 0,4,5
 496 204 496 204 310 240 c 1,6,7
 316 257 316 257 341 257 c 2,8,-1
 360 255 l 2,9,10
 398 248 398 248 414 240 c 1,11,12
 526 293 526 293 526 336 c 0,13,14
 526 385 526 385 401 387 c 0,15,16
 309 386 309 386 262.5 322.5 c 128,-1,17
 216 259 216 259 216 171 c 0,18,19
 216 68 216 68 273 25 c 1,20,21
 261 -3 261 -3 207 -3 c 0,22,23
 82 -3 82 -3 82 130 c 0,24,25
 82 246 82 246 156 390 c 1,26,27
 101 380 101 380 54 227 c 1,28,29
 40 227 40 227 40 256 c 1,30,31
 75 418 75 418 153 418 c 2,32,-1
 160 418 l 2,33,34
 183 418 183 418 196 392 c 1,35,36
 116 258 116 258 116 125 c 1,37,38
 121 29 121 29 223 29 c 2,39,-1
 228 29 l 1,40,41
 183 70 183 70 183 165 c 0,42,43
 183 289 183 289 246 356.5 c 128,-1,44
 309 424 309 424 417 424 c 0,45,46
 549 424 549 424 563 355 c 1,47,-1
 564 343 l 1,48,49
 564 281 564 281 446 229 c 1,50,51
 529 191 529 191 529 93 c 0,52,53
 529 21 529 21 480.5 -24 c 128,-1,54
 432 -69 432 -69 393 -69 c 0,0,1
EndSplineSet
MultipleSubs2: "Multiple Substitution lookup 318 subtable" uni1B1A _reorder
MultipleSubs2: "Multiple Substitution lookup 262 subtable" uni1B1A _reorder
MultipleSubs2: "Multiple Substitution lookup 206 subtable" uni1B1A _reorder
MultipleSubs2: "Multiple Substitution lookup 145 subtable" uni1B1A _reorder
MultipleSubs2: "Multiple Substitution lookup 89 subtable" uni1B1A _reorder
MultipleSubs2: "Multiple Substitution lookup 33 subtable" uni1B1A _reorder
Substitution2: "Single Substitution lookup 10 subtable" uni1B1A.2
Position2: "Single Positioning lookup 329 subtable" dx=5 dy=0 dh=5 dv=0
Position2: "Single Positioning lookup 328 subtable" dx=5 dy=0 dh=5 dv=0
Position2: "Single Positioning lookup 326 subtable" dx=5 dy=0 dh=5 dv=0
Position2: "Single Positioning lookup 325 subtable" dx=5 dy=0 dh=5 dv=0
Position2: "Single Positioning lookup 324 subtable" dx=5 dy=0 dh=5 dv=0
Position2: "Single Positioning lookup 322 subtable" dx=5 dy=0 dh=5 dv=0
Position2: "Single Positioning lookup 320 subtable" dx=5 dy=0 dh=5 dv=0
Position2: "Single Positioning lookup 318 subtable" dx=5 dy=0 dh=5 dv=0
Position2: "Single Positioning lookup 317 subtable" dx=5 dy=0 dh=5 dv=0
Position2: "Single Positioning lookup 316 subtable" dx=5 dy=0 dh=5 dv=0
Position2: "Single Positioning lookup 314 subtable" dx=5 dy=0 dh=5 dv=0
Position2: "Single Positioning lookup 313 subtable" dx=5 dy=0 dh=5 dv=0
Position2: "Single Positioning lookup 312 subtable" dx=5 dy=0 dh=5 dv=0
Position2: "Single Positioning lookup 310 subtable" dx=5 dy=0 dh=5 dv=0
Position2: "Single Positioning lookup 309 subtable" dx=5 dy=0 dh=5 dv=0
Position2: "Single Positioning lookup 308 subtable" dx=5 dy=0 dh=5 dv=0
Position2: "Single Positioning lookup 306 subtable" dx=23 dy=0 dh=23 dv=0
Position2: "Single Positioning lookup 305 subtable" dx=23 dy=0 dh=23 dv=0
Position2: "Single Positioning lookup 304 subtable" dx=23 dy=0 dh=23 dv=0
Position2: "Single Positioning lookup 303 subtable" dx=23 dy=0 dh=23 dv=0
Position2: "Single Positioning lookup 302 subtable" dx=23 dy=0 dh=23 dv=0
Position2: "Single Positioning lookup 301 subtable" dx=23 dy=0 dh=23 dv=0
Position2: "Single Positioning lookup 300 subtable" dx=23 dy=0 dh=23 dv=0
Position2: "Single Positioning lookup 299 subtable" dx=23 dy=0 dh=23 dv=0
Position2: "Single Positioning lookup 298 subtable" dx=23 dy=0 dh=23 dv=0
Position2: "Single Positioning lookup 296 subtable" dx=23 dy=0 dh=23 dv=0
Position2: "Single Positioning lookup 294 subtable" dx=23 dy=0 dh=23 dv=0
Position2: "Single Positioning lookup 293 subtable" dx=23 dy=0 dh=23 dv=0
Position2: "Single Positioning lookup 292 subtable" dx=23 dy=0 dh=23 dv=0
Position2: "Single Positioning lookup 290 subtable" dx=23 dy=0 dh=23 dv=0
Position2: "Single Positioning lookup 289 subtable" dx=23 dy=0 dh=23 dv=0
Position2: "Single Positioning lookup 288 subtable" dx=23 dy=0 dh=23 dv=0
Position2: "Single Positioning lookup 286 subtable" dx=23 dy=0 dh=23 dv=0
Position2: "Single Positioning lookup 285 subtable" dx=23 dy=0 dh=23 dv=0
Position2: "Single Positioning lookup 284 subtable" dx=23 dy=0 dh=23 dv=0
Position2: "Single Positioning lookup 282 subtable" dx=58 dy=0 dh=58 dv=0
Position2: "Single Positioning lookup 280 subtable" dx=58 dy=0 dh=58 dv=0
Position2: "Single Positioning lookup 279 subtable" dx=58 dy=0 dh=58 dv=0
Position2: "Single Positioning lookup 277 subtable" dx=58 dy=0 dh=58 dv=0
Position2: "Single Positioning lookup 276 subtable" dx=58 dy=0 dh=58 dv=0
Position2: "Single Positioning lookup 275 subtable" dx=58 dy=0 dh=58 dv=0
Position2: "Single Positioning lookup 274 subtable" dx=58 dy=0 dh=58 dv=0
Position2: "Single Positioning lookup 273 subtable" dx=58 dy=0 dh=58 dv=0
Position2: "Single Positioning lookup 272 subtable" dx=58 dy=0 dh=58 dv=0
Position2: "Single Positioning lookup 268 subtable" dx=58 dy=0 dh=58 dv=0
Position2: "Single Positioning lookup 267 subtable" dx=58 dy=0 dh=58 dv=0
Position2: "Single Positioning lookup 266 subtable" dx=58 dy=0 dh=58 dv=0
Position2: "Single Positioning lookup 265 subtable" dx=58 dy=0 dh=58 dv=0
Position2: "Single Positioning lookup 264 subtable" dx=58 dy=0 dh=58 dv=0
Position2: "Single Positioning lookup 263 subtable" dx=58 dy=0 dh=58 dv=0
Position2: "Single Positioning lookup 262 subtable" dx=58 dy=0 dh=58 dv=0
Position2: "Single Positioning lookup 261 subtable" dx=58 dy=0 dh=58 dv=0
Position2: "Single Positioning lookup 260 subtable" dx=58 dy=0 dh=58 dv=0
Position2: "Single Positioning lookup 259 subtable" dx=58 dy=0 dh=58 dv=0
Position2: "Single Positioning lookup 258 subtable" dx=58 dy=0 dh=58 dv=0
Position2: "Single Positioning lookup 257 subtable" dx=58 dy=0 dh=58 dv=0
Position2: "Single Positioning lookup 256 subtable" dx=58 dy=0 dh=58 dv=0
Position2: "Single Positioning lookup 252 subtable" dx=155 dy=0 dh=155 dv=0
Position2: "Single Positioning lookup 251 subtable" dx=155 dy=0 dh=155 dv=0
Position2: "Single Positioning lookup 250 subtable" dx=155 dy=0 dh=155 dv=0
Position2: "Single Positioning lookup 249 subtable" dx=155 dy=0 dh=155 dv=0
Position2: "Single Positioning lookup 247 subtable" dx=155 dy=0 dh=155 dv=0
Position2: "Single Positioning lookup 246 subtable" dx=155 dy=0 dh=155 dv=0
Position2: "Single Positioning lookup 245 subtable" dx=155 dy=0 dh=155 dv=0
Position2: "Single Positioning lookup 244 subtable" dx=155 dy=0 dh=155 dv=0
Position2: "Single Positioning lookup 242 subtable" dx=155 dy=0 dh=155 dv=0
Position2: "Single Positioning lookup 241 subtable" dx=155 dy=0 dh=155 dv=0
Position2: "Single Positioning lookup 240 subtable" dx=155 dy=0 dh=155 dv=0
Position2: "Single Positioning lookup 239 subtable" dx=155 dy=0 dh=155 dv=0
Position2: "Single Positioning lookup 238 subtable" dx=155 dy=0 dh=155 dv=0
Position2: "Single Positioning lookup 237 subtable" dx=155 dy=0 dh=155 dv=0
Position2: "Single Positioning lookup 236 subtable" dx=155 dy=0 dh=155 dv=0
Position2: "Single Positioning lookup 235 subtable" dx=155 dy=0 dh=155 dv=0
Position2: "Single Positioning lookup 234 subtable" dx=155 dy=0 dh=155 dv=0
Position2: "Single Positioning lookup 232 subtable" dx=155 dy=0 dh=155 dv=0
Position2: "Single Positioning lookup 231 subtable" dx=155 dy=0 dh=155 dv=0
Position2: "Single Positioning lookup 230 subtable" dx=155 dy=0 dh=155 dv=0
Position2: "Single Positioning lookup 229 subtable" dx=155 dy=0 dh=155 dv=0
Position2: "Single Positioning lookup 228 subtable" dx=155 dy=0 dh=155 dv=0
Position2: "Single Positioning lookup 226 subtable" dx=155 dy=0 dh=155 dv=0
Position2: "Single Positioning lookup 225 subtable" dx=155 dy=0 dh=155 dv=0
Position2: "Single Positioning lookup 224 subtable" dx=155 dy=0 dh=155 dv=0
Position2: "Single Positioning lookup 223 subtable" dx=155 dy=0 dh=155 dv=0
Position2: "Single Positioning lookup 222 subtable" dx=155 dy=0 dh=155 dv=0
Position2: "Single Positioning lookup 221 subtable" dx=155 dy=0 dh=155 dv=0
Position2: "Single Positioning lookup 220 subtable" dx=155 dy=0 dh=155 dv=0
Position2: "Single Positioning lookup 219 subtable" dx=155 dy=0 dh=155 dv=0
Position2: "Single Positioning lookup 218 subtable" dx=155 dy=0 dh=155 dv=0
Position2: "Single Positioning lookup 217 subtable" dx=205 dy=0 dh=205 dv=0
Position2: "Single Positioning lookup 216 subtable" dx=205 dy=0 dh=205 dv=0
Position2: "Single Positioning lookup 215 subtable" dx=205 dy=0 dh=205 dv=0
Position2: "Single Positioning lookup 214 subtable" dx=205 dy=0 dh=205 dv=0
Position2: "Single Positioning lookup 213 subtable" dx=205 dy=0 dh=205 dv=0
Position2: "Single Positioning lookup 211 subtable" dx=205 dy=0 dh=205 dv=0
Position2: "Single Positioning lookup 210 subtable" dx=205 dy=0 dh=205 dv=0
Position2: "Single Positioning lookup 209 subtable" dx=205 dy=0 dh=205 dv=0
Position2: "Single Positioning lookup 208 subtable" dx=205 dy=0 dh=205 dv=0
Position2: "Single Positioning lookup 207 subtable" dx=205 dy=0 dh=205 dv=0
Position2: "Single Positioning lookup 206 subtable" dx=205 dy=0 dh=205 dv=0
Position2: "Single Positioning lookup 205 subtable" dx=205 dy=0 dh=205 dv=0
Position2: "Single Positioning lookup 204 subtable" dx=205 dy=0 dh=205 dv=0
Position2: "Single Positioning lookup 203 subtable" dx=205 dy=0 dh=205 dv=0
Position2: "Single Positioning lookup 202 subtable" dx=205 dy=0 dh=205 dv=0
Position2: "Single Positioning lookup 201 subtable" dx=205 dy=0 dh=205 dv=0
Position2: "Single Positioning lookup 200 subtable" dx=205 dy=0 dh=205 dv=0
Position2: "Single Positioning lookup 199 subtable" dx=205 dy=0 dh=205 dv=0
Position2: "Single Positioning lookup 198 subtable" dx=205 dy=0 dh=205 dv=0
Position2: "Single Positioning lookup 197 subtable" dx=205 dy=0 dh=205 dv=0
Position2: "Single Positioning lookup 196 subtable" dx=205 dy=0 dh=205 dv=0
Position2: "Single Positioning lookup 195 subtable" dx=205 dy=0 dh=205 dv=0
Position2: "Single Positioning lookup 194 subtable" dx=205 dy=0 dh=205 dv=0
Position2: "Single Positioning lookup 193 subtable" dx=205 dy=0 dh=205 dv=0
Position2: "Single Positioning lookup 192 subtable" dx=205 dy=0 dh=205 dv=0
Position2: "Single Positioning lookup 191 subtable" dx=205 dy=0 dh=205 dv=0
Position2: "Single Positioning lookup 190 subtable" dx=205 dy=0 dh=205 dv=0
Position2: "Single Positioning lookup 189 subtable" dx=205 dy=0 dh=205 dv=0
Position2: "Single Positioning lookup 188 subtable" dx=205 dy=0 dh=205 dv=0
Position2: "Single Positioning lookup 187 subtable" dx=205 dy=0 dh=205 dv=0
Position2: "Single Positioning lookup 186 subtable" dx=205 dy=0 dh=205 dv=0
Position2: "Single Positioning lookup 185 subtable" dx=205 dy=0 dh=205 dv=0
Position2: "Single Positioning lookup 184 subtable" dx=205 dy=0 dh=205 dv=0
Position2: "Single Positioning lookup 183 subtable" dx=205 dy=0 dh=205 dv=0
Position2: "Single Positioning lookup 182 subtable" dx=205 dy=0 dh=205 dv=0
Position2: "Single Positioning lookup 181 subtable" dx=198 dy=0 dh=198 dv=0
Position2: "Single Positioning lookup 180 subtable" dx=198 dy=0 dh=198 dv=0
Position2: "Single Positioning lookup 179 subtable" dx=198 dy=0 dh=198 dv=0
Position2: "Single Positioning lookup 178 subtable" dx=198 dy=0 dh=198 dv=0
Position2: "Single Positioning lookup 177 subtable" dx=198 dy=0 dh=198 dv=0
Position2: "Single Positioning lookup 175 subtable" dx=198 dy=0 dh=198 dv=0
Position2: "Single Positioning lookup 174 subtable" dx=198 dy=0 dh=198 dv=0
Position2: "Single Positioning lookup 173 subtable" dx=198 dy=0 dh=198 dv=0
Position2: "Single Positioning lookup 172 subtable" dx=198 dy=0 dh=198 dv=0
Position2: "Single Positioning lookup 171 subtable" dx=198 dy=0 dh=198 dv=0
Position2: "Single Positioning lookup 170 subtable" dx=198 dy=0 dh=198 dv=0
Position2: "Single Positioning lookup 169 subtable" dx=198 dy=0 dh=198 dv=0
Position2: "Single Positioning lookup 168 subtable" dx=198 dy=0 dh=198 dv=0
Position2: "Single Positioning lookup 167 subtable" dx=198 dy=0 dh=198 dv=0
Position2: "Single Positioning lookup 166 subtable" dx=198 dy=0 dh=198 dv=0
Position2: "Single Positioning lookup 165 subtable" dx=198 dy=0 dh=198 dv=0
Position2: "Single Positioning lookup 164 subtable" dx=198 dy=0 dh=198 dv=0
Position2: "Single Positioning lookup 163 subtable" dx=198 dy=0 dh=198 dv=0
Position2: "Single Positioning lookup 162 subtable" dx=198 dy=0 dh=198 dv=0
Position2: "Single Positioning lookup 161 subtable" dx=198 dy=0 dh=198 dv=0
Position2: "Single Positioning lookup 160 subtable" dx=198 dy=0 dh=198 dv=0
Position2: "Single Positioning lookup 159 subtable" dx=198 dy=0 dh=198 dv=0
Position2: "Single Positioning lookup 158 subtable" dx=198 dy=0 dh=198 dv=0
Position2: "Single Positioning lookup 157 subtable" dx=198 dy=0 dh=198 dv=0
Position2: "Single Positioning lookup 156 subtable" dx=198 dy=0 dh=198 dv=0
Position2: "Single Positioning lookup 155 subtable" dx=198 dy=0 dh=198 dv=0
Position2: "Single Positioning lookup 154 subtable" dx=198 dy=0 dh=198 dv=0
Position2: "Single Positioning lookup 153 subtable" dx=198 dy=0 dh=198 dv=0
Position2: "Single Positioning lookup 152 subtable" dx=198 dy=0 dh=198 dv=0
Position2: "Single Positioning lookup 151 subtable" dx=198 dy=0 dh=198 dv=0
Position2: "Single Positioning lookup 150 subtable" dx=198 dy=0 dh=198 dv=0
Position2: "Single Positioning lookup 149 subtable" dx=198 dy=0 dh=198 dv=0
Position2: "Single Positioning lookup 148 subtable" dx=198 dy=0 dh=198 dv=0
Position2: "Single Positioning lookup 147 subtable" dx=198 dy=0 dh=198 dv=0
Position2: "Single Positioning lookup 146 subtable" dx=198 dy=0 dh=198 dv=0
Position2: "Single Positioning lookup 40 subtable" dx=39 dy=0 dh=39 dv=0
Position2: "Single Positioning lookup 39 subtable" dx=122 dy=0 dh=122 dv=0
Position2: "Single Positioning lookup 38 subtable" dx=132 dy=0 dh=132 dv=0
Position2: "Single Positioning lookup 37 subtable" dx=100 dy=0 dh=100 dv=0
Position2: "Single Positioning lookup 34 subtable" dx=0 dy=0 dh=308 dv=0
Position2: "Single Positioning lookup 33 subtable" dx=243 dy=0 dh=243 dv=0
Position2: "Single Positioning lookup 31 subtable" dx=0 dy=0 dh=154 dv=0
Position2: "Single Positioning lookup 30 subtable" dx=294 dy=0 dh=294 dv=0
Position2: "Single Positioning lookup 27 subtable" dx=9 dy=0 dh=9 dv=0
Position2: "Single Positioning lookup 26 subtable" dx=39 dy=0 dh=39 dv=0
Position2: "Single Positioning lookup 25 subtable" dx=221 dy=0 dh=221 dv=0
Position2: "Single Positioning lookup 18 subtable" dx=40 dy=0 dh=40 dv=0
Position2: "Single Positioning lookup 16 subtable" dx=83 dy=0 dh=83 dv=0
Position2: "Single Positioning lookup 15 subtable" dx=3 dy=0 dh=3 dv=0
Position2: "Single Positioning lookup 14 subtable" dx=2 dy=0 dh=2 dv=0
Position2: "Single Positioning lookup 12 subtable" dx=0 dy=0 dh=84 dv=0
Position2: "Single Positioning lookup 11 subtable" dx=202 dy=0 dh=202 dv=0
Position2: "Single Positioning lookup 10 subtable" dx=57 dy=0 dh=57 dv=0
Position2: "Single Positioning lookup 9 subtable" dx=19 dy=0 dh=19 dv=0
Position2: "Single Positioning lookup 7 subtable" dx=211 dy=0 dh=211 dv=0
Position2: "Single Positioning lookup 6 subtable" dx=297 dy=0 dh=297 dv=0
Position2: "Single Positioning lookup 5 subtable" dx=197 dy=0 dh=197 dv=0
EndChar

StartChar: uni1B1B
Encoding: 6939 6939 33
Width: 687
GlyphClass: 2
Flags: W
AnchorPoint: "Anchor-2" 608 0 basechar 0
AnchorPoint: "Anchor-1" 634 -453 basechar 0
AnchorPoint: "Anchor-0" 382 500 basechar 0
LayerCount: 2
Fore
SplineSet
618 459 m 1,0,1
 594 581 594 581 576 581 c 0,2,3
 567 581 567 581 550 547.5 c 128,-1,4
 533 514 533 514 533 489 c 0,5,6
 533 459 533 459 609 459 c 2,7,-1
 618 459 l 1,0,1
510 -340 m 0,8,9
 467 -339 467 -339 442 -308 c 0,10,11
 383 -246 383 -246 306 -246 c 0,12,13
 199 -246 199 -246 199 -420 c 1,14,-1
 200 -461 l 1,15,16
 37 -438 37 -438 34 -297 c 2,17,-1
 34 -288 l 2,18,19
 34 -111 34 -111 268 -20 c 0,20,21
 517 74 517 74 523 274 c 1,22,-1
 523 287 l 1,23,24
 514 390 514 390 408 390 c 0,25,26
 352 390 352 390 337.5 338 c 128,-1,27
 323 286 323 286 323 158 c 0,28,29
 323 130 323 130 304 128 c 1,30,31
 294 294 294 294 216 294 c 0,32,33
 165 293 165 293 165 205 c 2,34,-1
 165 186 l 1,35,36
 170 83 170 83 230 23 c 1,37,38
 211 3 211 3 173 3 c 2,39,-1
 159 4 l 1,40,41
 44 21 44 21 44 118 c 2,42,-1
 44 122 l 2,43,44
 47 194 47 194 100 308 c 1,45,46
 55 280 55 280 28 187 c 1,47,48
 20 202 20 202 20 219 c 0,49,50
 32 295 32 295 101 340 c 1,51,52
 132 340 132 340 132 308 c 1,53,54
 73 183 73 183 73 135 c 0,55,56
 73 33 73 33 187 31 c 1,57,58
 136 89 136 89 136 196 c 2,59,-1
 136 212 l 1,60,61
 140 330 140 330 215 330 c 0,62,63
 268 329 268 329 298 288 c 1,64,65
 304 424 304 424 404 424 c 2,66,-1
 444 424 l 1,67,68
 549 415 549 415 557 273 c 1,69,70
 557 160 557 160 482 82.5 c 128,-1,71
 407 5 407 5 242 -68.5 c 128,-1,72
 77 -142 77 -142 72 -288 c 0,73,74
 72 -399 72 -399 177 -427 c 1,75,76
 171 -392 171 -392 171 -363 c 0,77,78
 171 -209 171 -209 304 -209 c 0,79,80
 378 -209 378 -209 419 -247 c 128,-1,81
 460 -285 460 -285 476 -298 c 128,-1,82
 492 -311 492 -311 506 -311 c 0,83,84
 576 -311 576 -311 601 -144 c 128,-1,85
 626 23 626 23 635 267 c 1,86,87
 632 369 632 369 621 439 c 1,88,89
 574 432 574 432 556 432 c 0,90,91
 505 432 505 432 505 482 c 0,92,93
 505 519 505 519 531.5 569 c 128,-1,94
 558 619 558 619 584 619 c 0,95,96
 656 619 656 619 667 257 c 1,97,98
 659 51 659 51 630 -142.5 c 128,-1,99
 601 -336 601 -336 510 -340 c 0,8,9
EndSplineSet
MultipleSubs2: "Multiple Substitution lookup 319 subtable" uni1B1B _reorder
MultipleSubs2: "Multiple Substitution lookup 263 subtable" uni1B1B _reorder
MultipleSubs2: "Multiple Substitution lookup 207 subtable" uni1B1B _reorder
MultipleSubs2: "Multiple Substitution lookup 146 subtable" uni1B1B _reorder
MultipleSubs2: "Multiple Substitution lookup 90 subtable" uni1B1B _reorder
MultipleSubs2: "Multiple Substitution lookup 34 subtable" uni1B1B _reorder
Substitution2: "Single Substitution lookup 11 subtable" uni1B1B.2
Position2: "Single Positioning lookup 329 subtable" dx=5 dy=0 dh=5 dv=0
Position2: "Single Positioning lookup 328 subtable" dx=5 dy=0 dh=5 dv=0
Position2: "Single Positioning lookup 324 subtable" dx=5 dy=0 dh=5 dv=0
Position2: "Single Positioning lookup 318 subtable" dx=5 dy=0 dh=5 dv=0
Position2: "Single Positioning lookup 314 subtable" dx=5 dy=0 dh=5 dv=0
Position2: "Single Positioning lookup 310 subtable" dx=5 dy=0 dh=5 dv=0
Position2: "Single Positioning lookup 309 subtable" dx=5 dy=0 dh=5 dv=0
Position2: "Single Positioning lookup 308 subtable" dx=5 dy=0 dh=5 dv=0
Position2: "Single Positioning lookup 306 subtable" dx=23 dy=0 dh=23 dv=0
Position2: "Single Positioning lookup 305 subtable" dx=23 dy=0 dh=23 dv=0
Position2: "Single Positioning lookup 301 subtable" dx=23 dy=0 dh=23 dv=0
Position2: "Single Positioning lookup 294 subtable" dx=23 dy=0 dh=23 dv=0
Position2: "Single Positioning lookup 290 subtable" dx=23 dy=0 dh=23 dv=0
Position2: "Single Positioning lookup 286 subtable" dx=23 dy=0 dh=23 dv=0
Position2: "Single Positioning lookup 285 subtable" dx=23 dy=0 dh=23 dv=0
Position2: "Single Positioning lookup 284 subtable" dx=23 dy=0 dh=23 dv=0
Position2: "Single Positioning lookup 282 subtable" dx=58 dy=0 dh=58 dv=0
Position2: "Single Positioning lookup 280 subtable" dx=58 dy=0 dh=58 dv=0
Position2: "Single Positioning lookup 276 subtable" dx=58 dy=0 dh=58 dv=0
Position2: "Single Positioning lookup 275 subtable" dx=58 dy=0 dh=58 dv=0
Position2: "Single Positioning lookup 268 subtable" dx=58 dy=0 dh=58 dv=0
Position2: "Single Positioning lookup 266 subtable" dx=58 dy=0 dh=58 dv=0
Position2: "Single Positioning lookup 262 subtable" dx=58 dy=0 dh=58 dv=0
Position2: "Single Positioning lookup 261 subtable" dx=58 dy=0 dh=58 dv=0
Position2: "Single Positioning lookup 258 subtable" dx=58 dy=0 dh=58 dv=0
Position2: "Single Positioning lookup 257 subtable" dx=58 dy=0 dh=58 dv=0
Position2: "Single Positioning lookup 256 subtable" dx=58 dy=0 dh=58 dv=0
Position2: "Single Positioning lookup 252 subtable" dx=155 dy=0 dh=155 dv=0
Position2: "Single Positioning lookup 250 subtable" dx=155 dy=0 dh=155 dv=0
Position2: "Single Positioning lookup 249 subtable" dx=155 dy=0 dh=155 dv=0
Position2: "Single Positioning lookup 246 subtable" dx=155 dy=0 dh=155 dv=0
Position2: "Single Positioning lookup 245 subtable" dx=155 dy=0 dh=155 dv=0
Position2: "Single Positioning lookup 244 subtable" dx=155 dy=0 dh=155 dv=0
Position2: "Single Positioning lookup 242 subtable" dx=155 dy=0 dh=155 dv=0
Position2: "Single Positioning lookup 241 subtable" dx=155 dy=0 dh=155 dv=0
Position2: "Single Positioning lookup 240 subtable" dx=155 dy=0 dh=155 dv=0
Position2: "Single Positioning lookup 235 subtable" dx=155 dy=0 dh=155 dv=0
Position2: "Single Positioning lookup 234 subtable" dx=155 dy=0 dh=155 dv=0
Position2: "Single Positioning lookup 232 subtable" dx=155 dy=0 dh=155 dv=0
Position2: "Single Positioning lookup 231 subtable" dx=155 dy=0 dh=155 dv=0
Position2: "Single Positioning lookup 230 subtable" dx=155 dy=0 dh=155 dv=0
Position2: "Single Positioning lookup 229 subtable" dx=155 dy=0 dh=155 dv=0
Position2: "Single Positioning lookup 228 subtable" dx=155 dy=0 dh=155 dv=0
Position2: "Single Positioning lookup 226 subtable" dx=155 dy=0 dh=155 dv=0
Position2: "Single Positioning lookup 225 subtable" dx=155 dy=0 dh=155 dv=0
Position2: "Single Positioning lookup 224 subtable" dx=155 dy=0 dh=155 dv=0
Position2: "Single Positioning lookup 223 subtable" dx=155 dy=0 dh=155 dv=0
Position2: "Single Positioning lookup 222 subtable" dx=155 dy=0 dh=155 dv=0
Position2: "Single Positioning lookup 221 subtable" dx=155 dy=0 dh=155 dv=0
Position2: "Single Positioning lookup 219 subtable" dx=155 dy=0 dh=155 dv=0
Position2: "Single Positioning lookup 217 subtable" dx=205 dy=0 dh=205 dv=0
Position2: "Single Positioning lookup 215 subtable" dx=205 dy=0 dh=205 dv=0
Position2: "Single Positioning lookup 214 subtable" dx=205 dy=0 dh=205 dv=0
Position2: "Single Positioning lookup 210 subtable" dx=205 dy=0 dh=205 dv=0
Position2: "Single Positioning lookup 209 subtable" dx=205 dy=0 dh=205 dv=0
Position2: "Single Positioning lookup 208 subtable" dx=205 dy=0 dh=205 dv=0
Position2: "Single Positioning lookup 206 subtable" dx=205 dy=0 dh=205 dv=0
Position2: "Single Positioning lookup 205 subtable" dx=205 dy=0 dh=205 dv=0
Position2: "Single Positioning lookup 204 subtable" dx=205 dy=0 dh=205 dv=0
Position2: "Single Positioning lookup 202 subtable" dx=205 dy=0 dh=205 dv=0
Position2: "Single Positioning lookup 201 subtable" dx=205 dy=0 dh=205 dv=0
Position2: "Single Positioning lookup 200 subtable" dx=205 dy=0 dh=205 dv=0
Position2: "Single Positioning lookup 199 subtable" dx=205 dy=0 dh=205 dv=0
Position2: "Single Positioning lookup 198 subtable" dx=205 dy=0 dh=205 dv=0
Position2: "Single Positioning lookup 196 subtable" dx=205 dy=0 dh=205 dv=0
Position2: "Single Positioning lookup 195 subtable" dx=205 dy=0 dh=205 dv=0
Position2: "Single Positioning lookup 194 subtable" dx=205 dy=0 dh=205 dv=0
Position2: "Single Positioning lookup 193 subtable" dx=205 dy=0 dh=205 dv=0
Position2: "Single Positioning lookup 192 subtable" dx=205 dy=0 dh=205 dv=0
Position2: "Single Positioning lookup 190 subtable" dx=205 dy=0 dh=205 dv=0
Position2: "Single Positioning lookup 189 subtable" dx=205 dy=0 dh=205 dv=0
Position2: "Single Positioning lookup 188 subtable" dx=205 dy=0 dh=205 dv=0
Position2: "Single Positioning lookup 187 subtable" dx=205 dy=0 dh=205 dv=0
Position2: "Single Positioning lookup 186 subtable" dx=205 dy=0 dh=205 dv=0
Position2: "Single Positioning lookup 185 subtable" dx=205 dy=0 dh=205 dv=0
Position2: "Single Positioning lookup 184 subtable" dx=205 dy=0 dh=205 dv=0
Position2: "Single Positioning lookup 183 subtable" dx=205 dy=0 dh=205 dv=0
Position2: "Single Positioning lookup 181 subtable" dx=198 dy=0 dh=198 dv=0
Position2: "Single Positioning lookup 179 subtable" dx=198 dy=0 dh=198 dv=0
Position2: "Single Positioning lookup 178 subtable" dx=198 dy=0 dh=198 dv=0
Position2: "Single Positioning lookup 174 subtable" dx=198 dy=0 dh=198 dv=0
Position2: "Single Positioning lookup 173 subtable" dx=198 dy=0 dh=198 dv=0
Position2: "Single Positioning lookup 172 subtable" dx=198 dy=0 dh=198 dv=0
Position2: "Single Positioning lookup 170 subtable" dx=198 dy=0 dh=198 dv=0
Position2: "Single Positioning lookup 169 subtable" dx=198 dy=0 dh=198 dv=0
Position2: "Single Positioning lookup 168 subtable" dx=198 dy=0 dh=198 dv=0
Position2: "Single Positioning lookup 165 subtable" dx=198 dy=0 dh=198 dv=0
Position2: "Single Positioning lookup 164 subtable" dx=198 dy=0 dh=198 dv=0
Position2: "Single Positioning lookup 163 subtable" dx=198 dy=0 dh=198 dv=0
Position2: "Single Positioning lookup 162 subtable" dx=198 dy=0 dh=198 dv=0
Position2: "Single Positioning lookup 160 subtable" dx=198 dy=0 dh=198 dv=0
Position2: "Single Positioning lookup 159 subtable" dx=198 dy=0 dh=198 dv=0
Position2: "Single Positioning lookup 158 subtable" dx=198 dy=0 dh=198 dv=0
Position2: "Single Positioning lookup 157 subtable" dx=198 dy=0 dh=198 dv=0
Position2: "Single Positioning lookup 156 subtable" dx=198 dy=0 dh=198 dv=0
Position2: "Single Positioning lookup 154 subtable" dx=198 dy=0 dh=198 dv=0
Position2: "Single Positioning lookup 153 subtable" dx=198 dy=0 dh=198 dv=0
Position2: "Single Positioning lookup 152 subtable" dx=198 dy=0 dh=198 dv=0
Position2: "Single Positioning lookup 151 subtable" dx=198 dy=0 dh=198 dv=0
Position2: "Single Positioning lookup 150 subtable" dx=198 dy=0 dh=198 dv=0
Position2: "Single Positioning lookup 149 subtable" dx=198 dy=0 dh=198 dv=0
Position2: "Single Positioning lookup 148 subtable" dx=198 dy=0 dh=198 dv=0
Position2: "Single Positioning lookup 147 subtable" dx=198 dy=0 dh=198 dv=0
Position2: "Single Positioning lookup 39 subtable" dx=39 dy=0 dh=39 dv=0
Position2: "Single Positioning lookup 38 subtable" dx=49 dy=0 dh=49 dv=0
Position2: "Single Positioning lookup 37 subtable" dx=17 dy=0 dh=17 dv=0
Position2: "Single Positioning lookup 34 subtable" dx=0 dy=0 dh=426 dv=0
Position2: "Single Positioning lookup 33 subtable" dx=42 dy=0 dh=42 dv=0
Position2: "Single Positioning lookup 31 subtable" dx=0 dy=0 dh=272 dv=0
Position2: "Single Positioning lookup 30 subtable" dx=93 dy=0 dh=93 dv=0
Position2: "Single Positioning lookup 25 subtable" dx=138 dy=0 dh=138 dv=0
Position2: "Single Positioning lookup 12 subtable" dx=0 dy=0 dh=202 dv=0
Position2: "Single Positioning lookup 11 subtable" dx=1 dy=0 dh=1 dv=0
Position2: "Single Positioning lookup 7 subtable" dx=128 dy=0 dh=128 dv=0
Position2: "Single Positioning lookup 6 subtable" dx=214 dy=0 dh=214 dv=0
Position2: "Single Positioning lookup 5 subtable" dx=114 dy=0 dh=114 dv=0
EndChar

StartChar: uni1B1C
Encoding: 6940 6940 34
Width: 930
GlyphClass: 2
Flags: W
AnchorPoint: "Anchor-2" 628 0 basechar 0
AnchorPoint: "Anchor-0" 477 490 basechar 0
LayerCount: 2
Fore
SplineSet
724 420 m 1,0,1
 910 402 910 402 910 233 c 0,2,3
 910 150 910 150 847 76 c 128,-1,4
 784 2 784 2 721 2 c 0,5,6
 673 2 673 2 629 49 c 1,7,8
 660 45 660 45 687 45 c 0,9,10
 777 45 777 45 827.5 96.5 c 128,-1,11
 878 148 878 148 878 228 c 0,12,13
 878 366 878 366 731 385 c 1,14,-1
 717 385 l 2,15,16
 589 385 589 385 547.5 308.5 c 128,-1,17
 506 232 506 232 493 131.5 c 128,-1,18
 480 31 480 31 472.5 16 c 128,-1,19
 465 1 465 1 453 1 c 1,20,21
 458 134 458 134 458 253 c 1,22,23
 451 379 451 379 410 379 c 0,24,25
 342 379 342 379 326 221 c 1,26,-1
 311 221 l 1,27,28
 300 363 300 363 231 363 c 0,29,30
 170 362 170 362 170 270 c 2,31,-1
 170 263 l 2,32,33
 170 184 170 184 207 25 c 1,34,35
 180 13 180 13 147 13 c 0,36,37
 91 13 91 13 66 37.5 c 128,-1,38
 41 62 41 62 41 119 c 0,39,40
 41 170 41 170 77 277 c 1,41,42
 34 246 34 246 29 218 c 1,43,44
 21 224 21 224 20 235 c 0,45,46
 20 291 20 291 91 313 c 1,47,48
 107 313 107 313 112 277 c 1,49,50
 68 148 68 148 68 108 c 1,51,52
 76 46 76 46 132 46 c 0,53,54
 148 46 148 46 169 51 c 1,55,56
 134 201 134 201 134 270 c 0,57,58
 134 371 134 371 226 391 c 1,59,-1
 242 392 l 2,60,61
 293 392 293 392 318 341 c 1,62,63
 349 406 349 406 403 412 c 1,64,65
 491 412 491 412 488 228 c 1,66,67
 500 301 500 301 553 360.5 c 128,-1,68
 606 420 606 420 724 420 c 1,0,1
EndSplineSet
MultipleSubs2: "Multiple Substitution lookup 320 subtable" uni1B1C _reorder
MultipleSubs2: "Multiple Substitution lookup 264 subtable" uni1B1C _reorder
MultipleSubs2: "Multiple Substitution lookup 208 subtable" uni1B1C _reorder
MultipleSubs2: "Multiple Substitution lookup 147 subtable" uni1B1C _reorder
MultipleSubs2: "Multiple Substitution lookup 91 subtable" uni1B1C _reorder
MultipleSubs2: "Multiple Substitution lookup 35 subtable" uni1B1C _reorder
Position2: "Single Positioning lookup 329 subtable" dx=5 dy=0 dh=5 dv=0
Position2: "Single Positioning lookup 328 subtable" dx=5 dy=0 dh=5 dv=0
Position2: "Single Positioning lookup 306 subtable" dx=23 dy=0 dh=23 dv=0
Position2: "Single Positioning lookup 305 subtable" dx=23 dy=0 dh=23 dv=0
Position2: "Single Positioning lookup 290 subtable" dx=23 dy=0 dh=23 dv=0
Position2: "Single Positioning lookup 282 subtable" dx=58 dy=0 dh=58 dv=0
Position2: "Single Positioning lookup 280 subtable" dx=58 dy=0 dh=58 dv=0
Position2: "Single Positioning lookup 262 subtable" dx=58 dy=0 dh=58 dv=0
Position2: "Single Positioning lookup 257 subtable" dx=58 dy=0 dh=58 dv=0
Position2: "Single Positioning lookup 252 subtable" dx=155 dy=0 dh=155 dv=0
Position2: "Single Positioning lookup 250 subtable" dx=155 dy=0 dh=155 dv=0
Position2: "Single Positioning lookup 244 subtable" dx=155 dy=0 dh=155 dv=0
Position2: "Single Positioning lookup 228 subtable" dx=155 dy=0 dh=155 dv=0
Position2: "Single Positioning lookup 223 subtable" dx=155 dy=0 dh=155 dv=0
Position2: "Single Positioning lookup 222 subtable" dx=155 dy=0 dh=155 dv=0
Position2: "Single Positioning lookup 221 subtable" dx=155 dy=0 dh=155 dv=0
Position2: "Single Positioning lookup 217 subtable" dx=205 dy=0 dh=205 dv=0
Position2: "Single Positioning lookup 215 subtable" dx=205 dy=0 dh=205 dv=0
Position2: "Single Positioning lookup 208 subtable" dx=205 dy=0 dh=205 dv=0
Position2: "Single Positioning lookup 192 subtable" dx=205 dy=0 dh=205 dv=0
Position2: "Single Positioning lookup 187 subtable" dx=205 dy=0 dh=205 dv=0
Position2: "Single Positioning lookup 186 subtable" dx=205 dy=0 dh=205 dv=0
Position2: "Single Positioning lookup 185 subtable" dx=205 dy=0 dh=205 dv=0
Position2: "Single Positioning lookup 181 subtable" dx=198 dy=0 dh=198 dv=0
Position2: "Single Positioning lookup 179 subtable" dx=198 dy=0 dh=198 dv=0
Position2: "Single Positioning lookup 172 subtable" dx=198 dy=0 dh=198 dv=0
Position2: "Single Positioning lookup 156 subtable" dx=198 dy=0 dh=198 dv=0
Position2: "Single Positioning lookup 151 subtable" dx=198 dy=0 dh=198 dv=0
Position2: "Single Positioning lookup 150 subtable" dx=198 dy=0 dh=198 dv=0
Position2: "Single Positioning lookup 149 subtable" dx=198 dy=0 dh=198 dv=0
Position2: "Single Positioning lookup 34 subtable" dx=0 dy=0 dh=203 dv=0
Position2: "Single Positioning lookup 33 subtable" dx=22 dy=0 dh=22 dv=0
Position2: "Single Positioning lookup 31 subtable" dx=0 dy=0 dh=49 dv=0
Position2: "Single Positioning lookup 30 subtable" dx=73 dy=0 dh=73 dv=0
EndChar

StartChar: uni1B1D
Encoding: 6941 6941 35
Width: 618
GlyphClass: 2
Flags: W
AnchorPoint: "Anchor-2" 462 0 basechar 0
AnchorPoint: "Anchor-0" 426 490 basechar 0
LayerCount: 2
Fore
SplineSet
502 1 m 1,0,1
 529 192 529 192 533 275 c 1,2,3
 533 393 533 393 423 393 c 1,4,5
 359 389 359 389 286 295 c 1,6,7
 284 301 284 301 284 308 c 0,8,9
 284 333 284 333 314 368 c 0,10,11
 358 417 358 417 423 421 c 1,12,13
 562 421 562 421 570 312 c 1,14,15
 570 246 570 246 548.5 123.5 c 128,-1,16
 527 1 527 1 502 1 c 1,0,1
284 28 m 1,17,18
 338 35 338 35 371.5 64 c 128,-1,19
 405 93 405 93 405 119 c 0,20,21
 403 142 403 142 376 142 c 2,22,-1
 369 142 l 1,23,24
 291 133 291 133 284 28 c 1,17,18
584 -346 m 0,25,26
 542 -346 542 -346 447.5 -310.5 c 128,-1,27
 353 -275 353 -275 301.5 -194.5 c 128,-1,28
 250 -114 250 -114 250 -2 c 1,29,30
 219 -6 219 -6 192 -6 c 0,31,32
 55 -6 55 -6 49 91 c 1,33,34
 49 178 49 178 183 344 c 1,35,36
 164 352 164 352 151 352 c 0,37,38
 77 352 77 352 59 212 c 1,39,40
 40 212 40 212 40 231 c 0,41,42
 40 303 40 303 70 342 c 128,-1,43
 100 381 100 381 147 381 c 0,44,45
 212 381 212 381 218 339 c 1,46,47
 203 317 203 317 172.5 280 c 128,-1,48
 142 243 142 243 112.5 188 c 128,-1,49
 83 133 83 133 83 103 c 0,50,51
 83 22 83 22 204 22 c 0,52,53
 227 22 227 22 254 25 c 1,54,55
 265 101 265 101 301.5 136 c 128,-1,56
 338 171 338 171 382 171 c 2,57,-1
 389 171 l 1,58,59
 431 167 431 167 438 132 c 2,60,-1
 439 123 l 2,61,62
 439 91 439 91 402 54 c 0,63,64
 360 12 360 12 281 0 c 1,65,-1
 281 -34 l 1,66,67
 291 -256 291 -256 609 -339 c 1,68,69
 600 -346 600 -346 584 -346 c 0,25,26
EndSplineSet
MultipleSubs2: "Multiple Substitution lookup 321 subtable" uni1B1D _reorder
MultipleSubs2: "Multiple Substitution lookup 265 subtable" uni1B1D _reorder
MultipleSubs2: "Multiple Substitution lookup 209 subtable" uni1B1D _reorder
MultipleSubs2: "Multiple Substitution lookup 148 subtable" uni1B1D _reorder
MultipleSubs2: "Multiple Substitution lookup 92 subtable" uni1B1D _reorder
MultipleSubs2: "Multiple Substitution lookup 36 subtable" uni1B1D _reorder
Position2: "Single Positioning lookup 329 subtable" dx=5 dy=0 dh=5 dv=0
Position2: "Single Positioning lookup 328 subtable" dx=5 dy=0 dh=5 dv=0
Position2: "Single Positioning lookup 325 subtable" dx=5 dy=0 dh=5 dv=0
Position2: "Single Positioning lookup 324 subtable" dx=5 dy=0 dh=5 dv=0
Position2: "Single Positioning lookup 320 subtable" dx=5 dy=0 dh=5 dv=0
Position2: "Single Positioning lookup 318 subtable" dx=5 dy=0 dh=5 dv=0
Position2: "Single Positioning lookup 314 subtable" dx=5 dy=0 dh=5 dv=0
Position2: "Single Positioning lookup 313 subtable" dx=5 dy=0 dh=5 dv=0
Position2: "Single Positioning lookup 312 subtable" dx=5 dy=0 dh=5 dv=0
Position2: "Single Positioning lookup 310 subtable" dx=5 dy=0 dh=5 dv=0
Position2: "Single Positioning lookup 309 subtable" dx=5 dy=0 dh=5 dv=0
Position2: "Single Positioning lookup 308 subtable" dx=5 dy=0 dh=5 dv=0
Position2: "Single Positioning lookup 306 subtable" dx=23 dy=0 dh=23 dv=0
Position2: "Single Positioning lookup 305 subtable" dx=23 dy=0 dh=23 dv=0
Position2: "Single Positioning lookup 304 subtable" dx=23 dy=0 dh=23 dv=0
Position2: "Single Positioning lookup 303 subtable" dx=23 dy=0 dh=23 dv=0
Position2: "Single Positioning lookup 302 subtable" dx=23 dy=0 dh=23 dv=0
Position2: "Single Positioning lookup 301 subtable" dx=23 dy=0 dh=23 dv=0
Position2: "Single Positioning lookup 299 subtable" dx=23 dy=0 dh=23 dv=0
Position2: "Single Positioning lookup 296 subtable" dx=23 dy=0 dh=23 dv=0
Position2: "Single Positioning lookup 294 subtable" dx=23 dy=0 dh=23 dv=0
Position2: "Single Positioning lookup 293 subtable" dx=23 dy=0 dh=23 dv=0
Position2: "Single Positioning lookup 292 subtable" dx=23 dy=0 dh=23 dv=0
Position2: "Single Positioning lookup 290 subtable" dx=23 dy=0 dh=23 dv=0
Position2: "Single Positioning lookup 289 subtable" dx=23 dy=0 dh=23 dv=0
Position2: "Single Positioning lookup 288 subtable" dx=23 dy=0 dh=23 dv=0
Position2: "Single Positioning lookup 286 subtable" dx=23 dy=0 dh=23 dv=0
Position2: "Single Positioning lookup 285 subtable" dx=23 dy=0 dh=23 dv=0
Position2: "Single Positioning lookup 284 subtable" dx=23 dy=0 dh=23 dv=0
Position2: "Single Positioning lookup 282 subtable" dx=58 dy=0 dh=58 dv=0
Position2: "Single Positioning lookup 280 subtable" dx=58 dy=0 dh=58 dv=0
Position2: "Single Positioning lookup 279 subtable" dx=58 dy=0 dh=58 dv=0
Position2: "Single Positioning lookup 277 subtable" dx=58 dy=0 dh=58 dv=0
Position2: "Single Positioning lookup 276 subtable" dx=58 dy=0 dh=58 dv=0
Position2: "Single Positioning lookup 275 subtable" dx=58 dy=0 dh=58 dv=0
Position2: "Single Positioning lookup 274 subtable" dx=58 dy=0 dh=58 dv=0
Position2: "Single Positioning lookup 273 subtable" dx=58 dy=0 dh=58 dv=0
Position2: "Single Positioning lookup 272 subtable" dx=58 dy=0 dh=58 dv=0
Position2: "Single Positioning lookup 268 subtable" dx=58 dy=0 dh=58 dv=0
Position2: "Single Positioning lookup 266 subtable" dx=58 dy=0 dh=58 dv=0
Position2: "Single Positioning lookup 265 subtable" dx=58 dy=0 dh=58 dv=0
Position2: "Single Positioning lookup 264 subtable" dx=58 dy=0 dh=58 dv=0
Position2: "Single Positioning lookup 263 subtable" dx=58 dy=0 dh=58 dv=0
Position2: "Single Positioning lookup 262 subtable" dx=58 dy=0 dh=58 dv=0
Position2: "Single Positioning lookup 261 subtable" dx=58 dy=0 dh=58 dv=0
Position2: "Single Positioning lookup 260 subtable" dx=58 dy=0 dh=58 dv=0
Position2: "Single Positioning lookup 258 subtable" dx=58 dy=0 dh=58 dv=0
Position2: "Single Positioning lookup 257 subtable" dx=58 dy=0 dh=58 dv=0
Position2: "Single Positioning lookup 256 subtable" dx=58 dy=0 dh=58 dv=0
Position2: "Single Positioning lookup 252 subtable" dx=155 dy=0 dh=155 dv=0
Position2: "Single Positioning lookup 251 subtable" dx=155 dy=0 dh=155 dv=0
Position2: "Single Positioning lookup 250 subtable" dx=155 dy=0 dh=155 dv=0
Position2: "Single Positioning lookup 249 subtable" dx=155 dy=0 dh=155 dv=0
Position2: "Single Positioning lookup 247 subtable" dx=155 dy=0 dh=155 dv=0
Position2: "Single Positioning lookup 246 subtable" dx=155 dy=0 dh=155 dv=0
Position2: "Single Positioning lookup 245 subtable" dx=155 dy=0 dh=155 dv=0
Position2: "Single Positioning lookup 244 subtable" dx=155 dy=0 dh=155 dv=0
Position2: "Single Positioning lookup 242 subtable" dx=155 dy=0 dh=155 dv=0
Position2: "Single Positioning lookup 241 subtable" dx=155 dy=0 dh=155 dv=0
Position2: "Single Positioning lookup 240 subtable" dx=155 dy=0 dh=155 dv=0
Position2: "Single Positioning lookup 238 subtable" dx=155 dy=0 dh=155 dv=0
Position2: "Single Positioning lookup 237 subtable" dx=155 dy=0 dh=155 dv=0
Position2: "Single Positioning lookup 236 subtable" dx=155 dy=0 dh=155 dv=0
Position2: "Single Positioning lookup 235 subtable" dx=155 dy=0 dh=155 dv=0
Position2: "Single Positioning lookup 234 subtable" dx=155 dy=0 dh=155 dv=0
Position2: "Single Positioning lookup 232 subtable" dx=155 dy=0 dh=155 dv=0
Position2: "Single Positioning lookup 231 subtable" dx=155 dy=0 dh=155 dv=0
Position2: "Single Positioning lookup 230 subtable" dx=155 dy=0 dh=155 dv=0
Position2: "Single Positioning lookup 229 subtable" dx=155 dy=0 dh=155 dv=0
Position2: "Single Positioning lookup 228 subtable" dx=155 dy=0 dh=155 dv=0
Position2: "Single Positioning lookup 226 subtable" dx=155 dy=0 dh=155 dv=0
Position2: "Single Positioning lookup 225 subtable" dx=155 dy=0 dh=155 dv=0
Position2: "Single Positioning lookup 224 subtable" dx=155 dy=0 dh=155 dv=0
Position2: "Single Positioning lookup 223 subtable" dx=155 dy=0 dh=155 dv=0
Position2: "Single Positioning lookup 222 subtable" dx=155 dy=0 dh=155 dv=0
Position2: "Single Positioning lookup 221 subtable" dx=155 dy=0 dh=155 dv=0
Position2: "Single Positioning lookup 220 subtable" dx=155 dy=0 dh=155 dv=0
Position2: "Single Positioning lookup 219 subtable" dx=155 dy=0 dh=155 dv=0
Position2: "Single Positioning lookup 218 subtable" dx=155 dy=0 dh=155 dv=0
Position2: "Single Positioning lookup 217 subtable" dx=205 dy=0 dh=205 dv=0
Position2: "Single Positioning lookup 216 subtable" dx=205 dy=0 dh=205 dv=0
Position2: "Single Positioning lookup 215 subtable" dx=205 dy=0 dh=205 dv=0
Position2: "Single Positioning lookup 214 subtable" dx=205 dy=0 dh=205 dv=0
Position2: "Single Positioning lookup 211 subtable" dx=205 dy=0 dh=205 dv=0
Position2: "Single Positioning lookup 210 subtable" dx=205 dy=0 dh=205 dv=0
Position2: "Single Positioning lookup 209 subtable" dx=205 dy=0 dh=205 dv=0
Position2: "Single Positioning lookup 208 subtable" dx=205 dy=0 dh=205 dv=0
Position2: "Single Positioning lookup 207 subtable" dx=205 dy=0 dh=205 dv=0
Position2: "Single Positioning lookup 206 subtable" dx=205 dy=0 dh=205 dv=0
Position2: "Single Positioning lookup 205 subtable" dx=205 dy=0 dh=205 dv=0
Position2: "Single Positioning lookup 204 subtable" dx=205 dy=0 dh=205 dv=0
Position2: "Single Positioning lookup 203 subtable" dx=205 dy=0 dh=205 dv=0
Position2: "Single Positioning lookup 202 subtable" dx=205 dy=0 dh=205 dv=0
Position2: "Single Positioning lookup 201 subtable" dx=205 dy=0 dh=205 dv=0
Position2: "Single Positioning lookup 200 subtable" dx=205 dy=0 dh=205 dv=0
Position2: "Single Positioning lookup 199 subtable" dx=205 dy=0 dh=205 dv=0
Position2: "Single Positioning lookup 198 subtable" dx=205 dy=0 dh=205 dv=0
Position2: "Single Positioning lookup 197 subtable" dx=205 dy=0 dh=205 dv=0
Position2: "Single Positioning lookup 196 subtable" dx=205 dy=0 dh=205 dv=0
Position2: "Single Positioning lookup 195 subtable" dx=205 dy=0 dh=205 dv=0
Position2: "Single Positioning lookup 194 subtable" dx=205 dy=0 dh=205 dv=0
Position2: "Single Positioning lookup 193 subtable" dx=205 dy=0 dh=205 dv=0
Position2: "Single Positioning lookup 192 subtable" dx=205 dy=0 dh=205 dv=0
Position2: "Single Positioning lookup 191 subtable" dx=205 dy=0 dh=205 dv=0
Position2: "Single Positioning lookup 190 subtable" dx=205 dy=0 dh=205 dv=0
Position2: "Single Positioning lookup 189 subtable" dx=205 dy=0 dh=205 dv=0
Position2: "Single Positioning lookup 188 subtable" dx=205 dy=0 dh=205 dv=0
Position2: "Single Positioning lookup 187 subtable" dx=205 dy=0 dh=205 dv=0
Position2: "Single Positioning lookup 186 subtable" dx=205 dy=0 dh=205 dv=0
Position2: "Single Positioning lookup 185 subtable" dx=205 dy=0 dh=205 dv=0
Position2: "Single Positioning lookup 184 subtable" dx=205 dy=0 dh=205 dv=0
Position2: "Single Positioning lookup 183 subtable" dx=205 dy=0 dh=205 dv=0
Position2: "Single Positioning lookup 182 subtable" dx=205 dy=0 dh=205 dv=0
Position2: "Single Positioning lookup 181 subtable" dx=198 dy=0 dh=198 dv=0
Position2: "Single Positioning lookup 180 subtable" dx=198 dy=0 dh=198 dv=0
Position2: "Single Positioning lookup 179 subtable" dx=198 dy=0 dh=198 dv=0
Position2: "Single Positioning lookup 178 subtable" dx=198 dy=0 dh=198 dv=0
Position2: "Single Positioning lookup 175 subtable" dx=198 dy=0 dh=198 dv=0
Position2: "Single Positioning lookup 174 subtable" dx=198 dy=0 dh=198 dv=0
Position2: "Single Positioning lookup 173 subtable" dx=198 dy=0 dh=198 dv=0
Position2: "Single Positioning lookup 172 subtable" dx=198 dy=0 dh=198 dv=0
Position2: "Single Positioning lookup 170 subtable" dx=198 dy=0 dh=198 dv=0
Position2: "Single Positioning lookup 169 subtable" dx=198 dy=0 dh=198 dv=0
Position2: "Single Positioning lookup 168 subtable" dx=198 dy=0 dh=198 dv=0
Position2: "Single Positioning lookup 167 subtable" dx=198 dy=0 dh=198 dv=0
Position2: "Single Positioning lookup 166 subtable" dx=198 dy=0 dh=198 dv=0
Position2: "Single Positioning lookup 165 subtable" dx=198 dy=0 dh=198 dv=0
Position2: "Single Positioning lookup 164 subtable" dx=198 dy=0 dh=198 dv=0
Position2: "Single Positioning lookup 163 subtable" dx=198 dy=0 dh=198 dv=0
Position2: "Single Positioning lookup 162 subtable" dx=198 dy=0 dh=198 dv=0
Position2: "Single Positioning lookup 161 subtable" dx=198 dy=0 dh=198 dv=0
Position2: "Single Positioning lookup 160 subtable" dx=198 dy=0 dh=198 dv=0
Position2: "Single Positioning lookup 159 subtable" dx=198 dy=0 dh=198 dv=0
Position2: "Single Positioning lookup 158 subtable" dx=198 dy=0 dh=198 dv=0
Position2: "Single Positioning lookup 157 subtable" dx=198 dy=0 dh=198 dv=0
Position2: "Single Positioning lookup 156 subtable" dx=198 dy=0 dh=198 dv=0
Position2: "Single Positioning lookup 155 subtable" dx=198 dy=0 dh=198 dv=0
Position2: "Single Positioning lookup 154 subtable" dx=198 dy=0 dh=198 dv=0
Position2: "Single Positioning lookup 153 subtable" dx=198 dy=0 dh=198 dv=0
Position2: "Single Positioning lookup 152 subtable" dx=198 dy=0 dh=198 dv=0
Position2: "Single Positioning lookup 151 subtable" dx=198 dy=0 dh=198 dv=0
Position2: "Single Positioning lookup 150 subtable" dx=198 dy=0 dh=198 dv=0
Position2: "Single Positioning lookup 149 subtable" dx=198 dy=0 dh=198 dv=0
Position2: "Single Positioning lookup 148 subtable" dx=198 dy=0 dh=198 dv=0
Position2: "Single Positioning lookup 147 subtable" dx=198 dy=0 dh=198 dv=0
Position2: "Single Positioning lookup 146 subtable" dx=198 dy=0 dh=198 dv=0
Position2: "Single Positioning lookup 40 subtable" dx=25 dy=0 dh=25 dv=0
Position2: "Single Positioning lookup 39 subtable" dx=108 dy=0 dh=108 dv=0
Position2: "Single Positioning lookup 38 subtable" dx=118 dy=0 dh=118 dv=0
Position2: "Single Positioning lookup 37 subtable" dx=86 dy=0 dh=86 dv=0
Position2: "Single Positioning lookup 34 subtable" dx=0 dy=0 dh=349 dv=0
Position2: "Single Positioning lookup 33 subtable" dx=188 dy=0 dh=188 dv=0
Position2: "Single Positioning lookup 31 subtable" dx=0 dy=0 dh=195 dv=0
Position2: "Single Positioning lookup 30 subtable" dx=239 dy=0 dh=239 dv=0
Position2: "Single Positioning lookup 26 subtable" dx=25 dy=0 dh=25 dv=0
Position2: "Single Positioning lookup 25 subtable" dx=207 dy=0 dh=207 dv=0
Position2: "Single Positioning lookup 18 subtable" dx=26 dy=0 dh=26 dv=0
Position2: "Single Positioning lookup 16 subtable" dx=69 dy=0 dh=69 dv=0
Position2: "Single Positioning lookup 12 subtable" dx=0 dy=0 dh=125 dv=0
Position2: "Single Positioning lookup 11 subtable" dx=147 dy=0 dh=147 dv=0
Position2: "Single Positioning lookup 10 subtable" dx=43 dy=0 dh=43 dv=0
Position2: "Single Positioning lookup 9 subtable" dx=5 dy=0 dh=5 dv=0
Position2: "Single Positioning lookup 7 subtable" dx=197 dy=0 dh=197 dv=0
Position2: "Single Positioning lookup 6 subtable" dx=283 dy=0 dh=283 dv=0
Position2: "Single Positioning lookup 5 subtable" dx=183 dy=0 dh=183 dv=0
EndChar

StartChar: uni1B1E
Encoding: 6942 6942 36
Width: 618
GlyphClass: 2
Flags: W
AnchorPoint: "Anchor-2" 462 0 basechar 0
AnchorPoint: "Anchor-0" 440 490 basechar 0
LayerCount: 2
Fore
SplineSet
502 1 m 1,0,1
 529 192 529 192 533 275 c 1,2,3
 533 393 533 393 423 393 c 1,4,5
 359 389 359 389 286 295 c 1,6,7
 284 301 284 301 284 308 c 0,8,9
 284 333 284 333 314 368 c 0,10,11
 358 417 358 417 423 421 c 1,12,13
 562 421 562 421 570 312 c 1,14,15
 570 246 570 246 548.5 123.5 c 128,-1,16
 527 1 527 1 502 1 c 1,0,1
284 28 m 1,17,18
 338 35 338 35 371.5 64 c 128,-1,19
 405 93 405 93 405 119 c 0,20,21
 403 142 403 142 376 142 c 2,22,-1
 369 142 l 1,23,24
 291 133 291 133 284 28 c 1,17,18
250 -2 m 0,25,26
 219 -6 219 -6 192 -6 c 0,27,28
 55 -6 55 -6 49 91 c 1,29,30
 49 178 49 178 183 344 c 1,31,32
 164 352 164 352 151 352 c 0,33,34
 77 352 77 352 59 212 c 1,35,36
 40 212 40 212 40 231 c 0,37,38
 40 303 40 303 70 342 c 128,-1,39
 100 381 100 381 147 381 c 0,40,41
 212 381 212 381 218 339 c 1,42,43
 203 317 203 317 172.5 280 c 128,-1,44
 142 243 142 243 112.5 188 c 128,-1,45
 83 133 83 133 83 103 c 0,46,47
 83 22 83 22 204 22 c 0,48,49
 227 22 227 22 254 25 c 1,50,51
 265 101 265 101 301.5 136 c 128,-1,52
 338 171 338 171 382 171 c 2,53,-1
 389 171 l 1,54,55
 431 167 431 167 438 132 c 2,56,-1
 439 123 l 2,57,58
 439 91 439 91 402 54 c 0,59,60
 360 12 360 12 250 -2 c 0,25,26
EndSplineSet
MultipleSubs2: "Multiple Substitution lookup 322 subtable" uni1B1E _reorder
MultipleSubs2: "Multiple Substitution lookup 266 subtable" uni1B1E _reorder
MultipleSubs2: "Multiple Substitution lookup 210 subtable" uni1B1E _reorder
MultipleSubs2: "Multiple Substitution lookup 149 subtable" uni1B1E _reorder
MultipleSubs2: "Multiple Substitution lookup 93 subtable" uni1B1E _reorder
MultipleSubs2: "Multiple Substitution lookup 37 subtable" uni1B1E _reorder
Position2: "Single Positioning lookup 329 subtable" dx=5 dy=0 dh=5 dv=0
Position2: "Single Positioning lookup 328 subtable" dx=5 dy=0 dh=5 dv=0
Position2: "Single Positioning lookup 325 subtable" dx=5 dy=0 dh=5 dv=0
Position2: "Single Positioning lookup 324 subtable" dx=5 dy=0 dh=5 dv=0
Position2: "Single Positioning lookup 320 subtable" dx=5 dy=0 dh=5 dv=0
Position2: "Single Positioning lookup 318 subtable" dx=5 dy=0 dh=5 dv=0
Position2: "Single Positioning lookup 314 subtable" dx=5 dy=0 dh=5 dv=0
Position2: "Single Positioning lookup 313 subtable" dx=5 dy=0 dh=5 dv=0
Position2: "Single Positioning lookup 312 subtable" dx=5 dy=0 dh=5 dv=0
Position2: "Single Positioning lookup 310 subtable" dx=5 dy=0 dh=5 dv=0
Position2: "Single Positioning lookup 309 subtable" dx=5 dy=0 dh=5 dv=0
Position2: "Single Positioning lookup 308 subtable" dx=5 dy=0 dh=5 dv=0
Position2: "Single Positioning lookup 306 subtable" dx=23 dy=0 dh=23 dv=0
Position2: "Single Positioning lookup 305 subtable" dx=23 dy=0 dh=23 dv=0
Position2: "Single Positioning lookup 304 subtable" dx=23 dy=0 dh=23 dv=0
Position2: "Single Positioning lookup 303 subtable" dx=23 dy=0 dh=23 dv=0
Position2: "Single Positioning lookup 302 subtable" dx=23 dy=0 dh=23 dv=0
Position2: "Single Positioning lookup 301 subtable" dx=23 dy=0 dh=23 dv=0
Position2: "Single Positioning lookup 299 subtable" dx=23 dy=0 dh=23 dv=0
Position2: "Single Positioning lookup 296 subtable" dx=23 dy=0 dh=23 dv=0
Position2: "Single Positioning lookup 294 subtable" dx=23 dy=0 dh=23 dv=0
Position2: "Single Positioning lookup 293 subtable" dx=23 dy=0 dh=23 dv=0
Position2: "Single Positioning lookup 292 subtable" dx=23 dy=0 dh=23 dv=0
Position2: "Single Positioning lookup 290 subtable" dx=23 dy=0 dh=23 dv=0
Position2: "Single Positioning lookup 289 subtable" dx=23 dy=0 dh=23 dv=0
Position2: "Single Positioning lookup 288 subtable" dx=23 dy=0 dh=23 dv=0
Position2: "Single Positioning lookup 286 subtable" dx=23 dy=0 dh=23 dv=0
Position2: "Single Positioning lookup 285 subtable" dx=23 dy=0 dh=23 dv=0
Position2: "Single Positioning lookup 284 subtable" dx=23 dy=0 dh=23 dv=0
Position2: "Single Positioning lookup 282 subtable" dx=58 dy=0 dh=58 dv=0
Position2: "Single Positioning lookup 280 subtable" dx=58 dy=0 dh=58 dv=0
Position2: "Single Positioning lookup 279 subtable" dx=58 dy=0 dh=58 dv=0
Position2: "Single Positioning lookup 277 subtable" dx=58 dy=0 dh=58 dv=0
Position2: "Single Positioning lookup 276 subtable" dx=58 dy=0 dh=58 dv=0
Position2: "Single Positioning lookup 275 subtable" dx=58 dy=0 dh=58 dv=0
Position2: "Single Positioning lookup 274 subtable" dx=58 dy=0 dh=58 dv=0
Position2: "Single Positioning lookup 273 subtable" dx=58 dy=0 dh=58 dv=0
Position2: "Single Positioning lookup 272 subtable" dx=58 dy=0 dh=58 dv=0
Position2: "Single Positioning lookup 268 subtable" dx=58 dy=0 dh=58 dv=0
Position2: "Single Positioning lookup 266 subtable" dx=58 dy=0 dh=58 dv=0
Position2: "Single Positioning lookup 265 subtable" dx=58 dy=0 dh=58 dv=0
Position2: "Single Positioning lookup 264 subtable" dx=58 dy=0 dh=58 dv=0
Position2: "Single Positioning lookup 263 subtable" dx=58 dy=0 dh=58 dv=0
Position2: "Single Positioning lookup 262 subtable" dx=58 dy=0 dh=58 dv=0
Position2: "Single Positioning lookup 261 subtable" dx=58 dy=0 dh=58 dv=0
Position2: "Single Positioning lookup 260 subtable" dx=58 dy=0 dh=58 dv=0
Position2: "Single Positioning lookup 258 subtable" dx=58 dy=0 dh=58 dv=0
Position2: "Single Positioning lookup 257 subtable" dx=58 dy=0 dh=58 dv=0
Position2: "Single Positioning lookup 256 subtable" dx=58 dy=0 dh=58 dv=0
Position2: "Single Positioning lookup 252 subtable" dx=155 dy=0 dh=155 dv=0
Position2: "Single Positioning lookup 251 subtable" dx=155 dy=0 dh=155 dv=0
Position2: "Single Positioning lookup 250 subtable" dx=155 dy=0 dh=155 dv=0
Position2: "Single Positioning lookup 249 subtable" dx=155 dy=0 dh=155 dv=0
Position2: "Single Positioning lookup 247 subtable" dx=155 dy=0 dh=155 dv=0
Position2: "Single Positioning lookup 246 subtable" dx=155 dy=0 dh=155 dv=0
Position2: "Single Positioning lookup 245 subtable" dx=155 dy=0 dh=155 dv=0
Position2: "Single Positioning lookup 244 subtable" dx=155 dy=0 dh=155 dv=0
Position2: "Single Positioning lookup 242 subtable" dx=155 dy=0 dh=155 dv=0
Position2: "Single Positioning lookup 241 subtable" dx=155 dy=0 dh=155 dv=0
Position2: "Single Positioning lookup 240 subtable" dx=155 dy=0 dh=155 dv=0
Position2: "Single Positioning lookup 238 subtable" dx=155 dy=0 dh=155 dv=0
Position2: "Single Positioning lookup 237 subtable" dx=155 dy=0 dh=155 dv=0
Position2: "Single Positioning lookup 236 subtable" dx=155 dy=0 dh=155 dv=0
Position2: "Single Positioning lookup 235 subtable" dx=155 dy=0 dh=155 dv=0
Position2: "Single Positioning lookup 234 subtable" dx=155 dy=0 dh=155 dv=0
Position2: "Single Positioning lookup 232 subtable" dx=155 dy=0 dh=155 dv=0
Position2: "Single Positioning lookup 231 subtable" dx=155 dy=0 dh=155 dv=0
Position2: "Single Positioning lookup 230 subtable" dx=155 dy=0 dh=155 dv=0
Position2: "Single Positioning lookup 229 subtable" dx=155 dy=0 dh=155 dv=0
Position2: "Single Positioning lookup 228 subtable" dx=155 dy=0 dh=155 dv=0
Position2: "Single Positioning lookup 226 subtable" dx=155 dy=0 dh=155 dv=0
Position2: "Single Positioning lookup 225 subtable" dx=155 dy=0 dh=155 dv=0
Position2: "Single Positioning lookup 224 subtable" dx=155 dy=0 dh=155 dv=0
Position2: "Single Positioning lookup 223 subtable" dx=155 dy=0 dh=155 dv=0
Position2: "Single Positioning lookup 222 subtable" dx=155 dy=0 dh=155 dv=0
Position2: "Single Positioning lookup 221 subtable" dx=155 dy=0 dh=155 dv=0
Position2: "Single Positioning lookup 220 subtable" dx=155 dy=0 dh=155 dv=0
Position2: "Single Positioning lookup 219 subtable" dx=155 dy=0 dh=155 dv=0
Position2: "Single Positioning lookup 218 subtable" dx=155 dy=0 dh=155 dv=0
Position2: "Single Positioning lookup 217 subtable" dx=205 dy=0 dh=205 dv=0
Position2: "Single Positioning lookup 216 subtable" dx=205 dy=0 dh=205 dv=0
Position2: "Single Positioning lookup 215 subtable" dx=205 dy=0 dh=205 dv=0
Position2: "Single Positioning lookup 214 subtable" dx=205 dy=0 dh=205 dv=0
Position2: "Single Positioning lookup 211 subtable" dx=205 dy=0 dh=205 dv=0
Position2: "Single Positioning lookup 210 subtable" dx=205 dy=0 dh=205 dv=0
Position2: "Single Positioning lookup 209 subtable" dx=205 dy=0 dh=205 dv=0
Position2: "Single Positioning lookup 208 subtable" dx=205 dy=0 dh=205 dv=0
Position2: "Single Positioning lookup 207 subtable" dx=205 dy=0 dh=205 dv=0
Position2: "Single Positioning lookup 206 subtable" dx=205 dy=0 dh=205 dv=0
Position2: "Single Positioning lookup 205 subtable" dx=205 dy=0 dh=205 dv=0
Position2: "Single Positioning lookup 204 subtable" dx=205 dy=0 dh=205 dv=0
Position2: "Single Positioning lookup 203 subtable" dx=205 dy=0 dh=205 dv=0
Position2: "Single Positioning lookup 202 subtable" dx=205 dy=0 dh=205 dv=0
Position2: "Single Positioning lookup 201 subtable" dx=205 dy=0 dh=205 dv=0
Position2: "Single Positioning lookup 200 subtable" dx=205 dy=0 dh=205 dv=0
Position2: "Single Positioning lookup 199 subtable" dx=205 dy=0 dh=205 dv=0
Position2: "Single Positioning lookup 198 subtable" dx=205 dy=0 dh=205 dv=0
Position2: "Single Positioning lookup 197 subtable" dx=205 dy=0 dh=205 dv=0
Position2: "Single Positioning lookup 196 subtable" dx=205 dy=0 dh=205 dv=0
Position2: "Single Positioning lookup 195 subtable" dx=205 dy=0 dh=205 dv=0
Position2: "Single Positioning lookup 194 subtable" dx=205 dy=0 dh=205 dv=0
Position2: "Single Positioning lookup 193 subtable" dx=205 dy=0 dh=205 dv=0
Position2: "Single Positioning lookup 192 subtable" dx=205 dy=0 dh=205 dv=0
Position2: "Single Positioning lookup 191 subtable" dx=205 dy=0 dh=205 dv=0
Position2: "Single Positioning lookup 190 subtable" dx=205 dy=0 dh=205 dv=0
Position2: "Single Positioning lookup 189 subtable" dx=205 dy=0 dh=205 dv=0
Position2: "Single Positioning lookup 188 subtable" dx=205 dy=0 dh=205 dv=0
Position2: "Single Positioning lookup 187 subtable" dx=205 dy=0 dh=205 dv=0
Position2: "Single Positioning lookup 186 subtable" dx=205 dy=0 dh=205 dv=0
Position2: "Single Positioning lookup 185 subtable" dx=205 dy=0 dh=205 dv=0
Position2: "Single Positioning lookup 184 subtable" dx=205 dy=0 dh=205 dv=0
Position2: "Single Positioning lookup 183 subtable" dx=205 dy=0 dh=205 dv=0
Position2: "Single Positioning lookup 182 subtable" dx=205 dy=0 dh=205 dv=0
Position2: "Single Positioning lookup 181 subtable" dx=198 dy=0 dh=198 dv=0
Position2: "Single Positioning lookup 180 subtable" dx=198 dy=0 dh=198 dv=0
Position2: "Single Positioning lookup 179 subtable" dx=198 dy=0 dh=198 dv=0
Position2: "Single Positioning lookup 178 subtable" dx=198 dy=0 dh=198 dv=0
Position2: "Single Positioning lookup 175 subtable" dx=198 dy=0 dh=198 dv=0
Position2: "Single Positioning lookup 174 subtable" dx=198 dy=0 dh=198 dv=0
Position2: "Single Positioning lookup 173 subtable" dx=198 dy=0 dh=198 dv=0
Position2: "Single Positioning lookup 172 subtable" dx=198 dy=0 dh=198 dv=0
Position2: "Single Positioning lookup 170 subtable" dx=198 dy=0 dh=198 dv=0
Position2: "Single Positioning lookup 169 subtable" dx=198 dy=0 dh=198 dv=0
Position2: "Single Positioning lookup 168 subtable" dx=198 dy=0 dh=198 dv=0
Position2: "Single Positioning lookup 167 subtable" dx=198 dy=0 dh=198 dv=0
Position2: "Single Positioning lookup 166 subtable" dx=198 dy=0 dh=198 dv=0
Position2: "Single Positioning lookup 165 subtable" dx=198 dy=0 dh=198 dv=0
Position2: "Single Positioning lookup 164 subtable" dx=198 dy=0 dh=198 dv=0
Position2: "Single Positioning lookup 163 subtable" dx=198 dy=0 dh=198 dv=0
Position2: "Single Positioning lookup 162 subtable" dx=198 dy=0 dh=198 dv=0
Position2: "Single Positioning lookup 161 subtable" dx=198 dy=0 dh=198 dv=0
Position2: "Single Positioning lookup 160 subtable" dx=198 dy=0 dh=198 dv=0
Position2: "Single Positioning lookup 159 subtable" dx=198 dy=0 dh=198 dv=0
Position2: "Single Positioning lookup 158 subtable" dx=198 dy=0 dh=198 dv=0
Position2: "Single Positioning lookup 157 subtable" dx=198 dy=0 dh=198 dv=0
Position2: "Single Positioning lookup 156 subtable" dx=198 dy=0 dh=198 dv=0
Position2: "Single Positioning lookup 155 subtable" dx=198 dy=0 dh=198 dv=0
Position2: "Single Positioning lookup 154 subtable" dx=198 dy=0 dh=198 dv=0
Position2: "Single Positioning lookup 153 subtable" dx=198 dy=0 dh=198 dv=0
Position2: "Single Positioning lookup 152 subtable" dx=198 dy=0 dh=198 dv=0
Position2: "Single Positioning lookup 151 subtable" dx=198 dy=0 dh=198 dv=0
Position2: "Single Positioning lookup 150 subtable" dx=198 dy=0 dh=198 dv=0
Position2: "Single Positioning lookup 149 subtable" dx=198 dy=0 dh=198 dv=0
Position2: "Single Positioning lookup 148 subtable" dx=198 dy=0 dh=198 dv=0
Position2: "Single Positioning lookup 147 subtable" dx=198 dy=0 dh=198 dv=0
Position2: "Single Positioning lookup 146 subtable" dx=198 dy=0 dh=198 dv=0
Position2: "Single Positioning lookup 40 subtable" dx=25 dy=0 dh=25 dv=0
Position2: "Single Positioning lookup 39 subtable" dx=108 dy=0 dh=108 dv=0
Position2: "Single Positioning lookup 38 subtable" dx=118 dy=0 dh=118 dv=0
Position2: "Single Positioning lookup 37 subtable" dx=86 dy=0 dh=86 dv=0
Position2: "Single Positioning lookup 34 subtable" dx=0 dy=0 dh=349 dv=0
Position2: "Single Positioning lookup 33 subtable" dx=188 dy=0 dh=188 dv=0
Position2: "Single Positioning lookup 31 subtable" dx=0 dy=0 dh=195 dv=0
Position2: "Single Positioning lookup 30 subtable" dx=239 dy=0 dh=239 dv=0
Position2: "Single Positioning lookup 26 subtable" dx=25 dy=0 dh=25 dv=0
Position2: "Single Positioning lookup 25 subtable" dx=207 dy=0 dh=207 dv=0
Position2: "Single Positioning lookup 18 subtable" dx=26 dy=0 dh=26 dv=0
Position2: "Single Positioning lookup 16 subtable" dx=69 dy=0 dh=69 dv=0
Position2: "Single Positioning lookup 12 subtable" dx=0 dy=0 dh=125 dv=0
Position2: "Single Positioning lookup 11 subtable" dx=147 dy=0 dh=147 dv=0
Position2: "Single Positioning lookup 10 subtable" dx=43 dy=0 dh=43 dv=0
Position2: "Single Positioning lookup 9 subtable" dx=5 dy=0 dh=5 dv=0
Position2: "Single Positioning lookup 7 subtable" dx=197 dy=0 dh=197 dv=0
Position2: "Single Positioning lookup 6 subtable" dx=283 dy=0 dh=283 dv=0
Position2: "Single Positioning lookup 5 subtable" dx=183 dy=0 dh=183 dv=0
EndChar

StartChar: uni1B1F
Encoding: 6943 6943 37
Width: 624
GlyphClass: 2
Flags: W
AnchorPoint: "Anchor-2" 383 0 basechar 0
AnchorPoint: "Anchor-0" 398 484 basechar 0
LayerCount: 2
Fore
SplineSet
406 -1 m 1,0,1
 328 1 328 1 259 81 c 1,2,3
 213 0 213 0 144 0 c 2,4,-1
 137 0 l 1,5,6
 63 8 63 8 59 91 c 1,7,8
 59 188 59 188 183 346 c 1,9,10
 170 353 170 353 157 353 c 0,11,12
 61 353 61 353 39 222 c 1,13,-1
 33 222 l 2,14,15
 20 222 20 222 20 234 c 2,16,-1
 20 241 l 2,17,18
 20 313 20 313 65 352 c 128,-1,19
 110 391 110 391 157 391 c 0,20,21
 222 391 222 391 222 346 c 0,22,23
 222 327 222 327 182.5 281 c 128,-1,24
 143 235 143 235 118 184 c 128,-1,25
 93 133 93 133 93 93 c 0,26,27
 93 32 93 32 146 30 c 1,28,29
 212 35 212 35 259 133 c 1,30,31
 345 33 345 33 411 30 c 1,32,33
 502 35 502 35 502 208 c 0,34,35
 502 305 502 305 450 404 c 1,36,37
 472 421 472 421 507 421 c 2,38,-1
 524 420 l 1,39,40
 600 401 600 401 604 297 c 0,41,42
 604 231 604 231 582.5 116 c 128,-1,43
 561 1 561 1 536 1 c 1,44,45
 561 177 561 177 565 259 c 1,46,-1
 565 270 l 2,47,48
 562 380 562 380 493 389 c 1,49,50
 533 286 533 286 533 202 c 0,51,52
 533 4 533 4 406 -1 c 1,0,1
EndSplineSet
MultipleSubs2: "Multiple Substitution lookup 323 subtable" uni1B1F _reorder
MultipleSubs2: "Multiple Substitution lookup 267 subtable" uni1B1F _reorder
MultipleSubs2: "Multiple Substitution lookup 211 subtable" uni1B1F _reorder
MultipleSubs2: "Multiple Substitution lookup 150 subtable" uni1B1F _reorder
MultipleSubs2: "Multiple Substitution lookup 94 subtable" uni1B1F _reorder
MultipleSubs2: "Multiple Substitution lookup 38 subtable" uni1B1F _reorder
Position2: "Single Positioning lookup 329 subtable" dx=5 dy=0 dh=5 dv=0
Position2: "Single Positioning lookup 328 subtable" dx=5 dy=0 dh=5 dv=0
Position2: "Single Positioning lookup 325 subtable" dx=5 dy=0 dh=5 dv=0
Position2: "Single Positioning lookup 324 subtable" dx=5 dy=0 dh=5 dv=0
Position2: "Single Positioning lookup 320 subtable" dx=5 dy=0 dh=5 dv=0
Position2: "Single Positioning lookup 318 subtable" dx=5 dy=0 dh=5 dv=0
Position2: "Single Positioning lookup 314 subtable" dx=5 dy=0 dh=5 dv=0
Position2: "Single Positioning lookup 313 subtable" dx=5 dy=0 dh=5 dv=0
Position2: "Single Positioning lookup 312 subtable" dx=5 dy=0 dh=5 dv=0
Position2: "Single Positioning lookup 310 subtable" dx=5 dy=0 dh=5 dv=0
Position2: "Single Positioning lookup 309 subtable" dx=5 dy=0 dh=5 dv=0
Position2: "Single Positioning lookup 308 subtable" dx=5 dy=0 dh=5 dv=0
Position2: "Single Positioning lookup 306 subtable" dx=23 dy=0 dh=23 dv=0
Position2: "Single Positioning lookup 305 subtable" dx=23 dy=0 dh=23 dv=0
Position2: "Single Positioning lookup 303 subtable" dx=23 dy=0 dh=23 dv=0
Position2: "Single Positioning lookup 302 subtable" dx=23 dy=0 dh=23 dv=0
Position2: "Single Positioning lookup 301 subtable" dx=23 dy=0 dh=23 dv=0
Position2: "Single Positioning lookup 299 subtable" dx=23 dy=0 dh=23 dv=0
Position2: "Single Positioning lookup 296 subtable" dx=23 dy=0 dh=23 dv=0
Position2: "Single Positioning lookup 294 subtable" dx=23 dy=0 dh=23 dv=0
Position2: "Single Positioning lookup 293 subtable" dx=23 dy=0 dh=23 dv=0
Position2: "Single Positioning lookup 292 subtable" dx=23 dy=0 dh=23 dv=0
Position2: "Single Positioning lookup 290 subtable" dx=23 dy=0 dh=23 dv=0
Position2: "Single Positioning lookup 289 subtable" dx=23 dy=0 dh=23 dv=0
Position2: "Single Positioning lookup 288 subtable" dx=23 dy=0 dh=23 dv=0
Position2: "Single Positioning lookup 286 subtable" dx=23 dy=0 dh=23 dv=0
Position2: "Single Positioning lookup 285 subtable" dx=23 dy=0 dh=23 dv=0
Position2: "Single Positioning lookup 284 subtable" dx=23 dy=0 dh=23 dv=0
Position2: "Single Positioning lookup 282 subtable" dx=58 dy=0 dh=58 dv=0
Position2: "Single Positioning lookup 280 subtable" dx=58 dy=0 dh=58 dv=0
Position2: "Single Positioning lookup 279 subtable" dx=58 dy=0 dh=58 dv=0
Position2: "Single Positioning lookup 277 subtable" dx=58 dy=0 dh=58 dv=0
Position2: "Single Positioning lookup 276 subtable" dx=58 dy=0 dh=58 dv=0
Position2: "Single Positioning lookup 275 subtable" dx=58 dy=0 dh=58 dv=0
Position2: "Single Positioning lookup 274 subtable" dx=58 dy=0 dh=58 dv=0
Position2: "Single Positioning lookup 273 subtable" dx=58 dy=0 dh=58 dv=0
Position2: "Single Positioning lookup 272 subtable" dx=58 dy=0 dh=58 dv=0
Position2: "Single Positioning lookup 268 subtable" dx=58 dy=0 dh=58 dv=0
Position2: "Single Positioning lookup 266 subtable" dx=58 dy=0 dh=58 dv=0
Position2: "Single Positioning lookup 265 subtable" dx=58 dy=0 dh=58 dv=0
Position2: "Single Positioning lookup 264 subtable" dx=58 dy=0 dh=58 dv=0
Position2: "Single Positioning lookup 263 subtable" dx=58 dy=0 dh=58 dv=0
Position2: "Single Positioning lookup 262 subtable" dx=58 dy=0 dh=58 dv=0
Position2: "Single Positioning lookup 261 subtable" dx=58 dy=0 dh=58 dv=0
Position2: "Single Positioning lookup 260 subtable" dx=58 dy=0 dh=58 dv=0
Position2: "Single Positioning lookup 258 subtable" dx=58 dy=0 dh=58 dv=0
Position2: "Single Positioning lookup 257 subtable" dx=58 dy=0 dh=58 dv=0
Position2: "Single Positioning lookup 256 subtable" dx=58 dy=0 dh=58 dv=0
Position2: "Single Positioning lookup 252 subtable" dx=155 dy=0 dh=155 dv=0
Position2: "Single Positioning lookup 251 subtable" dx=155 dy=0 dh=155 dv=0
Position2: "Single Positioning lookup 250 subtable" dx=155 dy=0 dh=155 dv=0
Position2: "Single Positioning lookup 249 subtable" dx=155 dy=0 dh=155 dv=0
Position2: "Single Positioning lookup 247 subtable" dx=155 dy=0 dh=155 dv=0
Position2: "Single Positioning lookup 246 subtable" dx=155 dy=0 dh=155 dv=0
Position2: "Single Positioning lookup 245 subtable" dx=155 dy=0 dh=155 dv=0
Position2: "Single Positioning lookup 244 subtable" dx=155 dy=0 dh=155 dv=0
Position2: "Single Positioning lookup 242 subtable" dx=155 dy=0 dh=155 dv=0
Position2: "Single Positioning lookup 241 subtable" dx=155 dy=0 dh=155 dv=0
Position2: "Single Positioning lookup 240 subtable" dx=155 dy=0 dh=155 dv=0
Position2: "Single Positioning lookup 238 subtable" dx=155 dy=0 dh=155 dv=0
Position2: "Single Positioning lookup 237 subtable" dx=155 dy=0 dh=155 dv=0
Position2: "Single Positioning lookup 236 subtable" dx=155 dy=0 dh=155 dv=0
Position2: "Single Positioning lookup 235 subtable" dx=155 dy=0 dh=155 dv=0
Position2: "Single Positioning lookup 234 subtable" dx=155 dy=0 dh=155 dv=0
Position2: "Single Positioning lookup 232 subtable" dx=155 dy=0 dh=155 dv=0
Position2: "Single Positioning lookup 231 subtable" dx=155 dy=0 dh=155 dv=0
Position2: "Single Positioning lookup 230 subtable" dx=155 dy=0 dh=155 dv=0
Position2: "Single Positioning lookup 229 subtable" dx=155 dy=0 dh=155 dv=0
Position2: "Single Positioning lookup 228 subtable" dx=155 dy=0 dh=155 dv=0
Position2: "Single Positioning lookup 226 subtable" dx=155 dy=0 dh=155 dv=0
Position2: "Single Positioning lookup 225 subtable" dx=155 dy=0 dh=155 dv=0
Position2: "Single Positioning lookup 224 subtable" dx=155 dy=0 dh=155 dv=0
Position2: "Single Positioning lookup 223 subtable" dx=155 dy=0 dh=155 dv=0
Position2: "Single Positioning lookup 222 subtable" dx=155 dy=0 dh=155 dv=0
Position2: "Single Positioning lookup 221 subtable" dx=155 dy=0 dh=155 dv=0
Position2: "Single Positioning lookup 220 subtable" dx=155 dy=0 dh=155 dv=0
Position2: "Single Positioning lookup 219 subtable" dx=155 dy=0 dh=155 dv=0
Position2: "Single Positioning lookup 218 subtable" dx=155 dy=0 dh=155 dv=0
Position2: "Single Positioning lookup 217 subtable" dx=205 dy=0 dh=205 dv=0
Position2: "Single Positioning lookup 216 subtable" dx=205 dy=0 dh=205 dv=0
Position2: "Single Positioning lookup 215 subtable" dx=205 dy=0 dh=205 dv=0
Position2: "Single Positioning lookup 214 subtable" dx=205 dy=0 dh=205 dv=0
Position2: "Single Positioning lookup 211 subtable" dx=205 dy=0 dh=205 dv=0
Position2: "Single Positioning lookup 210 subtable" dx=205 dy=0 dh=205 dv=0
Position2: "Single Positioning lookup 209 subtable" dx=205 dy=0 dh=205 dv=0
Position2: "Single Positioning lookup 208 subtable" dx=205 dy=0 dh=205 dv=0
Position2: "Single Positioning lookup 207 subtable" dx=205 dy=0 dh=205 dv=0
Position2: "Single Positioning lookup 206 subtable" dx=205 dy=0 dh=205 dv=0
Position2: "Single Positioning lookup 205 subtable" dx=205 dy=0 dh=205 dv=0
Position2: "Single Positioning lookup 204 subtable" dx=205 dy=0 dh=205 dv=0
Position2: "Single Positioning lookup 203 subtable" dx=205 dy=0 dh=205 dv=0
Position2: "Single Positioning lookup 202 subtable" dx=205 dy=0 dh=205 dv=0
Position2: "Single Positioning lookup 201 subtable" dx=205 dy=0 dh=205 dv=0
Position2: "Single Positioning lookup 200 subtable" dx=205 dy=0 dh=205 dv=0
Position2: "Single Positioning lookup 199 subtable" dx=205 dy=0 dh=205 dv=0
Position2: "Single Positioning lookup 198 subtable" dx=205 dy=0 dh=205 dv=0
Position2: "Single Positioning lookup 197 subtable" dx=205 dy=0 dh=205 dv=0
Position2: "Single Positioning lookup 196 subtable" dx=205 dy=0 dh=205 dv=0
Position2: "Single Positioning lookup 195 subtable" dx=205 dy=0 dh=205 dv=0
Position2: "Single Positioning lookup 194 subtable" dx=205 dy=0 dh=205 dv=0
Position2: "Single Positioning lookup 193 subtable" dx=205 dy=0 dh=205 dv=0
Position2: "Single Positioning lookup 192 subtable" dx=205 dy=0 dh=205 dv=0
Position2: "Single Positioning lookup 191 subtable" dx=205 dy=0 dh=205 dv=0
Position2: "Single Positioning lookup 190 subtable" dx=205 dy=0 dh=205 dv=0
Position2: "Single Positioning lookup 189 subtable" dx=205 dy=0 dh=205 dv=0
Position2: "Single Positioning lookup 188 subtable" dx=205 dy=0 dh=205 dv=0
Position2: "Single Positioning lookup 187 subtable" dx=205 dy=0 dh=205 dv=0
Position2: "Single Positioning lookup 186 subtable" dx=205 dy=0 dh=205 dv=0
Position2: "Single Positioning lookup 185 subtable" dx=205 dy=0 dh=205 dv=0
Position2: "Single Positioning lookup 184 subtable" dx=205 dy=0 dh=205 dv=0
Position2: "Single Positioning lookup 183 subtable" dx=205 dy=0 dh=205 dv=0
Position2: "Single Positioning lookup 182 subtable" dx=205 dy=0 dh=205 dv=0
Position2: "Single Positioning lookup 181 subtable" dx=198 dy=0 dh=198 dv=0
Position2: "Single Positioning lookup 180 subtable" dx=198 dy=0 dh=198 dv=0
Position2: "Single Positioning lookup 179 subtable" dx=198 dy=0 dh=198 dv=0
Position2: "Single Positioning lookup 178 subtable" dx=198 dy=0 dh=198 dv=0
Position2: "Single Positioning lookup 175 subtable" dx=198 dy=0 dh=198 dv=0
Position2: "Single Positioning lookup 174 subtable" dx=198 dy=0 dh=198 dv=0
Position2: "Single Positioning lookup 173 subtable" dx=198 dy=0 dh=198 dv=0
Position2: "Single Positioning lookup 172 subtable" dx=198 dy=0 dh=198 dv=0
Position2: "Single Positioning lookup 170 subtable" dx=198 dy=0 dh=198 dv=0
Position2: "Single Positioning lookup 169 subtable" dx=198 dy=0 dh=198 dv=0
Position2: "Single Positioning lookup 168 subtable" dx=198 dy=0 dh=198 dv=0
Position2: "Single Positioning lookup 167 subtable" dx=198 dy=0 dh=198 dv=0
Position2: "Single Positioning lookup 166 subtable" dx=198 dy=0 dh=198 dv=0
Position2: "Single Positioning lookup 165 subtable" dx=198 dy=0 dh=198 dv=0
Position2: "Single Positioning lookup 164 subtable" dx=198 dy=0 dh=198 dv=0
Position2: "Single Positioning lookup 163 subtable" dx=198 dy=0 dh=198 dv=0
Position2: "Single Positioning lookup 162 subtable" dx=198 dy=0 dh=198 dv=0
Position2: "Single Positioning lookup 161 subtable" dx=198 dy=0 dh=198 dv=0
Position2: "Single Positioning lookup 160 subtable" dx=198 dy=0 dh=198 dv=0
Position2: "Single Positioning lookup 159 subtable" dx=198 dy=0 dh=198 dv=0
Position2: "Single Positioning lookup 158 subtable" dx=198 dy=0 dh=198 dv=0
Position2: "Single Positioning lookup 157 subtable" dx=198 dy=0 dh=198 dv=0
Position2: "Single Positioning lookup 156 subtable" dx=198 dy=0 dh=198 dv=0
Position2: "Single Positioning lookup 155 subtable" dx=198 dy=0 dh=198 dv=0
Position2: "Single Positioning lookup 154 subtable" dx=198 dy=0 dh=198 dv=0
Position2: "Single Positioning lookup 153 subtable" dx=198 dy=0 dh=198 dv=0
Position2: "Single Positioning lookup 152 subtable" dx=198 dy=0 dh=198 dv=0
Position2: "Single Positioning lookup 151 subtable" dx=198 dy=0 dh=198 dv=0
Position2: "Single Positioning lookup 150 subtable" dx=198 dy=0 dh=198 dv=0
Position2: "Single Positioning lookup 149 subtable" dx=198 dy=0 dh=198 dv=0
Position2: "Single Positioning lookup 148 subtable" dx=198 dy=0 dh=198 dv=0
Position2: "Single Positioning lookup 147 subtable" dx=198 dy=0 dh=198 dv=0
Position2: "Single Positioning lookup 146 subtable" dx=198 dy=0 dh=198 dv=0
Position2: "Single Positioning lookup 40 subtable" dx=19 dy=0 dh=19 dv=0
Position2: "Single Positioning lookup 39 subtable" dx=102 dy=0 dh=102 dv=0
Position2: "Single Positioning lookup 38 subtable" dx=112 dy=0 dh=112 dv=0
Position2: "Single Positioning lookup 37 subtable" dx=80 dy=0 dh=80 dv=0
Position2: "Single Positioning lookup 34 subtable" dx=0 dy=0 dh=264 dv=0
Position2: "Single Positioning lookup 33 subtable" dx=267 dy=0 dh=267 dv=0
Position2: "Single Positioning lookup 31 subtable" dx=0 dy=0 dh=110 dv=0
Position2: "Single Positioning lookup 30 subtable" dx=318 dy=0 dh=318 dv=0
Position2: "Single Positioning lookup 26 subtable" dx=19 dy=0 dh=19 dv=0
Position2: "Single Positioning lookup 25 subtable" dx=201 dy=0 dh=201 dv=0
Position2: "Single Positioning lookup 18 subtable" dx=20 dy=0 dh=20 dv=0
Position2: "Single Positioning lookup 16 subtable" dx=63 dy=0 dh=63 dv=0
Position2: "Single Positioning lookup 12 subtable" dx=0 dy=0 dh=40 dv=0
Position2: "Single Positioning lookup 11 subtable" dx=226 dy=0 dh=226 dv=0
Position2: "Single Positioning lookup 10 subtable" dx=37 dy=0 dh=37 dv=0
Position2: "Single Positioning lookup 7 subtable" dx=191 dy=0 dh=191 dv=0
Position2: "Single Positioning lookup 6 subtable" dx=277 dy=0 dh=277 dv=0
Position2: "Single Positioning lookup 5 subtable" dx=177 dy=0 dh=177 dv=0
EndChar

StartChar: uni1B20
Encoding: 6944 6944 38
Width: 528
GlyphClass: 2
Flags: W
AnchorPoint: "Anchor-2" 336 0 basechar 0
AnchorPoint: "Anchor-0" 308 501 basechar 0
LayerCount: 2
Fore
SplineSet
381 -1 m 1,0,1
 299 4 299 4 246 81 c 1,2,3
 194 0 194 0 125 0 c 2,4,-1
 118 0 l 1,5,6
 44 8 44 8 40 91 c 1,7,8
 40 218 40 218 155 384 c 1,9,10
 148 389 148 389 140 389 c 0,11,12
 80 389 80 389 59 225 c 1,13,14
 40 225 40 225 40 244 c 0,15,16
 40 316 40 316 65.5 368.5 c 128,-1,17
 91 421 91 421 138 421 c 0,18,19
 183 421 183 421 189 381 c 1,20,21
 71 210 71 210 71 102 c 0,22,23
 71 32 71 32 127 30 c 1,24,25
 193 35 193 35 250 133 c 1,26,27
 304 31 304 31 376 31 c 2,28,-1
 379 31 l 2,29,30
 456 32 456 32 456 202 c 1,31,32
 452 299 452 299 387 347 c 1,33,34
 476 347 476 347 488 211 c 1,35,36
 488 4 488 4 381 -1 c 1,0,1
EndSplineSet
MultipleSubs2: "Multiple Substitution lookup 324 subtable" uni1B20 _reorder
MultipleSubs2: "Multiple Substitution lookup 268 subtable" uni1B20 _reorder
MultipleSubs2: "Multiple Substitution lookup 212 subtable" uni1B20 _reorder
MultipleSubs2: "Multiple Substitution lookup 151 subtable" uni1B20 _reorder
MultipleSubs2: "Multiple Substitution lookup 95 subtable" uni1B20 _reorder
MultipleSubs2: "Multiple Substitution lookup 39 subtable" uni1B20 _reorder
Position2: "Single Positioning lookup 329 subtable" dx=5 dy=0 dh=5 dv=0
Position2: "Single Positioning lookup 328 subtable" dx=5 dy=0 dh=5 dv=0
Position2: "Single Positioning lookup 327 subtable" dx=5 dy=0 dh=5 dv=0
Position2: "Single Positioning lookup 326 subtable" dx=5 dy=0 dh=5 dv=0
Position2: "Single Positioning lookup 325 subtable" dx=5 dy=0 dh=5 dv=0
Position2: "Single Positioning lookup 324 subtable" dx=5 dy=0 dh=5 dv=0
Position2: "Single Positioning lookup 323 subtable" dx=5 dy=0 dh=5 dv=0
Position2: "Single Positioning lookup 322 subtable" dx=5 dy=0 dh=5 dv=0
Position2: "Single Positioning lookup 321 subtable" dx=5 dy=0 dh=5 dv=0
Position2: "Single Positioning lookup 320 subtable" dx=5 dy=0 dh=5 dv=0
Position2: "Single Positioning lookup 319 subtable" dx=5 dy=0 dh=5 dv=0
Position2: "Single Positioning lookup 318 subtable" dx=5 dy=0 dh=5 dv=0
Position2: "Single Positioning lookup 317 subtable" dx=5 dy=0 dh=5 dv=0
Position2: "Single Positioning lookup 316 subtable" dx=5 dy=0 dh=5 dv=0
Position2: "Single Positioning lookup 315 subtable" dx=5 dy=0 dh=5 dv=0
Position2: "Single Positioning lookup 314 subtable" dx=5 dy=0 dh=5 dv=0
Position2: "Single Positioning lookup 313 subtable" dx=5 dy=0 dh=5 dv=0
Position2: "Single Positioning lookup 312 subtable" dx=5 dy=0 dh=5 dv=0
Position2: "Single Positioning lookup 311 subtable" dx=5 dy=0 dh=5 dv=0
Position2: "Single Positioning lookup 310 subtable" dx=5 dy=0 dh=5 dv=0
Position2: "Single Positioning lookup 309 subtable" dx=5 dy=0 dh=5 dv=0
Position2: "Single Positioning lookup 308 subtable" dx=5 dy=0 dh=5 dv=0
Position2: "Single Positioning lookup 307 subtable" dx=5 dy=0 dh=5 dv=0
Position2: "Single Positioning lookup 306 subtable" dx=23 dy=0 dh=23 dv=0
Position2: "Single Positioning lookup 305 subtable" dx=23 dy=0 dh=23 dv=0
Position2: "Single Positioning lookup 304 subtable" dx=23 dy=0 dh=23 dv=0
Position2: "Single Positioning lookup 303 subtable" dx=23 dy=0 dh=23 dv=0
Position2: "Single Positioning lookup 302 subtable" dx=23 dy=0 dh=23 dv=0
Position2: "Single Positioning lookup 301 subtable" dx=23 dy=0 dh=23 dv=0
Position2: "Single Positioning lookup 300 subtable" dx=23 dy=0 dh=23 dv=0
Position2: "Single Positioning lookup 299 subtable" dx=23 dy=0 dh=23 dv=0
Position2: "Single Positioning lookup 298 subtable" dx=23 dy=0 dh=23 dv=0
Position2: "Single Positioning lookup 297 subtable" dx=23 dy=0 dh=23 dv=0
Position2: "Single Positioning lookup 296 subtable" dx=23 dy=0 dh=23 dv=0
Position2: "Single Positioning lookup 295 subtable" dx=23 dy=0 dh=23 dv=0
Position2: "Single Positioning lookup 294 subtable" dx=23 dy=0 dh=23 dv=0
Position2: "Single Positioning lookup 293 subtable" dx=23 dy=0 dh=23 dv=0
Position2: "Single Positioning lookup 292 subtable" dx=23 dy=0 dh=23 dv=0
Position2: "Single Positioning lookup 291 subtable" dx=23 dy=0 dh=23 dv=0
Position2: "Single Positioning lookup 290 subtable" dx=23 dy=0 dh=23 dv=0
Position2: "Single Positioning lookup 289 subtable" dx=23 dy=0 dh=23 dv=0
Position2: "Single Positioning lookup 288 subtable" dx=23 dy=0 dh=23 dv=0
Position2: "Single Positioning lookup 287 subtable" dx=23 dy=0 dh=23 dv=0
Position2: "Single Positioning lookup 286 subtable" dx=23 dy=0 dh=23 dv=0
Position2: "Single Positioning lookup 285 subtable" dx=23 dy=0 dh=23 dv=0
Position2: "Single Positioning lookup 284 subtable" dx=23 dy=0 dh=23 dv=0
Position2: "Single Positioning lookup 283 subtable" dx=23 dy=0 dh=23 dv=0
Position2: "Single Positioning lookup 282 subtable" dx=58 dy=0 dh=58 dv=0
Position2: "Single Positioning lookup 281 subtable" dx=58 dy=0 dh=58 dv=0
Position2: "Single Positioning lookup 280 subtable" dx=58 dy=0 dh=58 dv=0
Position2: "Single Positioning lookup 279 subtable" dx=58 dy=0 dh=58 dv=0
Position2: "Single Positioning lookup 278 subtable" dx=58 dy=0 dh=58 dv=0
Position2: "Single Positioning lookup 277 subtable" dx=58 dy=0 dh=58 dv=0
Position2: "Single Positioning lookup 276 subtable" dx=58 dy=0 dh=58 dv=0
Position2: "Single Positioning lookup 275 subtable" dx=58 dy=0 dh=58 dv=0
Position2: "Single Positioning lookup 274 subtable" dx=58 dy=0 dh=58 dv=0
Position2: "Single Positioning lookup 273 subtable" dx=58 dy=0 dh=58 dv=0
Position2: "Single Positioning lookup 272 subtable" dx=58 dy=0 dh=58 dv=0
Position2: "Single Positioning lookup 271 subtable" dx=58 dy=0 dh=58 dv=0
Position2: "Single Positioning lookup 270 subtable" dx=58 dy=0 dh=58 dv=0
Position2: "Single Positioning lookup 269 subtable" dx=58 dy=0 dh=58 dv=0
Position2: "Single Positioning lookup 268 subtable" dx=58 dy=0 dh=58 dv=0
Position2: "Single Positioning lookup 267 subtable" dx=58 dy=0 dh=58 dv=0
Position2: "Single Positioning lookup 266 subtable" dx=58 dy=0 dh=58 dv=0
Position2: "Single Positioning lookup 265 subtable" dx=58 dy=0 dh=58 dv=0
Position2: "Single Positioning lookup 264 subtable" dx=58 dy=0 dh=58 dv=0
Position2: "Single Positioning lookup 263 subtable" dx=58 dy=0 dh=58 dv=0
Position2: "Single Positioning lookup 262 subtable" dx=58 dy=0 dh=58 dv=0
Position2: "Single Positioning lookup 261 subtable" dx=58 dy=0 dh=58 dv=0
Position2: "Single Positioning lookup 260 subtable" dx=58 dy=0 dh=58 dv=0
Position2: "Single Positioning lookup 259 subtable" dx=58 dy=0 dh=58 dv=0
Position2: "Single Positioning lookup 258 subtable" dx=58 dy=0 dh=58 dv=0
Position2: "Single Positioning lookup 257 subtable" dx=58 dy=0 dh=58 dv=0
Position2: "Single Positioning lookup 256 subtable" dx=58 dy=0 dh=58 dv=0
Position2: "Single Positioning lookup 255 subtable" dx=58 dy=0 dh=58 dv=0
Position2: "Single Positioning lookup 254 subtable" dx=58 dy=0 dh=58 dv=0
Position2: "Single Positioning lookup 253 subtable" dx=58 dy=0 dh=58 dv=0
Position2: "Single Positioning lookup 252 subtable" dx=155 dy=0 dh=155 dv=0
Position2: "Single Positioning lookup 251 subtable" dx=155 dy=0 dh=155 dv=0
Position2: "Single Positioning lookup 250 subtable" dx=155 dy=0 dh=155 dv=0
Position2: "Single Positioning lookup 249 subtable" dx=155 dy=0 dh=155 dv=0
Position2: "Single Positioning lookup 248 subtable" dx=155 dy=0 dh=155 dv=0
Position2: "Single Positioning lookup 247 subtable" dx=155 dy=0 dh=155 dv=0
Position2: "Single Positioning lookup 246 subtable" dx=155 dy=0 dh=155 dv=0
Position2: "Single Positioning lookup 245 subtable" dx=155 dy=0 dh=155 dv=0
Position2: "Single Positioning lookup 244 subtable" dx=155 dy=0 dh=155 dv=0
Position2: "Single Positioning lookup 243 subtable" dx=155 dy=0 dh=155 dv=0
Position2: "Single Positioning lookup 242 subtable" dx=155 dy=0 dh=155 dv=0
Position2: "Single Positioning lookup 241 subtable" dx=155 dy=0 dh=155 dv=0
Position2: "Single Positioning lookup 240 subtable" dx=155 dy=0 dh=155 dv=0
Position2: "Single Positioning lookup 239 subtable" dx=155 dy=0 dh=155 dv=0
Position2: "Single Positioning lookup 238 subtable" dx=155 dy=0 dh=155 dv=0
Position2: "Single Positioning lookup 237 subtable" dx=155 dy=0 dh=155 dv=0
Position2: "Single Positioning lookup 236 subtable" dx=155 dy=0 dh=155 dv=0
Position2: "Single Positioning lookup 235 subtable" dx=155 dy=0 dh=155 dv=0
Position2: "Single Positioning lookup 234 subtable" dx=155 dy=0 dh=155 dv=0
Position2: "Single Positioning lookup 233 subtable" dx=155 dy=0 dh=155 dv=0
Position2: "Single Positioning lookup 232 subtable" dx=155 dy=0 dh=155 dv=0
Position2: "Single Positioning lookup 231 subtable" dx=155 dy=0 dh=155 dv=0
Position2: "Single Positioning lookup 230 subtable" dx=155 dy=0 dh=155 dv=0
Position2: "Single Positioning lookup 229 subtable" dx=155 dy=0 dh=155 dv=0
Position2: "Single Positioning lookup 228 subtable" dx=155 dy=0 dh=155 dv=0
Position2: "Single Positioning lookup 227 subtable" dx=155 dy=0 dh=155 dv=0
Position2: "Single Positioning lookup 226 subtable" dx=155 dy=0 dh=155 dv=0
Position2: "Single Positioning lookup 225 subtable" dx=155 dy=0 dh=155 dv=0
Position2: "Single Positioning lookup 224 subtable" dx=155 dy=0 dh=155 dv=0
Position2: "Single Positioning lookup 223 subtable" dx=155 dy=0 dh=155 dv=0
Position2: "Single Positioning lookup 222 subtable" dx=155 dy=0 dh=155 dv=0
Position2: "Single Positioning lookup 221 subtable" dx=155 dy=0 dh=155 dv=0
Position2: "Single Positioning lookup 220 subtable" dx=155 dy=0 dh=155 dv=0
Position2: "Single Positioning lookup 219 subtable" dx=155 dy=0 dh=155 dv=0
Position2: "Single Positioning lookup 218 subtable" dx=155 dy=0 dh=155 dv=0
Position2: "Single Positioning lookup 217 subtable" dx=205 dy=0 dh=205 dv=0
Position2: "Single Positioning lookup 216 subtable" dx=205 dy=0 dh=205 dv=0
Position2: "Single Positioning lookup 215 subtable" dx=205 dy=0 dh=205 dv=0
Position2: "Single Positioning lookup 214 subtable" dx=205 dy=0 dh=205 dv=0
Position2: "Single Positioning lookup 213 subtable" dx=205 dy=0 dh=205 dv=0
Position2: "Single Positioning lookup 212 subtable" dx=205 dy=0 dh=205 dv=0
Position2: "Single Positioning lookup 211 subtable" dx=205 dy=0 dh=205 dv=0
Position2: "Single Positioning lookup 210 subtable" dx=205 dy=0 dh=205 dv=0
Position2: "Single Positioning lookup 209 subtable" dx=205 dy=0 dh=205 dv=0
Position2: "Single Positioning lookup 208 subtable" dx=205 dy=0 dh=205 dv=0
Position2: "Single Positioning lookup 207 subtable" dx=205 dy=0 dh=205 dv=0
Position2: "Single Positioning lookup 206 subtable" dx=205 dy=0 dh=205 dv=0
Position2: "Single Positioning lookup 205 subtable" dx=205 dy=0 dh=205 dv=0
Position2: "Single Positioning lookup 204 subtable" dx=205 dy=0 dh=205 dv=0
Position2: "Single Positioning lookup 203 subtable" dx=205 dy=0 dh=205 dv=0
Position2: "Single Positioning lookup 202 subtable" dx=205 dy=0 dh=205 dv=0
Position2: "Single Positioning lookup 201 subtable" dx=205 dy=0 dh=205 dv=0
Position2: "Single Positioning lookup 200 subtable" dx=205 dy=0 dh=205 dv=0
Position2: "Single Positioning lookup 199 subtable" dx=205 dy=0 dh=205 dv=0
Position2: "Single Positioning lookup 198 subtable" dx=205 dy=0 dh=205 dv=0
Position2: "Single Positioning lookup 197 subtable" dx=205 dy=0 dh=205 dv=0
Position2: "Single Positioning lookup 196 subtable" dx=205 dy=0 dh=205 dv=0
Position2: "Single Positioning lookup 195 subtable" dx=205 dy=0 dh=205 dv=0
Position2: "Single Positioning lookup 194 subtable" dx=205 dy=0 dh=205 dv=0
Position2: "Single Positioning lookup 193 subtable" dx=205 dy=0 dh=205 dv=0
Position2: "Single Positioning lookup 192 subtable" dx=205 dy=0 dh=205 dv=0
Position2: "Single Positioning lookup 191 subtable" dx=205 dy=0 dh=205 dv=0
Position2: "Single Positioning lookup 190 subtable" dx=205 dy=0 dh=205 dv=0
Position2: "Single Positioning lookup 189 subtable" dx=205 dy=0 dh=205 dv=0
Position2: "Single Positioning lookup 188 subtable" dx=205 dy=0 dh=205 dv=0
Position2: "Single Positioning lookup 187 subtable" dx=205 dy=0 dh=205 dv=0
Position2: "Single Positioning lookup 186 subtable" dx=205 dy=0 dh=205 dv=0
Position2: "Single Positioning lookup 185 subtable" dx=205 dy=0 dh=205 dv=0
Position2: "Single Positioning lookup 184 subtable" dx=205 dy=0 dh=205 dv=0
Position2: "Single Positioning lookup 183 subtable" dx=205 dy=0 dh=205 dv=0
Position2: "Single Positioning lookup 182 subtable" dx=205 dy=0 dh=205 dv=0
Position2: "Single Positioning lookup 181 subtable" dx=198 dy=0 dh=198 dv=0
Position2: "Single Positioning lookup 180 subtable" dx=198 dy=0 dh=198 dv=0
Position2: "Single Positioning lookup 179 subtable" dx=198 dy=0 dh=198 dv=0
Position2: "Single Positioning lookup 178 subtable" dx=198 dy=0 dh=198 dv=0
Position2: "Single Positioning lookup 177 subtable" dx=198 dy=0 dh=198 dv=0
Position2: "Single Positioning lookup 176 subtable" dx=198 dy=0 dh=198 dv=0
Position2: "Single Positioning lookup 175 subtable" dx=198 dy=0 dh=198 dv=0
Position2: "Single Positioning lookup 174 subtable" dx=198 dy=0 dh=198 dv=0
Position2: "Single Positioning lookup 173 subtable" dx=198 dy=0 dh=198 dv=0
Position2: "Single Positioning lookup 172 subtable" dx=198 dy=0 dh=198 dv=0
Position2: "Single Positioning lookup 171 subtable" dx=198 dy=0 dh=198 dv=0
Position2: "Single Positioning lookup 170 subtable" dx=198 dy=0 dh=198 dv=0
Position2: "Single Positioning lookup 169 subtable" dx=198 dy=0 dh=198 dv=0
Position2: "Single Positioning lookup 168 subtable" dx=198 dy=0 dh=198 dv=0
Position2: "Single Positioning lookup 167 subtable" dx=198 dy=0 dh=198 dv=0
Position2: "Single Positioning lookup 166 subtable" dx=198 dy=0 dh=198 dv=0
Position2: "Single Positioning lookup 165 subtable" dx=198 dy=0 dh=198 dv=0
Position2: "Single Positioning lookup 164 subtable" dx=198 dy=0 dh=198 dv=0
Position2: "Single Positioning lookup 163 subtable" dx=198 dy=0 dh=198 dv=0
Position2: "Single Positioning lookup 162 subtable" dx=198 dy=0 dh=198 dv=0
Position2: "Single Positioning lookup 161 subtable" dx=198 dy=0 dh=198 dv=0
Position2: "Single Positioning lookup 160 subtable" dx=198 dy=0 dh=198 dv=0
Position2: "Single Positioning lookup 159 subtable" dx=198 dy=0 dh=198 dv=0
Position2: "Single Positioning lookup 158 subtable" dx=198 dy=0 dh=198 dv=0
Position2: "Single Positioning lookup 157 subtable" dx=198 dy=0 dh=198 dv=0
Position2: "Single Positioning lookup 156 subtable" dx=198 dy=0 dh=198 dv=0
Position2: "Single Positioning lookup 155 subtable" dx=198 dy=0 dh=198 dv=0
Position2: "Single Positioning lookup 154 subtable" dx=198 dy=0 dh=198 dv=0
Position2: "Single Positioning lookup 153 subtable" dx=198 dy=0 dh=198 dv=0
Position2: "Single Positioning lookup 152 subtable" dx=198 dy=0 dh=198 dv=0
Position2: "Single Positioning lookup 151 subtable" dx=198 dy=0 dh=198 dv=0
Position2: "Single Positioning lookup 150 subtable" dx=198 dy=0 dh=198 dv=0
Position2: "Single Positioning lookup 149 subtable" dx=198 dy=0 dh=198 dv=0
Position2: "Single Positioning lookup 148 subtable" dx=198 dy=0 dh=198 dv=0
Position2: "Single Positioning lookup 147 subtable" dx=198 dy=0 dh=198 dv=0
Position2: "Single Positioning lookup 146 subtable" dx=198 dy=0 dh=198 dv=0
Position2: "Single Positioning lookup 41 subtable" dx=70 dy=0 dh=70 dv=0
Position2: "Single Positioning lookup 40 subtable" dx=115 dy=0 dh=115 dv=0
Position2: "Single Positioning lookup 39 subtable" dx=198 dy=0 dh=198 dv=0
Position2: "Single Positioning lookup 38 subtable" dx=208 dy=0 dh=208 dv=0
Position2: "Single Positioning lookup 37 subtable" dx=176 dy=0 dh=176 dv=0
Position2: "Single Positioning lookup 34 subtable" dx=0 dy=0 dh=313 dv=0
Position2: "Single Positioning lookup 33 subtable" dx=314 dy=0 dh=314 dv=0
Position2: "Single Positioning lookup 31 subtable" dx=0 dy=0 dh=159 dv=0
Position2: "Single Positioning lookup 30 subtable" dx=365 dy=0 dh=365 dv=0
Position2: "Single Positioning lookup 27 subtable" dx=85 dy=0 dh=85 dv=0
Position2: "Single Positioning lookup 26 subtable" dx=115 dy=0 dh=115 dv=0
Position2: "Single Positioning lookup 25 subtable" dx=297 dy=0 dh=297 dv=0
Position2: "Single Positioning lookup 24 subtable" dx=66 dy=0 dh=66 dv=0
Position2: "Single Positioning lookup 23 subtable" dx=75 dy=0 dh=75 dv=0
Position2: "Single Positioning lookup 22 subtable" dx=61 dy=0 dh=61 dv=0
Position2: "Single Positioning lookup 18 subtable" dx=116 dy=0 dh=116 dv=0
Position2: "Single Positioning lookup 17 subtable" dx=32 dy=0 dh=32 dv=0
Position2: "Single Positioning lookup 16 subtable" dx=159 dy=0 dh=159 dv=0
Position2: "Single Positioning lookup 15 subtable" dx=79 dy=0 dh=79 dv=0
Position2: "Single Positioning lookup 14 subtable" dx=78 dy=0 dh=78 dv=0
Position2: "Single Positioning lookup 13 subtable" dx=48 dy=0 dh=48 dv=0
Position2: "Single Positioning lookup 12 subtable" dx=0 dy=0 dh=89 dv=0
Position2: "Single Positioning lookup 11 subtable" dx=273 dy=0 dh=273 dv=0
Position2: "Single Positioning lookup 10 subtable" dx=133 dy=0 dh=133 dv=0
Position2: "Single Positioning lookup 9 subtable" dx=95 dy=0 dh=95 dv=0
Position2: "Single Positioning lookup 8 subtable" dx=22 dy=0 dh=22 dv=0
Position2: "Single Positioning lookup 7 subtable" dx=287 dy=0 dh=287 dv=0
Position2: "Single Positioning lookup 6 subtable" dx=373 dy=0 dh=373 dv=0
Position2: "Single Positioning lookup 5 subtable" dx=273 dy=0 dh=273 dv=0
Position2: "Single Positioning lookup 3 subtable" dx=13 dy=0 dh=13 dv=0
EndChar

StartChar: uni1B21
Encoding: 6945 6945 39
Width: 800
GlyphClass: 2
Flags: W
AnchorPoint: "Anchor-2" 501 0 basechar 0
AnchorPoint: "Anchor-0" 430 490 basechar 0
LayerCount: 2
Fore
SplineSet
561 -1 m 0,0,1
 499 -1 499 -1 499 101 c 0,2,3
 499 126 499 126 503 158 c 0,4,5
 521 317 521 317 521 342 c 0,6,7
 521 385 521 385 502 385 c 0,8,9
 463 385 463 385 347 198 c 1,10,-1
 342 198 l 2,11,12
 316 198 316 198 316 231 c 2,13,-1
 319 336 l 2,14,15
 319 388 319 388 258 392 c 1,16,-1
 254 392 l 2,17,18
 163 389 163 389 163 255 c 0,19,20
 163 197 163 197 184 147 c 1,21,22
 40 155 40 155 40 263 c 0,23,24
 40 320 40 320 69 370.5 c 128,-1,25
 98 421 98 421 130 421 c 2,26,-1
 133 421 l 1,27,28
 69 353 69 353 69 266 c 0,29,30
 69 186 69 186 142 173 c 1,31,-1
 149 173 l 1,32,33
 135 215 135 215 135 282 c 1,34,35
 145 422 145 422 274 422 c 2,36,-1
 282 422 l 1,37,38
 352 414 352 414 352 338 c 2,39,-1
 352 329 l 1,40,-1
 344 242 l 1,41,42
 443 418 443 418 513 418 c 2,43,-1
 517 418 l 1,44,45
 550 414 550 414 555 367 c 2,46,-1
 556 348 l 2,47,48
 556 295 556 295 540 177 c 0,49,50
 534 131 534 131 534 100 c 0,51,52
 534 33 534 33 563 33 c 0,53,54
 639 35 639 35 658 208 c 1,55,-1
 659 242 l 2,56,57
 659 345 659 345 606 404 c 1,58,59
 628 421 628 421 663 421 c 0,60,61
 756 417 756 417 760 285 c 0,62,63
 760 219 760 219 738.5 110 c 128,-1,64
 717 1 717 1 692 1 c 1,65,66
 721 173 721 173 721 270 c 0,67,68
 718 385 718 385 652 385 c 2,69,-1
 647 385 l 1,70,71
 691 346 691 346 691 244 c 1,72,-1
 689 202 l 1,73,74
 673 -1 673 -1 561 -1 c 0,0,1
EndSplineSet
MultipleSubs2: "Multiple Substitution lookup 325 subtable" uni1B21 _reorder
MultipleSubs2: "Multiple Substitution lookup 269 subtable" uni1B21 _reorder
MultipleSubs2: "Multiple Substitution lookup 213 subtable" uni1B21 _reorder
MultipleSubs2: "Multiple Substitution lookup 152 subtable" uni1B21 _reorder
MultipleSubs2: "Multiple Substitution lookup 96 subtable" uni1B21 _reorder
MultipleSubs2: "Multiple Substitution lookup 40 subtable" uni1B21 _reorder
Position2: "Single Positioning lookup 329 subtable" dx=5 dy=0 dh=5 dv=0
Position2: "Single Positioning lookup 328 subtable" dx=5 dy=0 dh=5 dv=0
Position2: "Single Positioning lookup 324 subtable" dx=5 dy=0 dh=5 dv=0
Position2: "Single Positioning lookup 314 subtable" dx=5 dy=0 dh=5 dv=0
Position2: "Single Positioning lookup 310 subtable" dx=5 dy=0 dh=5 dv=0
Position2: "Single Positioning lookup 309 subtable" dx=5 dy=0 dh=5 dv=0
Position2: "Single Positioning lookup 308 subtable" dx=5 dy=0 dh=5 dv=0
Position2: "Single Positioning lookup 306 subtable" dx=23 dy=0 dh=23 dv=0
Position2: "Single Positioning lookup 305 subtable" dx=23 dy=0 dh=23 dv=0
Position2: "Single Positioning lookup 301 subtable" dx=23 dy=0 dh=23 dv=0
Position2: "Single Positioning lookup 290 subtable" dx=23 dy=0 dh=23 dv=0
Position2: "Single Positioning lookup 286 subtable" dx=23 dy=0 dh=23 dv=0
Position2: "Single Positioning lookup 285 subtable" dx=23 dy=0 dh=23 dv=0
Position2: "Single Positioning lookup 284 subtable" dx=23 dy=0 dh=23 dv=0
Position2: "Single Positioning lookup 282 subtable" dx=58 dy=0 dh=58 dv=0
Position2: "Single Positioning lookup 280 subtable" dx=58 dy=0 dh=58 dv=0
Position2: "Single Positioning lookup 275 subtable" dx=58 dy=0 dh=58 dv=0
Position2: "Single Positioning lookup 262 subtable" dx=58 dy=0 dh=58 dv=0
Position2: "Single Positioning lookup 258 subtable" dx=58 dy=0 dh=58 dv=0
Position2: "Single Positioning lookup 257 subtable" dx=58 dy=0 dh=58 dv=0
Position2: "Single Positioning lookup 256 subtable" dx=58 dy=0 dh=58 dv=0
Position2: "Single Positioning lookup 252 subtable" dx=155 dy=0 dh=155 dv=0
Position2: "Single Positioning lookup 250 subtable" dx=155 dy=0 dh=155 dv=0
Position2: "Single Positioning lookup 244 subtable" dx=155 dy=0 dh=155 dv=0
Position2: "Single Positioning lookup 232 subtable" dx=155 dy=0 dh=155 dv=0
Position2: "Single Positioning lookup 228 subtable" dx=155 dy=0 dh=155 dv=0
Position2: "Single Positioning lookup 226 subtable" dx=155 dy=0 dh=155 dv=0
Position2: "Single Positioning lookup 223 subtable" dx=155 dy=0 dh=155 dv=0
Position2: "Single Positioning lookup 222 subtable" dx=155 dy=0 dh=155 dv=0
Position2: "Single Positioning lookup 221 subtable" dx=155 dy=0 dh=155 dv=0
Position2: "Single Positioning lookup 217 subtable" dx=205 dy=0 dh=205 dv=0
Position2: "Single Positioning lookup 215 subtable" dx=205 dy=0 dh=205 dv=0
Position2: "Single Positioning lookup 214 subtable" dx=205 dy=0 dh=205 dv=0
Position2: "Single Positioning lookup 210 subtable" dx=205 dy=0 dh=205 dv=0
Position2: "Single Positioning lookup 209 subtable" dx=205 dy=0 dh=205 dv=0
Position2: "Single Positioning lookup 208 subtable" dx=205 dy=0 dh=205 dv=0
Position2: "Single Positioning lookup 205 subtable" dx=205 dy=0 dh=205 dv=0
Position2: "Single Positioning lookup 199 subtable" dx=205 dy=0 dh=205 dv=0
Position2: "Single Positioning lookup 196 subtable" dx=205 dy=0 dh=205 dv=0
Position2: "Single Positioning lookup 195 subtable" dx=205 dy=0 dh=205 dv=0
Position2: "Single Positioning lookup 194 subtable" dx=205 dy=0 dh=205 dv=0
Position2: "Single Positioning lookup 192 subtable" dx=205 dy=0 dh=205 dv=0
Position2: "Single Positioning lookup 190 subtable" dx=205 dy=0 dh=205 dv=0
Position2: "Single Positioning lookup 189 subtable" dx=205 dy=0 dh=205 dv=0
Position2: "Single Positioning lookup 187 subtable" dx=205 dy=0 dh=205 dv=0
Position2: "Single Positioning lookup 186 subtable" dx=205 dy=0 dh=205 dv=0
Position2: "Single Positioning lookup 185 subtable" dx=205 dy=0 dh=205 dv=0
Position2: "Single Positioning lookup 181 subtable" dx=198 dy=0 dh=198 dv=0
Position2: "Single Positioning lookup 179 subtable" dx=198 dy=0 dh=198 dv=0
Position2: "Single Positioning lookup 174 subtable" dx=198 dy=0 dh=198 dv=0
Position2: "Single Positioning lookup 173 subtable" dx=198 dy=0 dh=198 dv=0
Position2: "Single Positioning lookup 172 subtable" dx=198 dy=0 dh=198 dv=0
Position2: "Single Positioning lookup 169 subtable" dx=198 dy=0 dh=198 dv=0
Position2: "Single Positioning lookup 163 subtable" dx=198 dy=0 dh=198 dv=0
Position2: "Single Positioning lookup 160 subtable" dx=198 dy=0 dh=198 dv=0
Position2: "Single Positioning lookup 159 subtable" dx=198 dy=0 dh=198 dv=0
Position2: "Single Positioning lookup 158 subtable" dx=198 dy=0 dh=198 dv=0
Position2: "Single Positioning lookup 156 subtable" dx=198 dy=0 dh=198 dv=0
Position2: "Single Positioning lookup 154 subtable" dx=198 dy=0 dh=198 dv=0
Position2: "Single Positioning lookup 153 subtable" dx=198 dy=0 dh=198 dv=0
Position2: "Single Positioning lookup 151 subtable" dx=198 dy=0 dh=198 dv=0
Position2: "Single Positioning lookup 150 subtable" dx=198 dy=0 dh=198 dv=0
Position2: "Single Positioning lookup 149 subtable" dx=198 dy=0 dh=198 dv=0
Position2: "Single Positioning lookup 34 subtable" dx=0 dy=0 dh=206 dv=0
Position2: "Single Positioning lookup 33 subtable" dx=149 dy=0 dh=149 dv=0
Position2: "Single Positioning lookup 31 subtable" dx=0 dy=0 dh=52 dv=0
Position2: "Single Positioning lookup 30 subtable" dx=200 dy=0 dh=200 dv=0
Position2: "Single Positioning lookup 25 subtable" dx=25 dy=0 dh=25 dv=0
Position2: "Single Positioning lookup 11 subtable" dx=108 dy=0 dh=108 dv=0
Position2: "Single Positioning lookup 7 subtable" dx=15 dy=0 dh=15 dv=0
Position2: "Single Positioning lookup 6 subtable" dx=101 dy=0 dh=101 dv=0
Position2: "Single Positioning lookup 5 subtable" dx=1 dy=0 dh=1 dv=0
EndChar

